G04 EAGLE Gerber RS-274X export*
G75*
%MOMM*%
%FSLAX34Y34*%
%LPD*%
%INBottom Copper*%
%IPPOS*%
%AMOC8*
5,1,8,0,0,1.08239X$1,22.5*%
G01*
%ADD10R,1.500000X1.300000*%
%ADD11R,1.600000X1.800000*%
%ADD12R,1.300000X1.500000*%
%ADD13R,1.900000X0.900000*%
%ADD14R,1.900000X3.200000*%
%ADD15C,1.879600*%
%ADD16C,0.406400*%
%ADD17C,0.858000*%
%ADD18C,0.203200*%
%ADD19C,0.808000*%

G36*
X625876Y2543D02*
X625876Y2543D01*
X625894Y2541D01*
X626076Y2562D01*
X626259Y2581D01*
X626276Y2586D01*
X626293Y2588D01*
X626468Y2645D01*
X626644Y2699D01*
X626659Y2707D01*
X626676Y2713D01*
X626836Y2803D01*
X626998Y2891D01*
X627011Y2902D01*
X627027Y2911D01*
X627166Y3031D01*
X627307Y3148D01*
X627318Y3162D01*
X627332Y3174D01*
X627444Y3319D01*
X627559Y3462D01*
X627567Y3478D01*
X627578Y3492D01*
X627660Y3657D01*
X627745Y3819D01*
X627750Y3836D01*
X627758Y3852D01*
X627805Y4031D01*
X627856Y4206D01*
X627858Y4224D01*
X627862Y4241D01*
X627889Y4572D01*
X627889Y223928D01*
X627887Y223946D01*
X627889Y223964D01*
X627868Y224146D01*
X627849Y224329D01*
X627844Y224346D01*
X627842Y224363D01*
X627785Y224538D01*
X627731Y224714D01*
X627723Y224729D01*
X627717Y224746D01*
X627627Y224906D01*
X627539Y225068D01*
X627528Y225081D01*
X627519Y225097D01*
X627399Y225236D01*
X627282Y225377D01*
X627268Y225388D01*
X627256Y225402D01*
X627111Y225514D01*
X626968Y225629D01*
X626952Y225637D01*
X626938Y225648D01*
X626773Y225730D01*
X626611Y225815D01*
X626594Y225820D01*
X626578Y225828D01*
X626399Y225875D01*
X626224Y225926D01*
X626206Y225928D01*
X626189Y225932D01*
X625858Y225959D01*
X4572Y225959D01*
X4554Y225957D01*
X4536Y225959D01*
X4354Y225938D01*
X4171Y225919D01*
X4154Y225914D01*
X4137Y225912D01*
X3962Y225855D01*
X3786Y225801D01*
X3771Y225793D01*
X3754Y225787D01*
X3594Y225697D01*
X3432Y225609D01*
X3419Y225598D01*
X3403Y225589D01*
X3264Y225469D01*
X3123Y225352D01*
X3112Y225338D01*
X3098Y225326D01*
X2986Y225181D01*
X2871Y225038D01*
X2863Y225022D01*
X2852Y225008D01*
X2770Y224843D01*
X2685Y224681D01*
X2680Y224664D01*
X2672Y224648D01*
X2625Y224469D01*
X2574Y224294D01*
X2572Y224276D01*
X2568Y224259D01*
X2541Y223928D01*
X2541Y4572D01*
X2543Y4554D01*
X2541Y4536D01*
X2562Y4354D01*
X2581Y4171D01*
X2586Y4154D01*
X2588Y4137D01*
X2645Y3962D01*
X2699Y3786D01*
X2707Y3771D01*
X2713Y3754D01*
X2803Y3594D01*
X2891Y3432D01*
X2902Y3419D01*
X2911Y3403D01*
X3031Y3264D01*
X3148Y3123D01*
X3162Y3112D01*
X3174Y3098D01*
X3319Y2986D01*
X3462Y2871D01*
X3478Y2863D01*
X3492Y2852D01*
X3657Y2770D01*
X3819Y2685D01*
X3836Y2680D01*
X3852Y2672D01*
X4031Y2625D01*
X4206Y2574D01*
X4224Y2572D01*
X4241Y2568D01*
X4572Y2541D01*
X625858Y2541D01*
X625876Y2543D01*
G37*
%LPC*%
G36*
X23025Y13461D02*
X23025Y13461D01*
X18637Y15279D01*
X15279Y18637D01*
X13461Y23025D01*
X13461Y27775D01*
X15279Y32163D01*
X18637Y35521D01*
X23025Y37339D01*
X27775Y37339D01*
X32163Y35521D01*
X35521Y32163D01*
X36223Y30467D01*
X36228Y30460D01*
X36230Y30451D01*
X36322Y30283D01*
X36414Y30113D01*
X36419Y30106D01*
X36424Y30098D01*
X36546Y29952D01*
X36670Y29802D01*
X36677Y29797D01*
X36683Y29790D01*
X36832Y29671D01*
X36983Y29548D01*
X36991Y29544D01*
X36998Y29539D01*
X37166Y29452D01*
X37339Y29361D01*
X37348Y29359D01*
X37356Y29355D01*
X37539Y29303D01*
X37726Y29248D01*
X37735Y29248D01*
X37743Y29245D01*
X37934Y29230D01*
X38127Y29214D01*
X38136Y29215D01*
X38144Y29214D01*
X38335Y29237D01*
X38527Y29259D01*
X38535Y29262D01*
X38544Y29263D01*
X38725Y29322D01*
X38910Y29382D01*
X38918Y29386D01*
X38926Y29389D01*
X39093Y29484D01*
X39262Y29578D01*
X39268Y29584D01*
X39276Y29589D01*
X39422Y29716D01*
X39567Y29840D01*
X39573Y29847D01*
X39580Y29853D01*
X39696Y30005D01*
X39816Y30157D01*
X39820Y30165D01*
X39825Y30172D01*
X39977Y30467D01*
X40679Y32163D01*
X44037Y35521D01*
X48425Y37339D01*
X53175Y37339D01*
X57563Y35521D01*
X60921Y32163D01*
X61623Y30467D01*
X61628Y30460D01*
X61630Y30451D01*
X61722Y30283D01*
X61814Y30113D01*
X61819Y30106D01*
X61824Y30098D01*
X61946Y29952D01*
X62070Y29802D01*
X62077Y29797D01*
X62083Y29790D01*
X62232Y29671D01*
X62383Y29548D01*
X62391Y29544D01*
X62398Y29539D01*
X62566Y29452D01*
X62739Y29361D01*
X62748Y29359D01*
X62756Y29355D01*
X62939Y29303D01*
X63126Y29248D01*
X63135Y29248D01*
X63143Y29245D01*
X63334Y29230D01*
X63527Y29214D01*
X63536Y29215D01*
X63544Y29214D01*
X63735Y29237D01*
X63927Y29259D01*
X63935Y29262D01*
X63944Y29263D01*
X64125Y29322D01*
X64310Y29382D01*
X64318Y29386D01*
X64326Y29389D01*
X64493Y29484D01*
X64662Y29578D01*
X64668Y29584D01*
X64676Y29589D01*
X64822Y29716D01*
X64967Y29840D01*
X64973Y29847D01*
X64980Y29853D01*
X65096Y30005D01*
X65216Y30157D01*
X65220Y30165D01*
X65225Y30172D01*
X65377Y30467D01*
X66079Y32163D01*
X69437Y35521D01*
X73825Y37339D01*
X78575Y37339D01*
X82963Y35521D01*
X86321Y32163D01*
X87023Y30467D01*
X87028Y30460D01*
X87030Y30451D01*
X87122Y30283D01*
X87214Y30113D01*
X87219Y30106D01*
X87224Y30098D01*
X87346Y29952D01*
X87470Y29802D01*
X87477Y29797D01*
X87483Y29790D01*
X87632Y29671D01*
X87783Y29548D01*
X87791Y29544D01*
X87798Y29539D01*
X87966Y29452D01*
X88139Y29361D01*
X88148Y29359D01*
X88156Y29355D01*
X88339Y29303D01*
X88526Y29248D01*
X88535Y29248D01*
X88543Y29245D01*
X88734Y29230D01*
X88927Y29214D01*
X88936Y29215D01*
X88944Y29214D01*
X89135Y29237D01*
X89327Y29259D01*
X89335Y29262D01*
X89344Y29263D01*
X89525Y29322D01*
X89710Y29382D01*
X89718Y29386D01*
X89726Y29389D01*
X89893Y29484D01*
X90062Y29578D01*
X90068Y29584D01*
X90076Y29589D01*
X90222Y29716D01*
X90367Y29840D01*
X90373Y29847D01*
X90380Y29853D01*
X90496Y30005D01*
X90616Y30157D01*
X90620Y30165D01*
X90625Y30172D01*
X90777Y30467D01*
X91479Y32163D01*
X94837Y35521D01*
X99225Y37339D01*
X103975Y37339D01*
X108363Y35521D01*
X111721Y32163D01*
X112423Y30467D01*
X112428Y30460D01*
X112430Y30451D01*
X112522Y30283D01*
X112614Y30113D01*
X112619Y30106D01*
X112624Y30098D01*
X112746Y29952D01*
X112870Y29802D01*
X112877Y29797D01*
X112883Y29790D01*
X113032Y29671D01*
X113183Y29548D01*
X113191Y29544D01*
X113198Y29539D01*
X113366Y29452D01*
X113539Y29361D01*
X113548Y29359D01*
X113556Y29355D01*
X113739Y29303D01*
X113926Y29248D01*
X113935Y29248D01*
X113943Y29245D01*
X114134Y29230D01*
X114327Y29214D01*
X114336Y29215D01*
X114344Y29214D01*
X114535Y29237D01*
X114727Y29259D01*
X114735Y29262D01*
X114744Y29263D01*
X114925Y29322D01*
X115110Y29382D01*
X115118Y29386D01*
X115126Y29389D01*
X115293Y29484D01*
X115462Y29578D01*
X115468Y29584D01*
X115476Y29589D01*
X115622Y29716D01*
X115767Y29840D01*
X115773Y29847D01*
X115780Y29853D01*
X115896Y30005D01*
X116016Y30157D01*
X116020Y30165D01*
X116025Y30172D01*
X116177Y30467D01*
X116879Y32163D01*
X120237Y35521D01*
X124625Y37339D01*
X129375Y37339D01*
X133763Y35521D01*
X137121Y32163D01*
X137823Y30467D01*
X137828Y30460D01*
X137830Y30451D01*
X137922Y30283D01*
X138014Y30113D01*
X138019Y30106D01*
X138024Y30098D01*
X138146Y29952D01*
X138270Y29802D01*
X138277Y29797D01*
X138283Y29790D01*
X138432Y29671D01*
X138583Y29548D01*
X138591Y29544D01*
X138598Y29539D01*
X138766Y29452D01*
X138939Y29361D01*
X138948Y29359D01*
X138956Y29355D01*
X139139Y29303D01*
X139326Y29248D01*
X139335Y29248D01*
X139343Y29245D01*
X139534Y29230D01*
X139727Y29214D01*
X139736Y29215D01*
X139744Y29214D01*
X139935Y29237D01*
X140127Y29259D01*
X140135Y29262D01*
X140144Y29263D01*
X140325Y29322D01*
X140510Y29382D01*
X140518Y29386D01*
X140526Y29389D01*
X140693Y29484D01*
X140862Y29578D01*
X140868Y29584D01*
X140876Y29589D01*
X141022Y29716D01*
X141167Y29840D01*
X141173Y29847D01*
X141180Y29853D01*
X141296Y30005D01*
X141416Y30157D01*
X141420Y30165D01*
X141425Y30172D01*
X141577Y30467D01*
X142279Y32163D01*
X145637Y35521D01*
X150025Y37339D01*
X154775Y37339D01*
X159163Y35521D01*
X162521Y32163D01*
X163223Y30467D01*
X163228Y30460D01*
X163230Y30451D01*
X163322Y30283D01*
X163414Y30113D01*
X163419Y30106D01*
X163424Y30098D01*
X163546Y29952D01*
X163670Y29802D01*
X163677Y29797D01*
X163683Y29790D01*
X163832Y29671D01*
X163983Y29548D01*
X163991Y29544D01*
X163998Y29539D01*
X164166Y29452D01*
X164339Y29361D01*
X164348Y29359D01*
X164356Y29355D01*
X164539Y29303D01*
X164726Y29248D01*
X164735Y29248D01*
X164743Y29245D01*
X164934Y29230D01*
X165127Y29214D01*
X165136Y29215D01*
X165144Y29214D01*
X165335Y29237D01*
X165527Y29259D01*
X165535Y29262D01*
X165544Y29263D01*
X165725Y29322D01*
X165910Y29382D01*
X165918Y29386D01*
X165926Y29389D01*
X166093Y29484D01*
X166262Y29578D01*
X166268Y29584D01*
X166276Y29589D01*
X166422Y29716D01*
X166567Y29840D01*
X166573Y29847D01*
X166580Y29853D01*
X166696Y30005D01*
X166816Y30157D01*
X166820Y30165D01*
X166825Y30172D01*
X166977Y30467D01*
X167679Y32163D01*
X171037Y35521D01*
X175425Y37339D01*
X180175Y37339D01*
X184563Y35521D01*
X187921Y32163D01*
X188623Y30467D01*
X188628Y30460D01*
X188630Y30451D01*
X188722Y30283D01*
X188814Y30113D01*
X188819Y30106D01*
X188824Y30098D01*
X188946Y29952D01*
X189070Y29802D01*
X189077Y29797D01*
X189083Y29790D01*
X189232Y29671D01*
X189383Y29548D01*
X189391Y29544D01*
X189398Y29539D01*
X189566Y29452D01*
X189739Y29361D01*
X189748Y29359D01*
X189756Y29355D01*
X189939Y29303D01*
X190126Y29248D01*
X190135Y29248D01*
X190143Y29245D01*
X190334Y29230D01*
X190527Y29214D01*
X190536Y29215D01*
X190544Y29214D01*
X190735Y29237D01*
X190927Y29259D01*
X190935Y29262D01*
X190944Y29263D01*
X191125Y29322D01*
X191310Y29382D01*
X191318Y29386D01*
X191326Y29389D01*
X191493Y29484D01*
X191662Y29578D01*
X191668Y29584D01*
X191676Y29589D01*
X191822Y29716D01*
X191967Y29840D01*
X191973Y29847D01*
X191980Y29853D01*
X192096Y30005D01*
X192216Y30157D01*
X192220Y30165D01*
X192225Y30172D01*
X192377Y30467D01*
X193079Y32163D01*
X196437Y35521D01*
X200825Y37339D01*
X205575Y37339D01*
X209963Y35521D01*
X213321Y32163D01*
X214023Y30467D01*
X214028Y30460D01*
X214030Y30451D01*
X214122Y30283D01*
X214214Y30113D01*
X214219Y30106D01*
X214224Y30098D01*
X214346Y29952D01*
X214470Y29802D01*
X214477Y29797D01*
X214483Y29790D01*
X214632Y29671D01*
X214783Y29548D01*
X214791Y29544D01*
X214798Y29539D01*
X214966Y29452D01*
X215139Y29361D01*
X215148Y29359D01*
X215156Y29355D01*
X215339Y29303D01*
X215526Y29248D01*
X215535Y29248D01*
X215543Y29245D01*
X215734Y29230D01*
X215927Y29214D01*
X215936Y29215D01*
X215944Y29214D01*
X216135Y29237D01*
X216327Y29259D01*
X216335Y29262D01*
X216344Y29263D01*
X216525Y29322D01*
X216710Y29382D01*
X216718Y29386D01*
X216726Y29389D01*
X216893Y29484D01*
X217062Y29578D01*
X217068Y29584D01*
X217076Y29589D01*
X217222Y29716D01*
X217367Y29840D01*
X217373Y29847D01*
X217380Y29853D01*
X217496Y30005D01*
X217616Y30157D01*
X217620Y30165D01*
X217625Y30172D01*
X217777Y30467D01*
X218479Y32163D01*
X221993Y35677D01*
X222039Y35716D01*
X222184Y35836D01*
X222192Y35846D01*
X222203Y35855D01*
X222319Y36003D01*
X222438Y36148D01*
X222444Y36160D01*
X222452Y36171D01*
X222538Y36339D01*
X222625Y36505D01*
X222629Y36518D01*
X222635Y36530D01*
X222685Y36711D01*
X222738Y36891D01*
X222739Y36905D01*
X222743Y36918D01*
X222756Y37105D01*
X222773Y37292D01*
X222771Y37306D01*
X222772Y37319D01*
X222749Y37506D01*
X222728Y37692D01*
X222723Y37705D01*
X222722Y37719D01*
X222662Y37896D01*
X222604Y38076D01*
X222598Y38087D01*
X222593Y38100D01*
X222500Y38263D01*
X222408Y38427D01*
X222399Y38437D01*
X222393Y38449D01*
X222178Y38702D01*
X213216Y47664D01*
X213195Y47681D01*
X213177Y47702D01*
X213040Y47809D01*
X212904Y47919D01*
X212881Y47932D01*
X212859Y47948D01*
X212702Y48026D01*
X212548Y48108D01*
X212523Y48116D01*
X212499Y48128D01*
X212329Y48173D01*
X212163Y48223D01*
X212136Y48225D01*
X212110Y48232D01*
X211779Y48259D01*
X209461Y48259D01*
X206951Y49299D01*
X205029Y51221D01*
X203989Y53731D01*
X203989Y56449D01*
X205029Y58959D01*
X206951Y60881D01*
X209461Y61921D01*
X212179Y61921D01*
X214689Y60881D01*
X216611Y58959D01*
X217651Y56449D01*
X217651Y54131D01*
X217653Y54104D01*
X217651Y54077D01*
X217673Y53903D01*
X217691Y53730D01*
X217698Y53705D01*
X217702Y53678D01*
X217757Y53512D01*
X217809Y53345D01*
X217822Y53322D01*
X217830Y53296D01*
X217917Y53145D01*
X218001Y52991D01*
X218018Y52971D01*
X218031Y52947D01*
X218246Y52694D01*
X228688Y42252D01*
X228709Y42235D01*
X228727Y42214D01*
X228864Y42107D01*
X229000Y41997D01*
X229023Y41984D01*
X229045Y41968D01*
X229202Y41890D01*
X229356Y41808D01*
X229381Y41800D01*
X229405Y41788D01*
X229575Y41743D01*
X229741Y41693D01*
X229768Y41691D01*
X229794Y41684D01*
X230125Y41657D01*
X269443Y41657D01*
X273758Y37342D01*
X273775Y37328D01*
X273789Y37311D01*
X273930Y37201D01*
X274069Y37087D01*
X274089Y37077D01*
X274106Y37063D01*
X274267Y36983D01*
X274425Y36899D01*
X274446Y36892D01*
X274466Y36882D01*
X274639Y36835D01*
X274811Y36784D01*
X274833Y36782D01*
X274854Y36776D01*
X275033Y36764D01*
X275212Y36748D01*
X275234Y36750D01*
X275256Y36748D01*
X275434Y36772D01*
X275612Y36791D01*
X275633Y36798D01*
X275655Y36801D01*
X275971Y36902D01*
X277025Y37339D01*
X281775Y37339D01*
X286163Y35521D01*
X289521Y32163D01*
X290223Y30467D01*
X290228Y30460D01*
X290230Y30451D01*
X290323Y30281D01*
X290414Y30113D01*
X290419Y30106D01*
X290424Y30098D01*
X290548Y29949D01*
X290670Y29802D01*
X290677Y29797D01*
X290683Y29790D01*
X290834Y29669D01*
X290983Y29548D01*
X290990Y29544D01*
X290998Y29539D01*
X291170Y29450D01*
X291339Y29361D01*
X291348Y29359D01*
X291356Y29355D01*
X291540Y29303D01*
X291726Y29248D01*
X291735Y29248D01*
X291743Y29245D01*
X291934Y29230D01*
X292127Y29214D01*
X292136Y29215D01*
X292144Y29214D01*
X292336Y29237D01*
X292527Y29259D01*
X292535Y29262D01*
X292544Y29263D01*
X292726Y29323D01*
X292910Y29382D01*
X292918Y29386D01*
X292926Y29389D01*
X293092Y29484D01*
X293262Y29578D01*
X293268Y29584D01*
X293276Y29589D01*
X293420Y29714D01*
X293567Y29840D01*
X293573Y29847D01*
X293580Y29853D01*
X293697Y30005D01*
X293816Y30157D01*
X293820Y30165D01*
X293825Y30172D01*
X293977Y30467D01*
X294679Y32163D01*
X298037Y35521D01*
X302425Y37339D01*
X307175Y37339D01*
X311563Y35521D01*
X314921Y32163D01*
X315623Y30467D01*
X315628Y30460D01*
X315630Y30451D01*
X315723Y30281D01*
X315814Y30113D01*
X315819Y30106D01*
X315824Y30098D01*
X315948Y29949D01*
X316070Y29802D01*
X316077Y29797D01*
X316083Y29790D01*
X316234Y29669D01*
X316383Y29548D01*
X316390Y29544D01*
X316398Y29539D01*
X316570Y29450D01*
X316739Y29361D01*
X316748Y29359D01*
X316756Y29355D01*
X316940Y29303D01*
X317126Y29248D01*
X317135Y29248D01*
X317143Y29245D01*
X317334Y29230D01*
X317527Y29214D01*
X317536Y29215D01*
X317544Y29214D01*
X317736Y29237D01*
X317927Y29259D01*
X317935Y29262D01*
X317944Y29263D01*
X318126Y29323D01*
X318310Y29382D01*
X318318Y29386D01*
X318326Y29389D01*
X318492Y29484D01*
X318662Y29578D01*
X318668Y29584D01*
X318676Y29589D01*
X318820Y29714D01*
X318967Y29840D01*
X318973Y29847D01*
X318980Y29853D01*
X319097Y30005D01*
X319216Y30157D01*
X319220Y30165D01*
X319225Y30172D01*
X319377Y30467D01*
X320079Y32163D01*
X323437Y35521D01*
X327825Y37339D01*
X332575Y37339D01*
X336963Y35521D01*
X340321Y32163D01*
X341023Y30467D01*
X341028Y30460D01*
X341030Y30451D01*
X341123Y30281D01*
X341214Y30113D01*
X341219Y30106D01*
X341224Y30098D01*
X341348Y29949D01*
X341470Y29802D01*
X341477Y29797D01*
X341483Y29790D01*
X341634Y29669D01*
X341783Y29548D01*
X341790Y29544D01*
X341798Y29539D01*
X341970Y29450D01*
X342139Y29361D01*
X342148Y29359D01*
X342156Y29355D01*
X342340Y29303D01*
X342526Y29248D01*
X342535Y29248D01*
X342543Y29245D01*
X342734Y29230D01*
X342927Y29214D01*
X342936Y29215D01*
X342944Y29214D01*
X343136Y29237D01*
X343327Y29259D01*
X343335Y29262D01*
X343344Y29263D01*
X343526Y29323D01*
X343710Y29382D01*
X343718Y29386D01*
X343726Y29389D01*
X343892Y29484D01*
X344062Y29578D01*
X344068Y29584D01*
X344076Y29589D01*
X344220Y29714D01*
X344367Y29840D01*
X344373Y29847D01*
X344380Y29853D01*
X344497Y30005D01*
X344616Y30157D01*
X344620Y30165D01*
X344625Y30172D01*
X344777Y30467D01*
X345479Y32163D01*
X348837Y35521D01*
X353225Y37339D01*
X357975Y37339D01*
X362363Y35521D01*
X365721Y32163D01*
X366423Y30467D01*
X366428Y30460D01*
X366430Y30451D01*
X366523Y30281D01*
X366614Y30113D01*
X366619Y30106D01*
X366624Y30098D01*
X366748Y29949D01*
X366870Y29802D01*
X366877Y29797D01*
X366883Y29790D01*
X367034Y29669D01*
X367183Y29548D01*
X367190Y29544D01*
X367198Y29539D01*
X367370Y29450D01*
X367539Y29361D01*
X367548Y29359D01*
X367556Y29355D01*
X367740Y29303D01*
X367926Y29248D01*
X367935Y29248D01*
X367943Y29245D01*
X368134Y29230D01*
X368327Y29214D01*
X368336Y29215D01*
X368344Y29214D01*
X368536Y29237D01*
X368727Y29259D01*
X368735Y29262D01*
X368744Y29263D01*
X368926Y29323D01*
X369110Y29382D01*
X369118Y29386D01*
X369126Y29389D01*
X369292Y29484D01*
X369462Y29578D01*
X369468Y29584D01*
X369476Y29589D01*
X369620Y29714D01*
X369767Y29840D01*
X369773Y29847D01*
X369780Y29853D01*
X369897Y30005D01*
X370016Y30157D01*
X370020Y30165D01*
X370025Y30172D01*
X370177Y30467D01*
X370879Y32163D01*
X374237Y35521D01*
X378625Y37339D01*
X383375Y37339D01*
X387763Y35521D01*
X391121Y32163D01*
X391823Y30467D01*
X391828Y30460D01*
X391830Y30451D01*
X391923Y30281D01*
X392014Y30113D01*
X392019Y30106D01*
X392024Y30098D01*
X392148Y29949D01*
X392270Y29802D01*
X392277Y29797D01*
X392283Y29790D01*
X392433Y29670D01*
X392583Y29548D01*
X392591Y29544D01*
X392598Y29539D01*
X392769Y29451D01*
X392939Y29361D01*
X392948Y29359D01*
X392956Y29355D01*
X393141Y29302D01*
X393326Y29248D01*
X393334Y29248D01*
X393343Y29245D01*
X393536Y29230D01*
X393727Y29214D01*
X393736Y29215D01*
X393744Y29214D01*
X393936Y29237D01*
X394127Y29259D01*
X394135Y29262D01*
X394144Y29263D01*
X394326Y29323D01*
X394510Y29382D01*
X394518Y29386D01*
X394526Y29389D01*
X394692Y29484D01*
X394862Y29578D01*
X394868Y29584D01*
X394876Y29589D01*
X395021Y29715D01*
X395167Y29840D01*
X395173Y29847D01*
X395180Y29853D01*
X395298Y30007D01*
X395416Y30157D01*
X395420Y30165D01*
X395425Y30172D01*
X395577Y30467D01*
X396014Y31523D01*
X396020Y31544D01*
X396030Y31564D01*
X396078Y31737D01*
X396130Y31908D01*
X396132Y31930D01*
X396138Y31952D01*
X396151Y32131D01*
X396168Y32309D01*
X396166Y32331D01*
X396168Y32354D01*
X396145Y32532D01*
X396127Y32710D01*
X396120Y32731D01*
X396117Y32753D01*
X396060Y32923D01*
X396007Y33094D01*
X395996Y33114D01*
X395989Y33135D01*
X395900Y33290D01*
X395814Y33447D01*
X395799Y33464D01*
X395788Y33484D01*
X395573Y33737D01*
X373772Y55538D01*
X373751Y55555D01*
X373733Y55576D01*
X373596Y55683D01*
X373460Y55793D01*
X373437Y55806D01*
X373415Y55822D01*
X373258Y55900D01*
X373104Y55982D01*
X373079Y55990D01*
X373055Y56002D01*
X372885Y56047D01*
X372719Y56097D01*
X372692Y56099D01*
X372666Y56106D01*
X372335Y56133D01*
X264219Y56133D01*
X264192Y56131D01*
X264165Y56133D01*
X263992Y56111D01*
X263818Y56093D01*
X263793Y56086D01*
X263766Y56082D01*
X263600Y56027D01*
X263433Y55975D01*
X263410Y55962D01*
X263384Y55954D01*
X263233Y55867D01*
X263079Y55783D01*
X263059Y55766D01*
X263035Y55753D01*
X263007Y55729D01*
X261718Y55195D01*
X260439Y54665D01*
X257721Y54665D01*
X255211Y55705D01*
X253289Y57627D01*
X252249Y60137D01*
X252249Y62855D01*
X253289Y65365D01*
X255211Y67287D01*
X257721Y68327D01*
X260439Y68327D01*
X262949Y67287D01*
X264871Y65365D01*
X265229Y64501D01*
X265239Y64481D01*
X265246Y64460D01*
X265334Y64304D01*
X265419Y64146D01*
X265433Y64129D01*
X265444Y64109D01*
X265561Y63973D01*
X265676Y63835D01*
X265693Y63821D01*
X265707Y63804D01*
X265849Y63695D01*
X265988Y63582D01*
X266008Y63571D01*
X266026Y63558D01*
X266186Y63478D01*
X266345Y63395D01*
X266366Y63388D01*
X266386Y63378D01*
X266559Y63332D01*
X266731Y63282D01*
X266753Y63280D01*
X266775Y63274D01*
X267106Y63247D01*
X268703Y63247D01*
X268712Y63248D01*
X268721Y63247D01*
X268915Y63268D01*
X269104Y63287D01*
X269112Y63289D01*
X269121Y63290D01*
X269305Y63348D01*
X269489Y63405D01*
X269497Y63409D01*
X269505Y63412D01*
X269673Y63504D01*
X269843Y63597D01*
X269850Y63602D01*
X269858Y63607D01*
X270005Y63731D01*
X270152Y63854D01*
X270158Y63861D01*
X270165Y63867D01*
X270284Y64019D01*
X270405Y64168D01*
X270409Y64176D01*
X270414Y64183D01*
X270502Y64356D01*
X270590Y64525D01*
X270593Y64534D01*
X270597Y64542D01*
X270649Y64728D01*
X270701Y64912D01*
X270702Y64921D01*
X270705Y64930D01*
X270719Y65121D01*
X270734Y65314D01*
X270733Y65322D01*
X270734Y65331D01*
X270710Y65524D01*
X270687Y65713D01*
X270685Y65722D01*
X270684Y65731D01*
X270622Y65914D01*
X270563Y66096D01*
X270558Y66104D01*
X270555Y66112D01*
X270459Y66279D01*
X270365Y66447D01*
X270359Y66454D01*
X270354Y66461D01*
X270140Y66714D01*
X260234Y76620D01*
X260213Y76637D01*
X260195Y76658D01*
X260058Y76765D01*
X259922Y76875D01*
X259899Y76888D01*
X259877Y76904D01*
X259720Y76982D01*
X259566Y77064D01*
X259541Y77072D01*
X259517Y77084D01*
X259347Y77129D01*
X259181Y77179D01*
X259154Y77181D01*
X259128Y77188D01*
X258797Y77215D01*
X226555Y77215D01*
X226529Y77213D01*
X226502Y77215D01*
X226328Y77193D01*
X226155Y77175D01*
X226129Y77168D01*
X226102Y77164D01*
X225937Y77109D01*
X225770Y77057D01*
X225746Y77044D01*
X225721Y77036D01*
X225569Y76949D01*
X225416Y76865D01*
X225395Y76848D01*
X225372Y76835D01*
X225119Y76620D01*
X223692Y75193D01*
X221273Y74191D01*
X218655Y74191D01*
X216236Y75193D01*
X214385Y77044D01*
X213383Y79463D01*
X213383Y82081D01*
X213571Y82535D01*
X213575Y82548D01*
X213581Y82559D01*
X213633Y82740D01*
X213688Y82920D01*
X213689Y82933D01*
X213693Y82946D01*
X213708Y83135D01*
X213726Y83321D01*
X213724Y83334D01*
X213726Y83348D01*
X213704Y83534D01*
X213684Y83721D01*
X213680Y83734D01*
X213679Y83747D01*
X213621Y83925D01*
X213564Y84106D01*
X213558Y84117D01*
X213554Y84130D01*
X213461Y84294D01*
X213371Y84459D01*
X213362Y84469D01*
X213356Y84481D01*
X213233Y84623D01*
X213112Y84767D01*
X213101Y84775D01*
X213093Y84786D01*
X212944Y84901D01*
X212797Y85018D01*
X212785Y85024D01*
X212775Y85032D01*
X212606Y85116D01*
X212439Y85202D01*
X212426Y85206D01*
X212414Y85212D01*
X212232Y85261D01*
X212052Y85312D01*
X212038Y85313D01*
X212025Y85316D01*
X211695Y85343D01*
X209347Y85343D01*
X208136Y86554D01*
X208115Y86571D01*
X208098Y86592D01*
X207960Y86699D01*
X207824Y86809D01*
X207801Y86822D01*
X207779Y86838D01*
X207623Y86916D01*
X207469Y86998D01*
X207443Y87006D01*
X207419Y87018D01*
X207250Y87063D01*
X207083Y87113D01*
X207056Y87115D01*
X207030Y87122D01*
X206699Y87149D01*
X204381Y87149D01*
X201871Y88189D01*
X199949Y90111D01*
X198909Y92621D01*
X198909Y94008D01*
X198907Y94026D01*
X198909Y94044D01*
X198888Y94226D01*
X198869Y94409D01*
X198864Y94426D01*
X198862Y94443D01*
X198806Y94617D01*
X198751Y94794D01*
X198743Y94809D01*
X198737Y94826D01*
X198647Y94986D01*
X198559Y95148D01*
X198548Y95161D01*
X198539Y95177D01*
X198419Y95316D01*
X198302Y95457D01*
X198288Y95468D01*
X198276Y95482D01*
X198131Y95594D01*
X197988Y95709D01*
X197972Y95717D01*
X197958Y95728D01*
X197793Y95810D01*
X197631Y95895D01*
X197614Y95900D01*
X197598Y95908D01*
X197419Y95955D01*
X197244Y96006D01*
X197226Y96008D01*
X197209Y96012D01*
X196878Y96039D01*
X196761Y96039D01*
X194251Y97079D01*
X192329Y99001D01*
X191289Y101511D01*
X191289Y103402D01*
X191287Y103420D01*
X191289Y103438D01*
X191268Y103620D01*
X191249Y103803D01*
X191244Y103820D01*
X191242Y103837D01*
X191185Y104012D01*
X191131Y104188D01*
X191123Y104203D01*
X191117Y104220D01*
X191027Y104380D01*
X190939Y104542D01*
X190928Y104555D01*
X190919Y104571D01*
X190799Y104710D01*
X190682Y104851D01*
X190668Y104862D01*
X190656Y104876D01*
X190511Y104988D01*
X190368Y105103D01*
X190352Y105111D01*
X190338Y105122D01*
X190173Y105204D01*
X190011Y105289D01*
X189994Y105294D01*
X189978Y105302D01*
X189799Y105349D01*
X189624Y105400D01*
X189606Y105402D01*
X189589Y105406D01*
X189258Y105433D01*
X188429Y105433D01*
X186010Y106435D01*
X184159Y108286D01*
X183556Y109743D01*
X183545Y109763D01*
X183538Y109784D01*
X183450Y109940D01*
X183365Y110098D01*
X183351Y110115D01*
X183340Y110135D01*
X183223Y110270D01*
X183109Y110409D01*
X183092Y110423D01*
X183077Y110440D01*
X182936Y110549D01*
X182796Y110662D01*
X182777Y110673D01*
X182759Y110686D01*
X182598Y110766D01*
X182440Y110849D01*
X182419Y110856D01*
X182398Y110866D01*
X182225Y110912D01*
X182053Y110962D01*
X182031Y110964D01*
X182010Y110970D01*
X181679Y110997D01*
X130184Y110997D01*
X130171Y110996D01*
X130157Y110997D01*
X129971Y110976D01*
X129784Y110957D01*
X129771Y110953D01*
X129757Y110952D01*
X129578Y110894D01*
X129399Y110839D01*
X129387Y110833D01*
X129374Y110829D01*
X129209Y110737D01*
X129045Y110647D01*
X129034Y110639D01*
X129023Y110632D01*
X128880Y110510D01*
X128735Y110390D01*
X128727Y110379D01*
X128717Y110371D01*
X128601Y110223D01*
X128483Y110076D01*
X128477Y110064D01*
X128469Y110054D01*
X128384Y109885D01*
X128297Y109719D01*
X128294Y109706D01*
X128288Y109694D01*
X128238Y109513D01*
X128186Y109332D01*
X128185Y109318D01*
X128181Y109305D01*
X128169Y109117D01*
X128153Y108930D01*
X128155Y108917D01*
X128154Y108904D01*
X128178Y108716D01*
X128200Y108531D01*
X128204Y108518D01*
X128206Y108505D01*
X128308Y108189D01*
X129390Y105576D01*
X129390Y102958D01*
X128388Y100539D01*
X126537Y98688D01*
X124118Y97686D01*
X122989Y97686D01*
X122962Y97684D01*
X122935Y97686D01*
X122761Y97664D01*
X122588Y97646D01*
X122563Y97639D01*
X122536Y97635D01*
X122370Y97580D01*
X122203Y97528D01*
X122180Y97515D01*
X122154Y97507D01*
X122003Y97420D01*
X121849Y97336D01*
X121829Y97319D01*
X121805Y97306D01*
X121552Y97091D01*
X94183Y69722D01*
X41453Y69722D01*
X36702Y74473D01*
X36702Y108556D01*
X36700Y108583D01*
X36702Y108610D01*
X36680Y108784D01*
X36662Y108957D01*
X36655Y108982D01*
X36651Y109009D01*
X36596Y109175D01*
X36544Y109342D01*
X36531Y109365D01*
X36523Y109391D01*
X36436Y109542D01*
X36352Y109696D01*
X36335Y109716D01*
X36322Y109740D01*
X36107Y109993D01*
X31606Y114494D01*
X31585Y114511D01*
X31567Y114532D01*
X31430Y114639D01*
X31294Y114749D01*
X31271Y114762D01*
X31249Y114778D01*
X31092Y114856D01*
X30938Y114938D01*
X30913Y114946D01*
X30889Y114958D01*
X30719Y115003D01*
X30553Y115053D01*
X30526Y115055D01*
X30500Y115062D01*
X30169Y115089D01*
X27851Y115089D01*
X25341Y116129D01*
X23419Y118051D01*
X22379Y120561D01*
X22379Y123279D01*
X23419Y125789D01*
X25341Y127711D01*
X27575Y128636D01*
X27851Y128751D01*
X30569Y128751D01*
X33079Y127711D01*
X33594Y127196D01*
X33608Y127185D01*
X33619Y127171D01*
X33763Y127058D01*
X33905Y126941D01*
X33921Y126933D01*
X33935Y126922D01*
X34100Y126838D01*
X34261Y126753D01*
X34278Y126748D01*
X34294Y126739D01*
X34472Y126690D01*
X34647Y126638D01*
X34665Y126636D01*
X34682Y126631D01*
X34865Y126618D01*
X35048Y126601D01*
X35066Y126603D01*
X35083Y126602D01*
X35265Y126625D01*
X35448Y126645D01*
X35465Y126650D01*
X35483Y126653D01*
X35657Y126711D01*
X35832Y126766D01*
X35848Y126775D01*
X35865Y126781D01*
X36024Y126873D01*
X36184Y126961D01*
X36198Y126973D01*
X36213Y126982D01*
X36466Y127196D01*
X44364Y135094D01*
X44381Y135115D01*
X44402Y135133D01*
X44509Y135270D01*
X44619Y135406D01*
X44632Y135429D01*
X44648Y135451D01*
X44726Y135608D01*
X44808Y135762D01*
X44816Y135787D01*
X44828Y135811D01*
X44873Y135981D01*
X44923Y136147D01*
X44925Y136174D01*
X44932Y136200D01*
X44959Y136531D01*
X44959Y148252D01*
X46448Y149741D01*
X61552Y149741D01*
X62064Y149229D01*
X62077Y149218D01*
X62089Y149205D01*
X62233Y149091D01*
X62375Y148974D01*
X62391Y148966D01*
X62405Y148955D01*
X62569Y148872D01*
X62731Y148786D01*
X62748Y148781D01*
X62764Y148773D01*
X62941Y148723D01*
X63117Y148671D01*
X63135Y148669D01*
X63152Y148665D01*
X63335Y148651D01*
X63518Y148635D01*
X63536Y148637D01*
X63553Y148635D01*
X63735Y148658D01*
X63918Y148678D01*
X63935Y148683D01*
X63953Y148686D01*
X64126Y148744D01*
X64302Y148799D01*
X64318Y148808D01*
X64334Y148814D01*
X64493Y148905D01*
X64654Y148994D01*
X64668Y149006D01*
X64683Y149015D01*
X64936Y149229D01*
X64940Y149233D01*
X65519Y149568D01*
X66165Y149741D01*
X69751Y149741D01*
X69751Y140918D01*
X69752Y140900D01*
X69751Y140883D01*
X69772Y140700D01*
X69791Y140518D01*
X69796Y140501D01*
X69798Y140483D01*
X69855Y140308D01*
X69909Y140133D01*
X69917Y140117D01*
X69923Y140100D01*
X70013Y139940D01*
X70100Y139779D01*
X70112Y139765D01*
X70121Y139749D01*
X70166Y139697D01*
X70081Y139592D01*
X70073Y139576D01*
X70062Y139562D01*
X69980Y139397D01*
X69895Y139234D01*
X69890Y139217D01*
X69882Y139201D01*
X69834Y139022D01*
X69784Y138848D01*
X69782Y138830D01*
X69778Y138813D01*
X69751Y138482D01*
X69751Y129659D01*
X66165Y129659D01*
X65519Y129832D01*
X64940Y130167D01*
X64936Y130171D01*
X64922Y130182D01*
X64911Y130195D01*
X64767Y130309D01*
X64625Y130426D01*
X64609Y130434D01*
X64595Y130445D01*
X64431Y130528D01*
X64269Y130614D01*
X64252Y130619D01*
X64236Y130627D01*
X64059Y130677D01*
X63883Y130729D01*
X63865Y130731D01*
X63848Y130735D01*
X63665Y130749D01*
X63482Y130765D01*
X63464Y130763D01*
X63447Y130765D01*
X63265Y130742D01*
X63082Y130722D01*
X63065Y130717D01*
X63047Y130714D01*
X62874Y130656D01*
X62698Y130601D01*
X62682Y130592D01*
X62666Y130586D01*
X62507Y130495D01*
X62346Y130406D01*
X62332Y130394D01*
X62317Y130385D01*
X62064Y130171D01*
X61552Y129659D01*
X49831Y129659D01*
X49804Y129657D01*
X49777Y129659D01*
X49603Y129637D01*
X49430Y129619D01*
X49405Y129612D01*
X49378Y129608D01*
X49212Y129553D01*
X49045Y129501D01*
X49022Y129488D01*
X48996Y129480D01*
X48845Y129393D01*
X48691Y129309D01*
X48671Y129292D01*
X48647Y129279D01*
X48394Y129064D01*
X40372Y121042D01*
X39181Y119851D01*
X39170Y119838D01*
X39156Y119826D01*
X39042Y119682D01*
X38926Y119540D01*
X38918Y119524D01*
X38907Y119510D01*
X38823Y119346D01*
X38738Y119184D01*
X38733Y119167D01*
X38724Y119151D01*
X38675Y118974D01*
X38623Y118798D01*
X38621Y118780D01*
X38616Y118763D01*
X38603Y118580D01*
X38586Y118397D01*
X38588Y118379D01*
X38587Y118362D01*
X38610Y118179D01*
X38630Y117997D01*
X38635Y117980D01*
X38637Y117962D01*
X38696Y117789D01*
X38751Y117613D01*
X38760Y117597D01*
X38766Y117581D01*
X38857Y117422D01*
X38946Y117261D01*
X38958Y117247D01*
X38967Y117232D01*
X39181Y116979D01*
X43816Y112344D01*
X43816Y100972D01*
X43818Y100954D01*
X43816Y100936D01*
X43837Y100754D01*
X43856Y100571D01*
X43861Y100554D01*
X43863Y100537D01*
X43920Y100362D01*
X43974Y100186D01*
X43982Y100171D01*
X43988Y100154D01*
X44078Y99994D01*
X44166Y99832D01*
X44177Y99819D01*
X44186Y99803D01*
X44306Y99664D01*
X44423Y99523D01*
X44437Y99512D01*
X44449Y99498D01*
X44594Y99386D01*
X44737Y99271D01*
X44753Y99263D01*
X44767Y99252D01*
X44932Y99170D01*
X45094Y99085D01*
X45111Y99080D01*
X45127Y99072D01*
X45306Y99025D01*
X45481Y98974D01*
X45499Y98972D01*
X45516Y98968D01*
X45847Y98941D01*
X58169Y98941D01*
X58196Y98943D01*
X58223Y98941D01*
X58397Y98963D01*
X58570Y98981D01*
X58596Y98988D01*
X58622Y98992D01*
X58788Y99047D01*
X58955Y99099D01*
X58979Y99112D01*
X59004Y99120D01*
X59155Y99207D01*
X59309Y99291D01*
X59329Y99308D01*
X59353Y99321D01*
X59606Y99536D01*
X69340Y109270D01*
X69360Y109294D01*
X69383Y109315D01*
X69487Y109449D01*
X69595Y109581D01*
X69610Y109609D01*
X69629Y109634D01*
X69771Y109911D01*
X71696Y111836D01*
X74206Y112876D01*
X76924Y112876D01*
X79434Y111836D01*
X81356Y109914D01*
X82396Y107404D01*
X82396Y104686D01*
X81356Y102176D01*
X80773Y101593D01*
X80762Y101579D01*
X80748Y101567D01*
X80634Y101424D01*
X80518Y101281D01*
X80509Y101266D01*
X80498Y101252D01*
X80416Y101089D01*
X80329Y100926D01*
X80324Y100908D01*
X80316Y100893D01*
X80267Y100716D01*
X80214Y100540D01*
X80213Y100522D01*
X80208Y100505D01*
X80195Y100322D01*
X80178Y100139D01*
X80180Y100121D01*
X80179Y100103D01*
X80202Y99921D01*
X80221Y99739D01*
X80227Y99722D01*
X80229Y99704D01*
X80288Y99529D01*
X80343Y99355D01*
X80352Y99339D01*
X80357Y99322D01*
X80449Y99163D01*
X80538Y99002D01*
X80549Y98989D01*
X80558Y98973D01*
X80773Y98720D01*
X82070Y97423D01*
X82081Y97314D01*
X82083Y97305D01*
X82084Y97297D01*
X82142Y97114D01*
X82199Y96929D01*
X82203Y96921D01*
X82206Y96913D01*
X82299Y96744D01*
X82391Y96575D01*
X82396Y96568D01*
X82401Y96560D01*
X82525Y96413D01*
X82648Y96266D01*
X82655Y96260D01*
X82661Y96253D01*
X82812Y96134D01*
X82962Y96013D01*
X82970Y96009D01*
X82977Y96004D01*
X83150Y95916D01*
X83319Y95828D01*
X83328Y95825D01*
X83336Y95821D01*
X83522Y95769D01*
X83706Y95717D01*
X83715Y95716D01*
X83724Y95713D01*
X83917Y95699D01*
X84108Y95684D01*
X84116Y95685D01*
X84125Y95684D01*
X84318Y95708D01*
X84507Y95731D01*
X84516Y95733D01*
X84525Y95734D01*
X84708Y95796D01*
X84890Y95855D01*
X84898Y95860D01*
X84906Y95863D01*
X85073Y95959D01*
X85241Y96053D01*
X85248Y96059D01*
X85255Y96064D01*
X85508Y96278D01*
X91634Y102404D01*
X91651Y102425D01*
X91672Y102443D01*
X91779Y102580D01*
X91889Y102716D01*
X91902Y102739D01*
X91918Y102761D01*
X91996Y102918D01*
X92078Y103072D01*
X92086Y103097D01*
X92098Y103121D01*
X92143Y103291D01*
X92193Y103457D01*
X92195Y103484D01*
X92202Y103510D01*
X92229Y103841D01*
X92229Y106769D01*
X93269Y109279D01*
X95191Y111201D01*
X97701Y112241D01*
X100781Y112241D01*
X100808Y112243D01*
X100835Y112241D01*
X101009Y112263D01*
X101182Y112281D01*
X101207Y112288D01*
X101234Y112292D01*
X101400Y112347D01*
X101567Y112399D01*
X101590Y112412D01*
X101616Y112420D01*
X101767Y112507D01*
X101921Y112591D01*
X101941Y112608D01*
X101965Y112621D01*
X102218Y112836D01*
X107493Y118111D01*
X134025Y118111D01*
X134034Y118112D01*
X134043Y118111D01*
X134235Y118132D01*
X134426Y118151D01*
X134434Y118153D01*
X134443Y118154D01*
X134626Y118212D01*
X134811Y118269D01*
X134819Y118273D01*
X134827Y118276D01*
X134996Y118369D01*
X135165Y118461D01*
X135172Y118466D01*
X135180Y118471D01*
X135326Y118595D01*
X135474Y118718D01*
X135480Y118725D01*
X135487Y118731D01*
X135606Y118883D01*
X135726Y119032D01*
X135731Y119040D01*
X135736Y119047D01*
X135824Y119219D01*
X135912Y119389D01*
X135914Y119398D01*
X135918Y119406D01*
X135970Y119592D01*
X136023Y119776D01*
X136024Y119785D01*
X136026Y119794D01*
X136040Y119984D01*
X136056Y120178D01*
X136055Y120186D01*
X136056Y120195D01*
X136032Y120388D01*
X136009Y120577D01*
X136007Y120586D01*
X136005Y120595D01*
X135944Y120778D01*
X135884Y120960D01*
X135880Y120968D01*
X135877Y120976D01*
X135783Y121139D01*
X135687Y121311D01*
X135681Y121318D01*
X135676Y121325D01*
X135462Y121578D01*
X133909Y123131D01*
X132869Y125641D01*
X132869Y128359D01*
X133909Y130869D01*
X135831Y132791D01*
X138341Y133831D01*
X141062Y133831D01*
X141229Y133784D01*
X141401Y133732D01*
X141423Y133730D01*
X141444Y133724D01*
X141624Y133711D01*
X141801Y133694D01*
X141824Y133696D01*
X141846Y133695D01*
X142025Y133717D01*
X142202Y133736D01*
X142223Y133742D01*
X142245Y133745D01*
X142416Y133802D01*
X142586Y133855D01*
X142606Y133866D01*
X142627Y133873D01*
X142782Y133963D01*
X142940Y134049D01*
X142957Y134063D01*
X142976Y134074D01*
X143229Y134289D01*
X144918Y135978D01*
X190834Y135978D01*
X190861Y135980D01*
X190888Y135978D01*
X191061Y136000D01*
X191235Y136018D01*
X191260Y136025D01*
X191287Y136029D01*
X191453Y136084D01*
X191620Y136136D01*
X191643Y136149D01*
X191669Y136157D01*
X191820Y136244D01*
X191974Y136327D01*
X191994Y136345D01*
X192018Y136358D01*
X192271Y136573D01*
X193910Y138212D01*
X196420Y139252D01*
X199138Y139252D01*
X201648Y138212D01*
X203570Y136290D01*
X204610Y133780D01*
X204610Y131062D01*
X203570Y128552D01*
X201648Y126630D01*
X199138Y125590D01*
X196420Y125590D01*
X193910Y126630D01*
X192271Y128269D01*
X192250Y128286D01*
X192232Y128306D01*
X192094Y128414D01*
X191959Y128524D01*
X191935Y128537D01*
X191914Y128553D01*
X191757Y128631D01*
X191603Y128713D01*
X191578Y128721D01*
X191554Y128733D01*
X191384Y128778D01*
X191217Y128828D01*
X191191Y128830D01*
X191165Y128837D01*
X190834Y128864D01*
X148706Y128864D01*
X148679Y128862D01*
X148652Y128864D01*
X148478Y128842D01*
X148305Y128824D01*
X148279Y128816D01*
X148253Y128813D01*
X148087Y128757D01*
X147920Y128706D01*
X147896Y128693D01*
X147871Y128685D01*
X147720Y128598D01*
X147566Y128514D01*
X147546Y128497D01*
X147522Y128484D01*
X147269Y128269D01*
X147126Y128126D01*
X147109Y128105D01*
X147088Y128087D01*
X146981Y127950D01*
X146871Y127814D01*
X146858Y127791D01*
X146842Y127769D01*
X146764Y127612D01*
X146682Y127458D01*
X146674Y127433D01*
X146662Y127409D01*
X146617Y127239D01*
X146567Y127073D01*
X146565Y127046D01*
X146558Y127020D01*
X146531Y126689D01*
X146531Y125641D01*
X145491Y123131D01*
X143938Y121578D01*
X143933Y121571D01*
X143926Y121566D01*
X143806Y121416D01*
X143683Y121267D01*
X143679Y121259D01*
X143674Y121252D01*
X143585Y121082D01*
X143495Y120911D01*
X143492Y120902D01*
X143488Y120895D01*
X143435Y120709D01*
X143380Y120525D01*
X143379Y120516D01*
X143377Y120508D01*
X143361Y120317D01*
X143344Y120124D01*
X143344Y120115D01*
X143344Y120106D01*
X143366Y119916D01*
X143387Y119724D01*
X143390Y119715D01*
X143391Y119707D01*
X143450Y119525D01*
X143508Y119340D01*
X143513Y119332D01*
X143516Y119324D01*
X143610Y119157D01*
X143703Y118988D01*
X143709Y118981D01*
X143713Y118973D01*
X143839Y118827D01*
X143964Y118681D01*
X143971Y118675D01*
X143977Y118668D01*
X144127Y118552D01*
X144280Y118431D01*
X144288Y118427D01*
X144295Y118422D01*
X144467Y118336D01*
X144639Y118249D01*
X144647Y118246D01*
X144655Y118242D01*
X144841Y118192D01*
X145026Y118141D01*
X145035Y118140D01*
X145044Y118138D01*
X145375Y118111D01*
X186856Y118111D01*
X186887Y118114D01*
X186919Y118112D01*
X187088Y118134D01*
X187257Y118151D01*
X187287Y118160D01*
X187318Y118164D01*
X187634Y118265D01*
X188429Y118595D01*
X191047Y118595D01*
X193466Y117593D01*
X195317Y115742D01*
X196319Y113323D01*
X196319Y111732D01*
X196321Y111714D01*
X196319Y111696D01*
X196340Y111514D01*
X196359Y111331D01*
X196364Y111314D01*
X196366Y111297D01*
X196423Y111122D01*
X196477Y110946D01*
X196485Y110931D01*
X196491Y110914D01*
X196581Y110754D01*
X196669Y110592D01*
X196680Y110579D01*
X196689Y110563D01*
X196809Y110424D01*
X196926Y110283D01*
X196940Y110272D01*
X196952Y110258D01*
X197097Y110146D01*
X197240Y110031D01*
X197256Y110023D01*
X197270Y110012D01*
X197435Y109930D01*
X197597Y109845D01*
X197614Y109840D01*
X197630Y109832D01*
X197809Y109785D01*
X197984Y109734D01*
X198002Y109732D01*
X198019Y109728D01*
X198350Y109701D01*
X199479Y109701D01*
X201989Y108661D01*
X203628Y107022D01*
X203649Y107005D01*
X203667Y106984D01*
X203805Y106877D01*
X203940Y106767D01*
X203964Y106754D01*
X203985Y106738D01*
X204142Y106660D01*
X204296Y106578D01*
X204321Y106570D01*
X204345Y106558D01*
X204515Y106513D01*
X204682Y106463D01*
X204708Y106461D01*
X204734Y106454D01*
X205065Y106427D01*
X209759Y106427D01*
X209880Y106330D01*
X210025Y106211D01*
X210037Y106205D01*
X210048Y106196D01*
X210214Y106111D01*
X210381Y106022D01*
X210394Y106018D01*
X210406Y106012D01*
X210585Y105962D01*
X210767Y105908D01*
X210780Y105906D01*
X210793Y105903D01*
X210979Y105888D01*
X211168Y105871D01*
X211181Y105873D01*
X211195Y105872D01*
X211380Y105894D01*
X211568Y105915D01*
X211581Y105919D01*
X211594Y105920D01*
X211772Y105979D01*
X211952Y106036D01*
X211964Y106043D01*
X211977Y106047D01*
X212140Y106140D01*
X212304Y106231D01*
X212315Y106240D01*
X212326Y106246D01*
X212468Y106370D01*
X212611Y106491D01*
X212620Y106502D01*
X212630Y106511D01*
X212744Y106659D01*
X212861Y106807D01*
X212867Y106819D01*
X212875Y106830D01*
X213027Y107125D01*
X213919Y109279D01*
X215841Y111201D01*
X218351Y112241D01*
X221069Y112241D01*
X223579Y111201D01*
X225501Y109279D01*
X226689Y106411D01*
X226700Y106391D01*
X226706Y106370D01*
X226795Y106214D01*
X226879Y106056D01*
X226893Y106039D01*
X226904Y106019D01*
X227021Y105884D01*
X227136Y105745D01*
X227153Y105731D01*
X227168Y105714D01*
X227309Y105605D01*
X227448Y105492D01*
X227468Y105481D01*
X227486Y105468D01*
X227646Y105388D01*
X227805Y105305D01*
X227826Y105298D01*
X227846Y105288D01*
X228020Y105242D01*
X228191Y105192D01*
X228213Y105190D01*
X228235Y105184D01*
X228566Y105157D01*
X264363Y105157D01*
X285545Y83975D01*
X285566Y83958D01*
X285583Y83938D01*
X285721Y83831D01*
X285856Y83720D01*
X285880Y83708D01*
X285901Y83691D01*
X286058Y83613D01*
X286212Y83532D01*
X286238Y83524D01*
X286262Y83512D01*
X286431Y83466D01*
X286598Y83417D01*
X286625Y83414D01*
X286650Y83407D01*
X286981Y83380D01*
X368339Y83380D01*
X368365Y83383D01*
X368392Y83381D01*
X368566Y83403D01*
X368740Y83420D01*
X368765Y83428D01*
X368792Y83431D01*
X368957Y83487D01*
X369124Y83538D01*
X369148Y83551D01*
X369173Y83560D01*
X369325Y83647D01*
X369478Y83730D01*
X369499Y83747D01*
X369522Y83761D01*
X369775Y83975D01*
X370942Y85142D01*
X371048Y85272D01*
X371159Y85398D01*
X371176Y85427D01*
X371197Y85453D01*
X371275Y85601D01*
X371359Y85748D01*
X371370Y85780D01*
X371385Y85809D01*
X371433Y85970D01*
X371487Y86130D01*
X371491Y86163D01*
X371500Y86195D01*
X371515Y86363D01*
X371536Y86529D01*
X371533Y86562D01*
X371537Y86596D01*
X371518Y86764D01*
X371506Y86931D01*
X371497Y86963D01*
X371493Y86996D01*
X371442Y87157D01*
X371397Y87318D01*
X371382Y87348D01*
X371372Y87380D01*
X371290Y87527D01*
X371214Y87677D01*
X371193Y87703D01*
X371177Y87732D01*
X371068Y87860D01*
X370963Y87992D01*
X370938Y88014D01*
X370916Y88039D01*
X370784Y88143D01*
X370656Y88252D01*
X370627Y88268D01*
X370600Y88289D01*
X370450Y88365D01*
X370303Y88446D01*
X370271Y88456D01*
X370241Y88471D01*
X370079Y88516D01*
X369919Y88567D01*
X369886Y88570D01*
X369854Y88579D01*
X369686Y88591D01*
X369569Y88604D01*
X369569Y99822D01*
X369567Y99840D01*
X369569Y99857D01*
X369548Y100040D01*
X369529Y100222D01*
X369524Y100239D01*
X369522Y100257D01*
X369465Y100432D01*
X369411Y100607D01*
X369403Y100623D01*
X369397Y100640D01*
X369307Y100800D01*
X369219Y100961D01*
X369208Y100975D01*
X369199Y100991D01*
X369079Y101130D01*
X368962Y101271D01*
X368948Y101282D01*
X368936Y101295D01*
X368791Y101408D01*
X368648Y101523D01*
X368632Y101531D01*
X368618Y101542D01*
X368453Y101624D01*
X368377Y101664D01*
X368291Y101816D01*
X368203Y101978D01*
X368192Y101991D01*
X368183Y102007D01*
X368063Y102145D01*
X367945Y102287D01*
X367932Y102298D01*
X367920Y102312D01*
X367775Y102424D01*
X367632Y102539D01*
X367616Y102547D01*
X367602Y102558D01*
X367437Y102640D01*
X367274Y102725D01*
X367257Y102730D01*
X367241Y102738D01*
X367063Y102785D01*
X366888Y102836D01*
X366870Y102838D01*
X366853Y102842D01*
X366522Y102869D01*
X355345Y102869D01*
X355385Y103126D01*
X355966Y104913D01*
X356819Y106587D01*
X357924Y108108D01*
X359252Y109436D01*
X360773Y110541D01*
X362106Y111220D01*
X362217Y111291D01*
X362331Y111354D01*
X362386Y111400D01*
X362445Y111438D01*
X362539Y111529D01*
X362639Y111613D01*
X362684Y111669D01*
X362735Y111718D01*
X362809Y111826D01*
X362890Y111928D01*
X362923Y111991D01*
X362963Y112049D01*
X363015Y112170D01*
X363074Y112286D01*
X363094Y112354D01*
X363122Y112420D01*
X363148Y112548D01*
X363184Y112673D01*
X363189Y112744D01*
X363204Y112814D01*
X363205Y112945D01*
X363215Y113075D01*
X363207Y113145D01*
X363207Y113216D01*
X363182Y113345D01*
X363166Y113474D01*
X363144Y113542D01*
X363131Y113612D01*
X363081Y113732D01*
X363040Y113857D01*
X363005Y113918D01*
X362978Y113984D01*
X362905Y114093D01*
X362841Y114206D01*
X362794Y114260D01*
X362754Y114319D01*
X362662Y114411D01*
X362576Y114510D01*
X362520Y114553D01*
X362469Y114603D01*
X362360Y114676D01*
X362257Y114755D01*
X362184Y114793D01*
X362134Y114826D01*
X362063Y114855D01*
X361962Y114907D01*
X360267Y115609D01*
X356909Y118967D01*
X355091Y123355D01*
X355091Y128105D01*
X356909Y132493D01*
X360267Y135851D01*
X361963Y136553D01*
X361970Y136558D01*
X361979Y136560D01*
X362149Y136653D01*
X362317Y136744D01*
X362324Y136749D01*
X362332Y136754D01*
X362481Y136878D01*
X362628Y137000D01*
X362633Y137007D01*
X362640Y137013D01*
X362761Y137164D01*
X362882Y137313D01*
X362886Y137320D01*
X362891Y137328D01*
X362980Y137500D01*
X363069Y137669D01*
X363071Y137678D01*
X363075Y137686D01*
X363127Y137870D01*
X363182Y138056D01*
X363182Y138065D01*
X363185Y138073D01*
X363200Y138264D01*
X363216Y138457D01*
X363215Y138466D01*
X363216Y138474D01*
X363193Y138666D01*
X363171Y138857D01*
X363168Y138865D01*
X363167Y138874D01*
X363107Y139056D01*
X363048Y139240D01*
X363044Y139248D01*
X363041Y139256D01*
X362946Y139422D01*
X362852Y139592D01*
X362846Y139598D01*
X362841Y139606D01*
X362716Y139750D01*
X362590Y139897D01*
X362583Y139903D01*
X362577Y139910D01*
X362425Y140027D01*
X362273Y140146D01*
X362265Y140150D01*
X362258Y140155D01*
X361963Y140307D01*
X360267Y141009D01*
X356909Y144367D01*
X356464Y145442D01*
X356460Y145449D01*
X356457Y145458D01*
X356364Y145627D01*
X356274Y145796D01*
X356268Y145803D01*
X356264Y145811D01*
X356139Y145959D01*
X356017Y146107D01*
X356010Y146112D01*
X356005Y146119D01*
X355853Y146240D01*
X355705Y146360D01*
X355697Y146365D01*
X355690Y146370D01*
X355518Y146458D01*
X355348Y146548D01*
X355340Y146550D01*
X355332Y146554D01*
X355147Y146606D01*
X354962Y146661D01*
X354953Y146661D01*
X354944Y146664D01*
X354614Y146695D01*
X327059Y147058D01*
X327028Y147055D01*
X326996Y147058D01*
X326827Y147038D01*
X326658Y147023D01*
X326628Y147014D01*
X326597Y147011D01*
X326434Y146958D01*
X326271Y146910D01*
X326244Y146896D01*
X326214Y146886D01*
X326065Y146802D01*
X325915Y146723D01*
X325890Y146703D01*
X325863Y146688D01*
X325734Y146577D01*
X325602Y146469D01*
X325582Y146445D01*
X325558Y146425D01*
X325454Y146290D01*
X325346Y146159D01*
X325331Y146131D01*
X325312Y146107D01*
X325236Y145954D01*
X325155Y145804D01*
X325146Y145774D01*
X325132Y145746D01*
X325088Y145581D01*
X325039Y145419D01*
X325036Y145388D01*
X325028Y145357D01*
X325001Y145027D01*
X325001Y144238D01*
X323512Y142749D01*
X306408Y142749D01*
X306236Y142921D01*
X306222Y142932D01*
X306211Y142945D01*
X306067Y143060D01*
X305925Y143176D01*
X305909Y143184D01*
X305895Y143195D01*
X305731Y143279D01*
X305569Y143364D01*
X305552Y143369D01*
X305536Y143377D01*
X305359Y143427D01*
X305183Y143479D01*
X305165Y143481D01*
X305148Y143485D01*
X304965Y143499D01*
X304782Y143515D01*
X304764Y143513D01*
X304747Y143515D01*
X304565Y143492D01*
X304382Y143472D01*
X304365Y143467D01*
X304347Y143464D01*
X304174Y143406D01*
X303998Y143351D01*
X303982Y143342D01*
X303966Y143336D01*
X303806Y143244D01*
X303646Y143156D01*
X303632Y143144D01*
X303617Y143135D01*
X303364Y142921D01*
X303192Y142749D01*
X301244Y142749D01*
X301226Y142747D01*
X301208Y142749D01*
X301026Y142728D01*
X300843Y142709D01*
X300826Y142704D01*
X300809Y142702D01*
X300634Y142645D01*
X300458Y142591D01*
X300443Y142583D01*
X300426Y142577D01*
X300266Y142487D01*
X300104Y142399D01*
X300091Y142388D01*
X300075Y142379D01*
X299936Y142259D01*
X299795Y142142D01*
X299784Y142128D01*
X299770Y142116D01*
X299658Y141971D01*
X299543Y141828D01*
X299535Y141812D01*
X299524Y141798D01*
X299442Y141633D01*
X299357Y141471D01*
X299352Y141454D01*
X299344Y141438D01*
X299297Y141259D01*
X299246Y141084D01*
X299244Y141066D01*
X299240Y141049D01*
X299213Y140718D01*
X299213Y139072D01*
X299215Y139054D01*
X299213Y139036D01*
X299234Y138854D01*
X299253Y138671D01*
X299258Y138654D01*
X299260Y138637D01*
X299317Y138462D01*
X299371Y138286D01*
X299379Y138271D01*
X299385Y138254D01*
X299475Y138094D01*
X299563Y137932D01*
X299574Y137919D01*
X299583Y137903D01*
X299703Y137764D01*
X299820Y137623D01*
X299834Y137612D01*
X299846Y137598D01*
X299991Y137486D01*
X300134Y137371D01*
X300150Y137363D01*
X300164Y137352D01*
X300329Y137270D01*
X300491Y137185D01*
X300508Y137180D01*
X300524Y137172D01*
X300703Y137125D01*
X300878Y137074D01*
X300896Y137072D01*
X300913Y137068D01*
X301244Y137041D01*
X302852Y137041D01*
X303364Y136529D01*
X303377Y136518D01*
X303389Y136505D01*
X303533Y136391D01*
X303675Y136274D01*
X303691Y136266D01*
X303705Y136255D01*
X303869Y136172D01*
X304031Y136086D01*
X304048Y136081D01*
X304064Y136073D01*
X304241Y136023D01*
X304417Y135971D01*
X304435Y135969D01*
X304452Y135965D01*
X304635Y135951D01*
X304818Y135935D01*
X304836Y135937D01*
X304853Y135935D01*
X305035Y135958D01*
X305218Y135978D01*
X305235Y135983D01*
X305253Y135986D01*
X305426Y136044D01*
X305602Y136099D01*
X305618Y136108D01*
X305634Y136114D01*
X305793Y136205D01*
X305954Y136294D01*
X305968Y136306D01*
X305983Y136315D01*
X306236Y136529D01*
X306240Y136533D01*
X306819Y136868D01*
X307465Y137041D01*
X311051Y137041D01*
X311051Y128218D01*
X311052Y128200D01*
X311051Y128183D01*
X311072Y128000D01*
X311091Y127818D01*
X311096Y127801D01*
X311098Y127783D01*
X311155Y127608D01*
X311209Y127433D01*
X311217Y127417D01*
X311223Y127400D01*
X311313Y127240D01*
X311400Y127079D01*
X311412Y127065D01*
X311421Y127049D01*
X311466Y126997D01*
X311381Y126892D01*
X311373Y126876D01*
X311362Y126862D01*
X311280Y126697D01*
X311195Y126534D01*
X311190Y126517D01*
X311182Y126501D01*
X311134Y126323D01*
X311084Y126148D01*
X311082Y126130D01*
X311078Y126113D01*
X311051Y125782D01*
X311051Y116959D01*
X307465Y116959D01*
X306819Y117132D01*
X306240Y117467D01*
X306236Y117471D01*
X306222Y117482D01*
X306211Y117495D01*
X306067Y117609D01*
X305925Y117726D01*
X305909Y117734D01*
X305895Y117745D01*
X305731Y117828D01*
X305569Y117914D01*
X305552Y117919D01*
X305536Y117927D01*
X305359Y117977D01*
X305183Y118029D01*
X305165Y118031D01*
X305148Y118035D01*
X304965Y118049D01*
X304782Y118065D01*
X304764Y118063D01*
X304747Y118065D01*
X304565Y118042D01*
X304382Y118022D01*
X304365Y118017D01*
X304347Y118014D01*
X304174Y117956D01*
X303998Y117901D01*
X303982Y117892D01*
X303966Y117886D01*
X303807Y117795D01*
X303646Y117706D01*
X303632Y117694D01*
X303617Y117685D01*
X303364Y117471D01*
X302852Y116959D01*
X301904Y116959D01*
X301886Y116957D01*
X301868Y116959D01*
X301686Y116938D01*
X301503Y116919D01*
X301486Y116914D01*
X301469Y116912D01*
X301294Y116855D01*
X301118Y116801D01*
X301103Y116793D01*
X301086Y116787D01*
X300926Y116697D01*
X300764Y116609D01*
X300751Y116598D01*
X300735Y116589D01*
X300596Y116469D01*
X300455Y116352D01*
X300444Y116338D01*
X300430Y116326D01*
X300318Y116181D01*
X300203Y116038D01*
X300195Y116022D01*
X300184Y116008D01*
X300102Y115843D01*
X300017Y115681D01*
X300012Y115664D01*
X300004Y115648D01*
X299957Y115469D01*
X299906Y115294D01*
X299904Y115276D01*
X299900Y115259D01*
X299873Y114928D01*
X299873Y113672D01*
X299875Y113654D01*
X299873Y113636D01*
X299894Y113454D01*
X299913Y113271D01*
X299918Y113254D01*
X299920Y113237D01*
X299977Y113062D01*
X300031Y112886D01*
X300039Y112871D01*
X300045Y112854D01*
X300135Y112694D01*
X300223Y112532D01*
X300234Y112519D01*
X300243Y112503D01*
X300363Y112364D01*
X300480Y112223D01*
X300494Y112212D01*
X300506Y112198D01*
X300651Y112086D01*
X300794Y111971D01*
X300810Y111963D01*
X300824Y111952D01*
X300989Y111870D01*
X301151Y111785D01*
X301168Y111780D01*
X301184Y111772D01*
X301363Y111725D01*
X301538Y111674D01*
X301556Y111672D01*
X301573Y111668D01*
X301904Y111641D01*
X302852Y111641D01*
X303364Y111129D01*
X303377Y111118D01*
X303389Y111105D01*
X303533Y110991D01*
X303675Y110874D01*
X303691Y110866D01*
X303705Y110855D01*
X303869Y110772D01*
X304031Y110686D01*
X304048Y110681D01*
X304064Y110673D01*
X304241Y110623D01*
X304417Y110571D01*
X304435Y110569D01*
X304452Y110565D01*
X304635Y110551D01*
X304818Y110535D01*
X304836Y110537D01*
X304853Y110535D01*
X305035Y110558D01*
X305218Y110578D01*
X305235Y110583D01*
X305253Y110586D01*
X305426Y110644D01*
X305602Y110699D01*
X305618Y110708D01*
X305634Y110714D01*
X305793Y110805D01*
X305954Y110894D01*
X305968Y110906D01*
X305983Y110915D01*
X306236Y111129D01*
X306240Y111133D01*
X306819Y111468D01*
X307465Y111641D01*
X311051Y111641D01*
X311051Y102818D01*
X311052Y102800D01*
X311051Y102783D01*
X311072Y102600D01*
X311091Y102418D01*
X311096Y102401D01*
X311098Y102383D01*
X311155Y102208D01*
X311209Y102033D01*
X311217Y102017D01*
X311223Y102000D01*
X311313Y101840D01*
X311400Y101679D01*
X311412Y101665D01*
X311421Y101649D01*
X311466Y101597D01*
X311381Y101492D01*
X311373Y101476D01*
X311362Y101462D01*
X311280Y101297D01*
X311195Y101134D01*
X311190Y101117D01*
X311182Y101101D01*
X311134Y100923D01*
X311084Y100748D01*
X311082Y100730D01*
X311078Y100713D01*
X311051Y100382D01*
X311051Y91559D01*
X307465Y91559D01*
X306819Y91732D01*
X306240Y92067D01*
X306236Y92071D01*
X306222Y92082D01*
X306211Y92095D01*
X306067Y92209D01*
X305925Y92326D01*
X305909Y92334D01*
X305895Y92345D01*
X305731Y92428D01*
X305569Y92514D01*
X305552Y92519D01*
X305536Y92527D01*
X305359Y92577D01*
X305183Y92629D01*
X305165Y92631D01*
X305148Y92635D01*
X304965Y92649D01*
X304782Y92665D01*
X304764Y92663D01*
X304747Y92665D01*
X304565Y92642D01*
X304382Y92622D01*
X304365Y92617D01*
X304347Y92614D01*
X304174Y92556D01*
X303998Y92501D01*
X303982Y92492D01*
X303966Y92486D01*
X303807Y92395D01*
X303646Y92306D01*
X303632Y92294D01*
X303617Y92285D01*
X303364Y92071D01*
X302852Y91559D01*
X287748Y91559D01*
X286259Y93048D01*
X286259Y102898D01*
X286257Y102916D01*
X286259Y102934D01*
X286238Y103116D01*
X286219Y103299D01*
X286214Y103316D01*
X286212Y103333D01*
X286155Y103508D01*
X286101Y103684D01*
X286093Y103699D01*
X286087Y103716D01*
X285997Y103876D01*
X285909Y104038D01*
X285898Y104051D01*
X285889Y104067D01*
X285769Y104206D01*
X285652Y104347D01*
X285638Y104358D01*
X285626Y104372D01*
X285481Y104484D01*
X285338Y104599D01*
X285322Y104607D01*
X285308Y104618D01*
X285143Y104700D01*
X284981Y104785D01*
X284964Y104790D01*
X284948Y104798D01*
X284769Y104845D01*
X284594Y104896D01*
X284576Y104898D01*
X284559Y104902D01*
X284228Y104929D01*
X281851Y104929D01*
X279341Y105969D01*
X277419Y107891D01*
X276379Y110401D01*
X276379Y113119D01*
X277419Y115629D01*
X279341Y117551D01*
X281851Y118591D01*
X284228Y118591D01*
X284246Y118593D01*
X284264Y118591D01*
X284446Y118612D01*
X284629Y118631D01*
X284646Y118636D01*
X284663Y118638D01*
X284838Y118695D01*
X285014Y118749D01*
X285029Y118757D01*
X285046Y118763D01*
X285206Y118853D01*
X285368Y118941D01*
X285381Y118952D01*
X285397Y118961D01*
X285536Y119081D01*
X285677Y119198D01*
X285688Y119212D01*
X285702Y119224D01*
X285814Y119369D01*
X285929Y119512D01*
X285937Y119528D01*
X285948Y119542D01*
X286030Y119706D01*
X286115Y119869D01*
X286120Y119886D01*
X286128Y119902D01*
X286175Y120081D01*
X286226Y120256D01*
X286228Y120274D01*
X286232Y120291D01*
X286259Y120622D01*
X286259Y130394D01*
X286257Y130421D01*
X286259Y130448D01*
X286237Y130622D01*
X286219Y130795D01*
X286212Y130820D01*
X286208Y130847D01*
X286153Y131013D01*
X286101Y131180D01*
X286088Y131203D01*
X286080Y131229D01*
X285993Y131380D01*
X285909Y131534D01*
X285892Y131554D01*
X285879Y131578D01*
X285664Y131831D01*
X282873Y134622D01*
X282852Y134639D01*
X282835Y134659D01*
X282697Y134766D01*
X282562Y134877D01*
X282538Y134889D01*
X282517Y134906D01*
X282360Y134984D01*
X282206Y135065D01*
X282180Y135073D01*
X282156Y135085D01*
X281987Y135131D01*
X281820Y135180D01*
X281793Y135183D01*
X281768Y135190D01*
X281437Y135217D01*
X280389Y135217D01*
X277878Y136257D01*
X275957Y138178D01*
X274909Y140707D01*
X274896Y140830D01*
X274877Y141020D01*
X274874Y141029D01*
X274873Y141038D01*
X274816Y141220D01*
X274759Y141405D01*
X274754Y141413D01*
X274752Y141422D01*
X274659Y141590D01*
X274567Y141759D01*
X274561Y141766D01*
X274557Y141774D01*
X274432Y141922D01*
X274309Y142069D01*
X274302Y142074D01*
X274296Y142081D01*
X274144Y142201D01*
X273995Y142321D01*
X273988Y142325D01*
X273980Y142331D01*
X273808Y142418D01*
X273638Y142506D01*
X273630Y142509D01*
X273622Y142513D01*
X273436Y142565D01*
X273251Y142618D01*
X273242Y142619D01*
X273234Y142621D01*
X273041Y142635D01*
X272850Y142651D01*
X272841Y142650D01*
X272832Y142650D01*
X272641Y142626D01*
X272450Y142604D01*
X272442Y142601D01*
X272433Y142600D01*
X272251Y142539D01*
X272067Y142479D01*
X272060Y142475D01*
X272051Y142472D01*
X271884Y142375D01*
X271717Y142281D01*
X271710Y142275D01*
X271702Y142271D01*
X271449Y142056D01*
X271043Y141650D01*
X271002Y141646D01*
X270865Y141641D01*
X270802Y141626D01*
X270738Y141619D01*
X270607Y141579D01*
X270473Y141547D01*
X270415Y141520D01*
X270354Y141501D01*
X270233Y141436D01*
X270108Y141378D01*
X270056Y141340D01*
X270000Y141309D01*
X269894Y141222D01*
X269783Y141140D01*
X269740Y141093D01*
X269690Y141052D01*
X269604Y140945D01*
X269511Y140843D01*
X269478Y140788D01*
X269438Y140738D01*
X269375Y140616D01*
X269304Y140498D01*
X269282Y140438D01*
X269252Y140381D01*
X269214Y140249D01*
X269168Y140119D01*
X269159Y140056D01*
X269141Y139994D01*
X269130Y139857D01*
X269110Y139721D01*
X269113Y139657D01*
X269108Y139592D01*
X269124Y139456D01*
X269132Y139319D01*
X269148Y139256D01*
X269155Y139193D01*
X269198Y139062D01*
X269232Y138929D01*
X269260Y138871D01*
X269280Y138810D01*
X269347Y138690D01*
X269407Y138566D01*
X269446Y138515D01*
X269478Y138459D01*
X269568Y138355D01*
X269651Y138246D01*
X269699Y138203D01*
X269741Y138155D01*
X269849Y138070D01*
X269953Y137979D01*
X270008Y137947D01*
X270059Y137908D01*
X270182Y137847D01*
X270301Y137778D01*
X270370Y137753D01*
X270420Y137728D01*
X270497Y137708D01*
X270614Y137666D01*
X270981Y137568D01*
X271560Y137233D01*
X272033Y136760D01*
X272368Y136181D01*
X272541Y135535D01*
X272541Y130949D01*
X264718Y130949D01*
X264700Y130947D01*
X264683Y130949D01*
X264500Y130928D01*
X264318Y130909D01*
X264301Y130904D01*
X264283Y130902D01*
X264108Y130845D01*
X263933Y130791D01*
X263917Y130783D01*
X263900Y130777D01*
X263740Y130687D01*
X263579Y130599D01*
X263565Y130588D01*
X263549Y130579D01*
X263410Y130459D01*
X263269Y130342D01*
X263258Y130328D01*
X263245Y130316D01*
X263132Y130171D01*
X263017Y130028D01*
X263009Y130012D01*
X262998Y129998D01*
X262916Y129833D01*
X262832Y129671D01*
X262827Y129654D01*
X262819Y129638D01*
X262771Y129459D01*
X262720Y129284D01*
X262719Y129266D01*
X262714Y129249D01*
X262687Y128918D01*
X262687Y128513D01*
X262282Y128513D01*
X262264Y128511D01*
X262246Y128513D01*
X262064Y128491D01*
X261881Y128473D01*
X261864Y128468D01*
X261847Y128466D01*
X261672Y128409D01*
X261496Y128355D01*
X261481Y128347D01*
X261464Y128341D01*
X261304Y128251D01*
X261142Y128163D01*
X261129Y128152D01*
X261113Y128143D01*
X260974Y128023D01*
X260833Y127905D01*
X260822Y127892D01*
X260808Y127880D01*
X260696Y127735D01*
X260581Y127592D01*
X260573Y127576D01*
X260562Y127562D01*
X260480Y127397D01*
X260395Y127234D01*
X260390Y127217D01*
X260382Y127201D01*
X260334Y127023D01*
X260284Y126848D01*
X260282Y126830D01*
X260278Y126813D01*
X260251Y126482D01*
X260251Y117659D01*
X256665Y117659D01*
X256019Y117832D01*
X255440Y118167D01*
X255436Y118170D01*
X255423Y118182D01*
X255411Y118195D01*
X255267Y118310D01*
X255125Y118426D01*
X255109Y118434D01*
X255095Y118445D01*
X254931Y118529D01*
X254769Y118614D01*
X254752Y118619D01*
X254736Y118627D01*
X254559Y118677D01*
X254383Y118729D01*
X254366Y118731D01*
X254348Y118735D01*
X254165Y118749D01*
X253982Y118765D01*
X253965Y118763D01*
X253947Y118765D01*
X253765Y118742D01*
X253582Y118722D01*
X253565Y118717D01*
X253547Y118714D01*
X253374Y118656D01*
X253198Y118601D01*
X253182Y118592D01*
X253166Y118586D01*
X253007Y118495D01*
X252846Y118406D01*
X252832Y118394D01*
X252817Y118385D01*
X252564Y118171D01*
X252052Y117659D01*
X236948Y117659D01*
X235459Y119148D01*
X235459Y129042D01*
X235458Y129055D01*
X235459Y129068D01*
X235438Y129254D01*
X235419Y129442D01*
X235415Y129455D01*
X235414Y129468D01*
X235357Y129647D01*
X235301Y129827D01*
X235295Y129839D01*
X235291Y129852D01*
X235199Y130016D01*
X235109Y130181D01*
X235101Y130191D01*
X235094Y130203D01*
X234972Y130346D01*
X234852Y130490D01*
X234841Y130499D01*
X234833Y130509D01*
X234685Y130625D01*
X234538Y130743D01*
X234526Y130749D01*
X234516Y130757D01*
X234347Y130842D01*
X234181Y130928D01*
X234168Y130932D01*
X234156Y130938D01*
X233975Y130988D01*
X233794Y131040D01*
X233780Y131041D01*
X233767Y131044D01*
X233579Y131057D01*
X233392Y131073D01*
X233379Y131071D01*
X233366Y131072D01*
X233178Y131047D01*
X232993Y131026D01*
X232980Y131022D01*
X232967Y131020D01*
X232651Y130918D01*
X231229Y130329D01*
X228511Y130329D01*
X226001Y131369D01*
X224079Y133291D01*
X223039Y135801D01*
X223039Y138519D01*
X224079Y141029D01*
X226001Y142951D01*
X228511Y143991D01*
X231229Y143991D01*
X232651Y143402D01*
X232664Y143398D01*
X232675Y143392D01*
X232855Y143340D01*
X233036Y143285D01*
X233049Y143284D01*
X233062Y143280D01*
X233250Y143265D01*
X233437Y143247D01*
X233450Y143249D01*
X233464Y143247D01*
X233650Y143269D01*
X233837Y143289D01*
X233850Y143293D01*
X233863Y143294D01*
X234042Y143353D01*
X234222Y143409D01*
X234233Y143415D01*
X234246Y143419D01*
X234411Y143512D01*
X234575Y143602D01*
X234585Y143610D01*
X234597Y143617D01*
X234739Y143740D01*
X234883Y143861D01*
X234891Y143872D01*
X234902Y143880D01*
X235017Y144029D01*
X235134Y144176D01*
X235140Y144188D01*
X235148Y144198D01*
X235232Y144367D01*
X235318Y144534D01*
X235322Y144547D01*
X235328Y144559D01*
X235377Y144742D01*
X235428Y144921D01*
X235429Y144935D01*
X235432Y144948D01*
X235459Y145278D01*
X235459Y160252D01*
X235846Y160639D01*
X235893Y160696D01*
X235946Y160746D01*
X236020Y160851D01*
X236101Y160951D01*
X236135Y161015D01*
X236178Y161075D01*
X236230Y161193D01*
X236290Y161306D01*
X236311Y161377D01*
X236340Y161444D01*
X236368Y161569D01*
X236405Y161692D01*
X236411Y161765D01*
X236427Y161837D01*
X236429Y161965D01*
X236441Y162093D01*
X236433Y162166D01*
X236434Y162239D01*
X236411Y162366D01*
X236398Y162494D01*
X236375Y162563D01*
X236362Y162636D01*
X236315Y162755D01*
X236276Y162877D01*
X236241Y162941D01*
X236213Y163010D01*
X236143Y163118D01*
X236081Y163230D01*
X236034Y163286D01*
X235994Y163347D01*
X235904Y163439D01*
X235821Y163537D01*
X235763Y163582D01*
X235712Y163635D01*
X235606Y163707D01*
X235505Y163786D01*
X235439Y163820D01*
X235379Y163861D01*
X235260Y163911D01*
X235146Y163969D01*
X235075Y163988D01*
X235008Y164017D01*
X234882Y164042D01*
X234758Y164077D01*
X234685Y164082D01*
X234613Y164097D01*
X234485Y164097D01*
X234356Y164106D01*
X234284Y164097D01*
X234210Y164097D01*
X234044Y164067D01*
X233957Y164056D01*
X233926Y164045D01*
X233884Y164038D01*
X233554Y163949D01*
X229969Y163949D01*
X229969Y172772D01*
X229967Y172790D01*
X229969Y172807D01*
X229948Y172990D01*
X229929Y173172D01*
X229924Y173189D01*
X229922Y173207D01*
X229865Y173382D01*
X229811Y173557D01*
X229803Y173573D01*
X229797Y173590D01*
X229707Y173750D01*
X229619Y173911D01*
X229608Y173925D01*
X229599Y173941D01*
X229479Y174080D01*
X229362Y174221D01*
X229348Y174232D01*
X229336Y174245D01*
X229191Y174358D01*
X229048Y174473D01*
X229032Y174481D01*
X229018Y174492D01*
X228853Y174574D01*
X228691Y174658D01*
X228674Y174663D01*
X228658Y174671D01*
X228479Y174719D01*
X228304Y174770D01*
X228286Y174771D01*
X228269Y174776D01*
X227938Y174803D01*
X227533Y174803D01*
X227533Y175208D01*
X227532Y175221D01*
X227533Y175233D01*
X227532Y175237D01*
X227533Y175244D01*
X227511Y175426D01*
X227493Y175609D01*
X227488Y175626D01*
X227486Y175643D01*
X227429Y175818D01*
X227375Y175994D01*
X227367Y176009D01*
X227361Y176026D01*
X227271Y176186D01*
X227183Y176348D01*
X227172Y176361D01*
X227163Y176377D01*
X227043Y176516D01*
X226925Y176657D01*
X226912Y176668D01*
X226900Y176682D01*
X226755Y176794D01*
X226612Y176909D01*
X226596Y176917D01*
X226582Y176928D01*
X226417Y177010D01*
X226254Y177095D01*
X226237Y177100D01*
X226221Y177108D01*
X226043Y177155D01*
X225868Y177206D01*
X225850Y177208D01*
X225833Y177212D01*
X225502Y177239D01*
X217679Y177239D01*
X217679Y179324D01*
X217677Y179342D01*
X217679Y179360D01*
X217658Y179542D01*
X217639Y179725D01*
X217634Y179742D01*
X217632Y179759D01*
X217575Y179934D01*
X217521Y180110D01*
X217513Y180125D01*
X217507Y180142D01*
X217417Y180302D01*
X217329Y180464D01*
X217318Y180477D01*
X217309Y180493D01*
X217189Y180632D01*
X217072Y180773D01*
X217058Y180784D01*
X217046Y180798D01*
X216901Y180910D01*
X216758Y181025D01*
X216742Y181033D01*
X216728Y181044D01*
X216563Y181126D01*
X216401Y181211D01*
X216384Y181216D01*
X216368Y181224D01*
X216189Y181271D01*
X216014Y181322D01*
X215996Y181324D01*
X215979Y181328D01*
X215648Y181355D01*
X186592Y181355D01*
X186565Y181353D01*
X186538Y181355D01*
X186364Y181333D01*
X186191Y181315D01*
X186166Y181308D01*
X186139Y181304D01*
X185973Y181249D01*
X185806Y181197D01*
X185783Y181184D01*
X185757Y181176D01*
X185606Y181089D01*
X185452Y181005D01*
X185432Y180988D01*
X185408Y180975D01*
X185155Y180760D01*
X154254Y149859D01*
X119039Y149859D01*
X119017Y149857D01*
X118995Y149859D01*
X118817Y149837D01*
X118638Y149819D01*
X118617Y149813D01*
X118595Y149810D01*
X118424Y149754D01*
X118253Y149701D01*
X118234Y149691D01*
X118213Y149684D01*
X118057Y149595D01*
X117899Y149509D01*
X117882Y149495D01*
X117863Y149484D01*
X117728Y149366D01*
X117590Y149252D01*
X117576Y149234D01*
X117559Y149220D01*
X117450Y149078D01*
X117338Y148938D01*
X117328Y148918D01*
X117314Y148901D01*
X117162Y148605D01*
X117085Y148418D01*
X115234Y146567D01*
X112815Y145565D01*
X110197Y145565D01*
X107778Y146567D01*
X105927Y148418D01*
X104925Y150837D01*
X104925Y153455D01*
X105927Y155874D01*
X107778Y157725D01*
X110197Y158727D01*
X112815Y158727D01*
X115234Y157725D01*
X115391Y157568D01*
X115412Y157551D01*
X115429Y157530D01*
X115567Y157423D01*
X115702Y157313D01*
X115726Y157300D01*
X115747Y157284D01*
X115904Y157206D01*
X116058Y157124D01*
X116084Y157116D01*
X116108Y157104D01*
X116277Y157059D01*
X116444Y157009D01*
X116471Y157007D01*
X116496Y157000D01*
X116827Y156973D01*
X150466Y156973D01*
X150493Y156975D01*
X150520Y156973D01*
X150694Y156995D01*
X150867Y157013D01*
X150892Y157020D01*
X150919Y157024D01*
X151085Y157079D01*
X151252Y157131D01*
X151275Y157144D01*
X151301Y157152D01*
X151452Y157239D01*
X151606Y157323D01*
X151626Y157340D01*
X151650Y157353D01*
X151903Y157568D01*
X182209Y187874D01*
X182212Y187878D01*
X182215Y187880D01*
X182340Y188033D01*
X182464Y188186D01*
X182466Y188190D01*
X182469Y188193D01*
X182562Y188370D01*
X182653Y188541D01*
X182654Y188545D01*
X182656Y188550D01*
X182712Y188742D01*
X182768Y188927D01*
X182768Y188932D01*
X182769Y188936D01*
X182786Y189130D01*
X182804Y189328D01*
X182803Y189333D01*
X182804Y189337D01*
X182783Y189525D01*
X182761Y189728D01*
X182759Y189733D01*
X182759Y189737D01*
X182700Y189921D01*
X182639Y190112D01*
X182637Y190116D01*
X182635Y190121D01*
X182539Y190292D01*
X182444Y190465D01*
X182441Y190468D01*
X182439Y190472D01*
X182310Y190622D01*
X182184Y190772D01*
X182180Y190774D01*
X182177Y190778D01*
X182022Y190900D01*
X181868Y191021D01*
X181864Y191023D01*
X181860Y191026D01*
X181684Y191115D01*
X181509Y191204D01*
X181505Y191205D01*
X181500Y191207D01*
X181312Y191258D01*
X181121Y191312D01*
X181116Y191312D01*
X181112Y191313D01*
X180921Y191326D01*
X180719Y191341D01*
X180715Y191340D01*
X180710Y191341D01*
X180519Y191316D01*
X180320Y191291D01*
X180316Y191289D01*
X180311Y191288D01*
X180227Y191261D01*
X175425Y191261D01*
X171037Y193079D01*
X167679Y196437D01*
X166977Y198133D01*
X166972Y198140D01*
X166970Y198149D01*
X166877Y198319D01*
X166786Y198487D01*
X166781Y198494D01*
X166776Y198502D01*
X166652Y198651D01*
X166530Y198798D01*
X166523Y198803D01*
X166517Y198810D01*
X166366Y198931D01*
X166217Y199052D01*
X166210Y199056D01*
X166202Y199061D01*
X166030Y199150D01*
X165861Y199239D01*
X165852Y199241D01*
X165844Y199245D01*
X165660Y199297D01*
X165474Y199352D01*
X165465Y199352D01*
X165457Y199355D01*
X165266Y199370D01*
X165073Y199386D01*
X165064Y199385D01*
X165056Y199386D01*
X164864Y199363D01*
X164673Y199341D01*
X164665Y199338D01*
X164656Y199337D01*
X164474Y199277D01*
X164290Y199218D01*
X164282Y199214D01*
X164274Y199211D01*
X164108Y199116D01*
X163938Y199022D01*
X163932Y199016D01*
X163924Y199011D01*
X163780Y198886D01*
X163633Y198760D01*
X163627Y198753D01*
X163620Y198747D01*
X163503Y198595D01*
X163384Y198443D01*
X163380Y198435D01*
X163375Y198428D01*
X163223Y198133D01*
X162521Y196437D01*
X159163Y193079D01*
X154775Y191261D01*
X150025Y191261D01*
X145637Y193079D01*
X142279Y196437D01*
X141577Y198133D01*
X141572Y198140D01*
X141570Y198149D01*
X141477Y198319D01*
X141386Y198487D01*
X141381Y198494D01*
X141376Y198502D01*
X141252Y198651D01*
X141130Y198798D01*
X141123Y198803D01*
X141117Y198810D01*
X140966Y198931D01*
X140817Y199052D01*
X140810Y199056D01*
X140802Y199061D01*
X140630Y199150D01*
X140461Y199239D01*
X140452Y199241D01*
X140444Y199245D01*
X140260Y199297D01*
X140074Y199352D01*
X140065Y199352D01*
X140057Y199355D01*
X139866Y199370D01*
X139673Y199386D01*
X139664Y199385D01*
X139656Y199386D01*
X139464Y199363D01*
X139273Y199341D01*
X139265Y199338D01*
X139256Y199337D01*
X139074Y199277D01*
X138890Y199218D01*
X138882Y199214D01*
X138874Y199211D01*
X138708Y199116D01*
X138538Y199022D01*
X138532Y199016D01*
X138524Y199011D01*
X138380Y198886D01*
X138233Y198760D01*
X138227Y198753D01*
X138220Y198747D01*
X138103Y198595D01*
X137984Y198443D01*
X137980Y198435D01*
X137975Y198428D01*
X137823Y198133D01*
X137121Y196437D01*
X133763Y193079D01*
X129375Y191261D01*
X124625Y191261D01*
X120237Y193079D01*
X116879Y196437D01*
X116177Y198133D01*
X116172Y198140D01*
X116170Y198149D01*
X116077Y198319D01*
X115986Y198487D01*
X115981Y198494D01*
X115976Y198502D01*
X115852Y198651D01*
X115730Y198798D01*
X115723Y198803D01*
X115717Y198810D01*
X115566Y198931D01*
X115417Y199052D01*
X115410Y199056D01*
X115402Y199061D01*
X115230Y199150D01*
X115061Y199239D01*
X115052Y199241D01*
X115044Y199245D01*
X114860Y199297D01*
X114674Y199352D01*
X114665Y199352D01*
X114657Y199355D01*
X114466Y199370D01*
X114273Y199386D01*
X114264Y199385D01*
X114256Y199386D01*
X114064Y199363D01*
X113873Y199341D01*
X113865Y199338D01*
X113856Y199337D01*
X113674Y199277D01*
X113490Y199218D01*
X113482Y199214D01*
X113474Y199211D01*
X113308Y199116D01*
X113138Y199022D01*
X113132Y199016D01*
X113124Y199011D01*
X112980Y198886D01*
X112833Y198760D01*
X112827Y198753D01*
X112820Y198747D01*
X112703Y198595D01*
X112584Y198443D01*
X112580Y198435D01*
X112575Y198428D01*
X112423Y198133D01*
X111721Y196437D01*
X108363Y193079D01*
X103975Y191261D01*
X99225Y191261D01*
X94837Y193079D01*
X91479Y196437D01*
X90777Y198133D01*
X90772Y198140D01*
X90770Y198149D01*
X90677Y198319D01*
X90586Y198487D01*
X90581Y198494D01*
X90576Y198502D01*
X90452Y198651D01*
X90330Y198798D01*
X90323Y198803D01*
X90317Y198810D01*
X90166Y198931D01*
X90017Y199052D01*
X90010Y199056D01*
X90002Y199061D01*
X89830Y199150D01*
X89661Y199239D01*
X89652Y199241D01*
X89644Y199245D01*
X89460Y199297D01*
X89274Y199352D01*
X89265Y199352D01*
X89257Y199355D01*
X89066Y199370D01*
X88873Y199386D01*
X88864Y199385D01*
X88856Y199386D01*
X88664Y199363D01*
X88473Y199341D01*
X88465Y199338D01*
X88456Y199337D01*
X88274Y199277D01*
X88090Y199218D01*
X88082Y199214D01*
X88074Y199211D01*
X87908Y199116D01*
X87738Y199022D01*
X87732Y199016D01*
X87724Y199011D01*
X87580Y198886D01*
X87433Y198760D01*
X87427Y198753D01*
X87420Y198747D01*
X87303Y198595D01*
X87184Y198443D01*
X87180Y198435D01*
X87175Y198428D01*
X87023Y198133D01*
X86321Y196437D01*
X82963Y193079D01*
X78575Y191261D01*
X73825Y191261D01*
X69437Y193079D01*
X66079Y196437D01*
X65377Y198133D01*
X65372Y198140D01*
X65370Y198149D01*
X65277Y198319D01*
X65186Y198487D01*
X65181Y198494D01*
X65176Y198502D01*
X65052Y198651D01*
X64930Y198798D01*
X64923Y198803D01*
X64917Y198810D01*
X64766Y198931D01*
X64617Y199052D01*
X64610Y199056D01*
X64602Y199061D01*
X64430Y199150D01*
X64261Y199239D01*
X64252Y199241D01*
X64244Y199245D01*
X64060Y199297D01*
X63874Y199352D01*
X63865Y199352D01*
X63857Y199355D01*
X63666Y199370D01*
X63473Y199386D01*
X63464Y199385D01*
X63456Y199386D01*
X63264Y199363D01*
X63073Y199341D01*
X63065Y199338D01*
X63056Y199337D01*
X62874Y199277D01*
X62690Y199218D01*
X62682Y199214D01*
X62674Y199211D01*
X62508Y199116D01*
X62338Y199022D01*
X62332Y199016D01*
X62324Y199011D01*
X62180Y198886D01*
X62033Y198760D01*
X62027Y198753D01*
X62020Y198747D01*
X61903Y198595D01*
X61784Y198443D01*
X61780Y198435D01*
X61775Y198428D01*
X61623Y198133D01*
X60921Y196437D01*
X57563Y193079D01*
X53175Y191261D01*
X48425Y191261D01*
X44037Y193079D01*
X40679Y196437D01*
X39977Y198133D01*
X39972Y198140D01*
X39970Y198149D01*
X39877Y198319D01*
X39786Y198487D01*
X39781Y198494D01*
X39776Y198502D01*
X39652Y198651D01*
X39530Y198798D01*
X39523Y198803D01*
X39517Y198810D01*
X39366Y198931D01*
X39217Y199052D01*
X39210Y199056D01*
X39202Y199061D01*
X39030Y199150D01*
X38861Y199239D01*
X38852Y199241D01*
X38844Y199245D01*
X38660Y199297D01*
X38474Y199352D01*
X38465Y199352D01*
X38457Y199355D01*
X38266Y199370D01*
X38073Y199386D01*
X38064Y199385D01*
X38056Y199386D01*
X37864Y199363D01*
X37673Y199341D01*
X37665Y199338D01*
X37656Y199337D01*
X37474Y199277D01*
X37290Y199218D01*
X37282Y199214D01*
X37274Y199211D01*
X37108Y199116D01*
X36938Y199022D01*
X36932Y199016D01*
X36924Y199011D01*
X36780Y198886D01*
X36633Y198760D01*
X36627Y198753D01*
X36620Y198747D01*
X36503Y198595D01*
X36384Y198443D01*
X36380Y198435D01*
X36375Y198428D01*
X36223Y198133D01*
X35521Y196437D01*
X32163Y193079D01*
X27775Y191261D01*
X23025Y191261D01*
X18637Y193079D01*
X15279Y196437D01*
X13461Y200825D01*
X13461Y205575D01*
X15279Y209963D01*
X18637Y213321D01*
X23025Y215139D01*
X27775Y215139D01*
X32163Y213321D01*
X35521Y209963D01*
X36223Y208267D01*
X36228Y208260D01*
X36230Y208251D01*
X36322Y208083D01*
X36414Y207913D01*
X36419Y207906D01*
X36424Y207898D01*
X36547Y207751D01*
X36670Y207602D01*
X36677Y207597D01*
X36683Y207590D01*
X36833Y207470D01*
X36983Y207348D01*
X36991Y207344D01*
X36997Y207339D01*
X37168Y207251D01*
X37339Y207161D01*
X37348Y207159D01*
X37356Y207155D01*
X37539Y207103D01*
X37725Y207048D01*
X37735Y207048D01*
X37743Y207045D01*
X37934Y207030D01*
X38127Y207014D01*
X38136Y207015D01*
X38144Y207014D01*
X38335Y207037D01*
X38527Y207059D01*
X38535Y207062D01*
X38544Y207063D01*
X38727Y207123D01*
X38910Y207182D01*
X38918Y207186D01*
X38926Y207189D01*
X39094Y207285D01*
X39261Y207378D01*
X39268Y207384D01*
X39276Y207389D01*
X39421Y207515D01*
X39567Y207640D01*
X39573Y207647D01*
X39580Y207653D01*
X39697Y207806D01*
X39816Y207957D01*
X39820Y207965D01*
X39825Y207972D01*
X39977Y208267D01*
X40679Y209963D01*
X44037Y213321D01*
X48425Y215139D01*
X53175Y215139D01*
X57563Y213321D01*
X60921Y209963D01*
X61623Y208267D01*
X61628Y208260D01*
X61630Y208251D01*
X61722Y208083D01*
X61814Y207913D01*
X61819Y207906D01*
X61824Y207898D01*
X61947Y207751D01*
X62070Y207602D01*
X62077Y207597D01*
X62083Y207590D01*
X62233Y207470D01*
X62383Y207348D01*
X62391Y207344D01*
X62397Y207339D01*
X62568Y207251D01*
X62739Y207161D01*
X62748Y207159D01*
X62756Y207155D01*
X62939Y207103D01*
X63125Y207048D01*
X63135Y207048D01*
X63143Y207045D01*
X63334Y207030D01*
X63527Y207014D01*
X63536Y207015D01*
X63544Y207014D01*
X63735Y207037D01*
X63927Y207059D01*
X63935Y207062D01*
X63944Y207063D01*
X64127Y207123D01*
X64310Y207182D01*
X64318Y207186D01*
X64326Y207189D01*
X64494Y207285D01*
X64661Y207378D01*
X64668Y207384D01*
X64676Y207389D01*
X64821Y207515D01*
X64967Y207640D01*
X64973Y207647D01*
X64980Y207653D01*
X65097Y207806D01*
X65216Y207957D01*
X65220Y207965D01*
X65225Y207972D01*
X65377Y208267D01*
X66079Y209963D01*
X69437Y213321D01*
X73825Y215139D01*
X78575Y215139D01*
X82963Y213321D01*
X86321Y209963D01*
X87023Y208267D01*
X87028Y208260D01*
X87030Y208251D01*
X87122Y208083D01*
X87214Y207913D01*
X87219Y207906D01*
X87224Y207898D01*
X87347Y207751D01*
X87470Y207602D01*
X87477Y207597D01*
X87483Y207590D01*
X87633Y207470D01*
X87783Y207348D01*
X87791Y207344D01*
X87797Y207339D01*
X87968Y207251D01*
X88139Y207161D01*
X88148Y207159D01*
X88156Y207155D01*
X88339Y207103D01*
X88525Y207048D01*
X88535Y207048D01*
X88543Y207045D01*
X88734Y207030D01*
X88927Y207014D01*
X88936Y207015D01*
X88944Y207014D01*
X89135Y207037D01*
X89327Y207059D01*
X89335Y207062D01*
X89344Y207063D01*
X89527Y207123D01*
X89710Y207182D01*
X89718Y207186D01*
X89726Y207189D01*
X89894Y207285D01*
X90061Y207378D01*
X90068Y207384D01*
X90076Y207389D01*
X90221Y207515D01*
X90367Y207640D01*
X90373Y207647D01*
X90380Y207653D01*
X90497Y207806D01*
X90616Y207957D01*
X90620Y207965D01*
X90625Y207972D01*
X90777Y208267D01*
X91479Y209963D01*
X94837Y213321D01*
X99225Y215139D01*
X103975Y215139D01*
X108363Y213321D01*
X111721Y209963D01*
X112423Y208267D01*
X112428Y208260D01*
X112430Y208251D01*
X112522Y208083D01*
X112614Y207913D01*
X112619Y207906D01*
X112624Y207898D01*
X112747Y207751D01*
X112870Y207602D01*
X112877Y207597D01*
X112883Y207590D01*
X113033Y207470D01*
X113183Y207348D01*
X113191Y207344D01*
X113197Y207339D01*
X113368Y207251D01*
X113539Y207161D01*
X113548Y207159D01*
X113556Y207155D01*
X113739Y207103D01*
X113925Y207048D01*
X113935Y207048D01*
X113943Y207045D01*
X114134Y207030D01*
X114327Y207014D01*
X114336Y207015D01*
X114344Y207014D01*
X114535Y207037D01*
X114727Y207059D01*
X114735Y207062D01*
X114744Y207063D01*
X114927Y207123D01*
X115110Y207182D01*
X115118Y207186D01*
X115126Y207189D01*
X115294Y207285D01*
X115461Y207378D01*
X115468Y207384D01*
X115476Y207389D01*
X115621Y207515D01*
X115767Y207640D01*
X115773Y207647D01*
X115780Y207653D01*
X115897Y207806D01*
X116016Y207957D01*
X116020Y207965D01*
X116025Y207972D01*
X116177Y208267D01*
X116879Y209963D01*
X120237Y213321D01*
X124625Y215139D01*
X129375Y215139D01*
X133763Y213321D01*
X137121Y209963D01*
X137823Y208267D01*
X137828Y208260D01*
X137830Y208251D01*
X137922Y208083D01*
X138014Y207913D01*
X138019Y207906D01*
X138024Y207898D01*
X138147Y207751D01*
X138270Y207602D01*
X138277Y207597D01*
X138283Y207590D01*
X138433Y207470D01*
X138583Y207348D01*
X138591Y207344D01*
X138597Y207339D01*
X138768Y207251D01*
X138939Y207161D01*
X138948Y207159D01*
X138956Y207155D01*
X139139Y207103D01*
X139325Y207048D01*
X139335Y207048D01*
X139343Y207045D01*
X139534Y207030D01*
X139727Y207014D01*
X139736Y207015D01*
X139744Y207014D01*
X139935Y207037D01*
X140127Y207059D01*
X140135Y207062D01*
X140144Y207063D01*
X140327Y207123D01*
X140510Y207182D01*
X140518Y207186D01*
X140526Y207189D01*
X140694Y207285D01*
X140861Y207378D01*
X140868Y207384D01*
X140876Y207389D01*
X141021Y207515D01*
X141167Y207640D01*
X141173Y207647D01*
X141180Y207653D01*
X141297Y207806D01*
X141416Y207957D01*
X141420Y207965D01*
X141425Y207972D01*
X141577Y208267D01*
X142279Y209963D01*
X145637Y213321D01*
X150025Y215139D01*
X154775Y215139D01*
X159163Y213321D01*
X162521Y209963D01*
X163223Y208267D01*
X163228Y208260D01*
X163230Y208251D01*
X163322Y208083D01*
X163414Y207913D01*
X163419Y207906D01*
X163424Y207898D01*
X163547Y207751D01*
X163670Y207602D01*
X163677Y207597D01*
X163683Y207590D01*
X163833Y207470D01*
X163983Y207348D01*
X163991Y207344D01*
X163997Y207339D01*
X164168Y207251D01*
X164339Y207161D01*
X164348Y207159D01*
X164356Y207155D01*
X164539Y207103D01*
X164725Y207048D01*
X164735Y207048D01*
X164743Y207045D01*
X164934Y207030D01*
X165127Y207014D01*
X165136Y207015D01*
X165144Y207014D01*
X165335Y207037D01*
X165527Y207059D01*
X165535Y207062D01*
X165544Y207063D01*
X165727Y207123D01*
X165910Y207182D01*
X165918Y207186D01*
X165926Y207189D01*
X166094Y207285D01*
X166261Y207378D01*
X166268Y207384D01*
X166276Y207389D01*
X166421Y207515D01*
X166567Y207640D01*
X166573Y207647D01*
X166580Y207653D01*
X166697Y207806D01*
X166816Y207957D01*
X166820Y207965D01*
X166825Y207972D01*
X166977Y208267D01*
X167679Y209963D01*
X171037Y213321D01*
X175425Y215139D01*
X180175Y215139D01*
X184563Y213321D01*
X187921Y209963D01*
X188623Y208267D01*
X188628Y208260D01*
X188630Y208251D01*
X188722Y208083D01*
X188814Y207913D01*
X188819Y207906D01*
X188824Y207898D01*
X188947Y207751D01*
X189070Y207602D01*
X189077Y207597D01*
X189083Y207590D01*
X189233Y207470D01*
X189383Y207348D01*
X189391Y207344D01*
X189397Y207339D01*
X189568Y207251D01*
X189739Y207161D01*
X189748Y207159D01*
X189756Y207155D01*
X189939Y207103D01*
X190125Y207048D01*
X190135Y207048D01*
X190143Y207045D01*
X190334Y207030D01*
X190527Y207014D01*
X190536Y207015D01*
X190544Y207014D01*
X190735Y207037D01*
X190927Y207059D01*
X190935Y207062D01*
X190944Y207063D01*
X191127Y207123D01*
X191310Y207182D01*
X191318Y207186D01*
X191326Y207189D01*
X191494Y207285D01*
X191661Y207378D01*
X191668Y207384D01*
X191676Y207389D01*
X191821Y207515D01*
X191967Y207640D01*
X191973Y207647D01*
X191980Y207653D01*
X192097Y207806D01*
X192216Y207957D01*
X192220Y207965D01*
X192225Y207972D01*
X192377Y208267D01*
X193079Y209963D01*
X196437Y213321D01*
X200825Y215139D01*
X205575Y215139D01*
X209963Y213321D01*
X213321Y209963D01*
X214023Y208267D01*
X214028Y208260D01*
X214030Y208251D01*
X214122Y208083D01*
X214214Y207913D01*
X214219Y207906D01*
X214224Y207898D01*
X214347Y207751D01*
X214470Y207602D01*
X214477Y207597D01*
X214483Y207590D01*
X214633Y207470D01*
X214783Y207348D01*
X214791Y207344D01*
X214797Y207339D01*
X214968Y207251D01*
X215139Y207161D01*
X215148Y207159D01*
X215156Y207155D01*
X215339Y207103D01*
X215525Y207048D01*
X215535Y207048D01*
X215543Y207045D01*
X215734Y207030D01*
X215927Y207014D01*
X215936Y207015D01*
X215944Y207014D01*
X216135Y207037D01*
X216327Y207059D01*
X216335Y207062D01*
X216344Y207063D01*
X216527Y207123D01*
X216710Y207182D01*
X216718Y207186D01*
X216726Y207189D01*
X216894Y207285D01*
X217061Y207378D01*
X217068Y207384D01*
X217076Y207389D01*
X217221Y207515D01*
X217367Y207640D01*
X217373Y207647D01*
X217380Y207653D01*
X217497Y207806D01*
X217616Y207957D01*
X217620Y207965D01*
X217625Y207972D01*
X217777Y208267D01*
X218479Y209963D01*
X221837Y213321D01*
X226225Y215139D01*
X230975Y215139D01*
X235363Y213321D01*
X238721Y209963D01*
X239423Y208267D01*
X239428Y208260D01*
X239430Y208251D01*
X239522Y208083D01*
X239614Y207913D01*
X239619Y207906D01*
X239624Y207898D01*
X239747Y207751D01*
X239870Y207602D01*
X239877Y207597D01*
X239883Y207590D01*
X240033Y207470D01*
X240183Y207348D01*
X240191Y207344D01*
X240197Y207339D01*
X240368Y207251D01*
X240539Y207161D01*
X240548Y207159D01*
X240556Y207155D01*
X240739Y207103D01*
X240925Y207048D01*
X240935Y207048D01*
X240943Y207045D01*
X241134Y207030D01*
X241327Y207014D01*
X241336Y207015D01*
X241344Y207014D01*
X241535Y207037D01*
X241727Y207059D01*
X241735Y207062D01*
X241744Y207063D01*
X241927Y207123D01*
X242110Y207182D01*
X242118Y207186D01*
X242126Y207189D01*
X242294Y207285D01*
X242461Y207378D01*
X242468Y207384D01*
X242476Y207389D01*
X242621Y207515D01*
X242767Y207640D01*
X242773Y207647D01*
X242780Y207653D01*
X242897Y207806D01*
X243016Y207957D01*
X243020Y207965D01*
X243025Y207972D01*
X243177Y208267D01*
X243879Y209963D01*
X247237Y213321D01*
X251625Y215139D01*
X256375Y215139D01*
X260763Y213321D01*
X264121Y209963D01*
X264823Y208267D01*
X264828Y208260D01*
X264830Y208251D01*
X264922Y208083D01*
X265014Y207913D01*
X265019Y207906D01*
X265024Y207898D01*
X265147Y207751D01*
X265270Y207602D01*
X265277Y207597D01*
X265283Y207590D01*
X265433Y207470D01*
X265583Y207348D01*
X265591Y207344D01*
X265597Y207339D01*
X265768Y207251D01*
X265939Y207161D01*
X265948Y207159D01*
X265956Y207155D01*
X266139Y207103D01*
X266325Y207048D01*
X266335Y207048D01*
X266343Y207045D01*
X266534Y207030D01*
X266727Y207014D01*
X266736Y207015D01*
X266744Y207014D01*
X266935Y207037D01*
X267127Y207059D01*
X267135Y207062D01*
X267144Y207063D01*
X267327Y207123D01*
X267510Y207182D01*
X267518Y207186D01*
X267526Y207189D01*
X267694Y207285D01*
X267861Y207378D01*
X267868Y207384D01*
X267876Y207389D01*
X268021Y207515D01*
X268167Y207640D01*
X268173Y207647D01*
X268180Y207653D01*
X268297Y207806D01*
X268416Y207957D01*
X268420Y207965D01*
X268425Y207972D01*
X268577Y208267D01*
X269279Y209963D01*
X272637Y213321D01*
X277025Y215139D01*
X281775Y215139D01*
X286163Y213321D01*
X289521Y209963D01*
X290223Y208267D01*
X290228Y208260D01*
X290230Y208251D01*
X290322Y208083D01*
X290414Y207913D01*
X290419Y207906D01*
X290424Y207898D01*
X290547Y207751D01*
X290670Y207602D01*
X290677Y207597D01*
X290683Y207590D01*
X290833Y207470D01*
X290983Y207348D01*
X290991Y207344D01*
X290997Y207339D01*
X291168Y207251D01*
X291339Y207161D01*
X291348Y207159D01*
X291356Y207155D01*
X291539Y207103D01*
X291725Y207048D01*
X291735Y207048D01*
X291743Y207045D01*
X291934Y207030D01*
X292127Y207014D01*
X292136Y207015D01*
X292144Y207014D01*
X292335Y207037D01*
X292527Y207059D01*
X292535Y207062D01*
X292544Y207063D01*
X292727Y207123D01*
X292910Y207182D01*
X292918Y207186D01*
X292926Y207189D01*
X293094Y207285D01*
X293261Y207378D01*
X293268Y207384D01*
X293276Y207389D01*
X293421Y207515D01*
X293567Y207640D01*
X293573Y207647D01*
X293580Y207653D01*
X293697Y207806D01*
X293816Y207957D01*
X293820Y207965D01*
X293825Y207972D01*
X293977Y208267D01*
X294679Y209963D01*
X298037Y213321D01*
X302425Y215139D01*
X307175Y215139D01*
X311563Y213321D01*
X314921Y209963D01*
X315623Y208267D01*
X315628Y208260D01*
X315630Y208251D01*
X315722Y208083D01*
X315814Y207913D01*
X315819Y207906D01*
X315824Y207898D01*
X315947Y207751D01*
X316070Y207602D01*
X316077Y207597D01*
X316083Y207590D01*
X316233Y207470D01*
X316383Y207348D01*
X316391Y207344D01*
X316397Y207339D01*
X316568Y207251D01*
X316739Y207161D01*
X316748Y207159D01*
X316756Y207155D01*
X316939Y207103D01*
X317125Y207048D01*
X317135Y207048D01*
X317143Y207045D01*
X317334Y207030D01*
X317527Y207014D01*
X317536Y207015D01*
X317544Y207014D01*
X317735Y207037D01*
X317927Y207059D01*
X317935Y207062D01*
X317944Y207063D01*
X318127Y207123D01*
X318310Y207182D01*
X318318Y207186D01*
X318326Y207189D01*
X318494Y207285D01*
X318661Y207378D01*
X318668Y207384D01*
X318676Y207389D01*
X318821Y207515D01*
X318967Y207640D01*
X318973Y207647D01*
X318980Y207653D01*
X319097Y207806D01*
X319216Y207957D01*
X319220Y207965D01*
X319225Y207972D01*
X319377Y208267D01*
X320079Y209963D01*
X323437Y213321D01*
X327825Y215139D01*
X332575Y215139D01*
X336963Y213321D01*
X340321Y209963D01*
X341023Y208267D01*
X341028Y208260D01*
X341030Y208251D01*
X341122Y208083D01*
X341214Y207913D01*
X341219Y207906D01*
X341224Y207898D01*
X341347Y207751D01*
X341470Y207602D01*
X341477Y207597D01*
X341483Y207590D01*
X341633Y207470D01*
X341783Y207348D01*
X341791Y207344D01*
X341797Y207339D01*
X341968Y207251D01*
X342139Y207161D01*
X342148Y207159D01*
X342156Y207155D01*
X342339Y207103D01*
X342525Y207048D01*
X342535Y207048D01*
X342543Y207045D01*
X342734Y207030D01*
X342927Y207014D01*
X342936Y207015D01*
X342944Y207014D01*
X343135Y207037D01*
X343327Y207059D01*
X343335Y207062D01*
X343344Y207063D01*
X343527Y207123D01*
X343710Y207182D01*
X343718Y207186D01*
X343726Y207189D01*
X343894Y207285D01*
X344061Y207378D01*
X344068Y207384D01*
X344076Y207389D01*
X344221Y207515D01*
X344367Y207640D01*
X344373Y207647D01*
X344380Y207653D01*
X344497Y207806D01*
X344616Y207957D01*
X344620Y207965D01*
X344625Y207972D01*
X344777Y208267D01*
X345479Y209963D01*
X348837Y213321D01*
X353225Y215139D01*
X357975Y215139D01*
X362363Y213321D01*
X365721Y209963D01*
X366423Y208268D01*
X366485Y208153D01*
X366538Y208034D01*
X366580Y207976D01*
X366613Y207913D01*
X366697Y207813D01*
X366773Y207706D01*
X366824Y207658D01*
X366870Y207603D01*
X366971Y207521D01*
X367067Y207431D01*
X367127Y207394D01*
X367182Y207349D01*
X367298Y207289D01*
X367409Y207220D01*
X367476Y207195D01*
X367539Y207162D01*
X367664Y207126D01*
X367787Y207080D01*
X367857Y207069D01*
X367925Y207049D01*
X368055Y207038D01*
X368185Y207018D01*
X368256Y207021D01*
X368326Y207015D01*
X368456Y207029D01*
X368587Y207035D01*
X368656Y207052D01*
X368726Y207060D01*
X368851Y207100D01*
X368978Y207131D01*
X369042Y207161D01*
X369110Y207183D01*
X369224Y207247D01*
X369342Y207302D01*
X369399Y207345D01*
X369461Y207379D01*
X369560Y207464D01*
X369666Y207542D01*
X369713Y207595D01*
X369767Y207641D01*
X369848Y207744D01*
X369935Y207841D01*
X369978Y207911D01*
X370015Y207958D01*
X370049Y208026D01*
X370110Y208124D01*
X370789Y209457D01*
X371894Y210978D01*
X373222Y212306D01*
X374743Y213411D01*
X376417Y214264D01*
X378204Y214845D01*
X378461Y214885D01*
X378461Y203708D01*
X378462Y203690D01*
X378461Y203673D01*
X378482Y203490D01*
X378501Y203308D01*
X378506Y203291D01*
X378508Y203273D01*
X378533Y203195D01*
X378494Y203058D01*
X378492Y203040D01*
X378488Y203023D01*
X378461Y202692D01*
X378461Y191515D01*
X378204Y191555D01*
X376417Y192136D01*
X374743Y192989D01*
X373222Y194094D01*
X371894Y195422D01*
X370789Y196943D01*
X370110Y198276D01*
X370039Y198387D01*
X369976Y198501D01*
X369930Y198556D01*
X369892Y198615D01*
X369801Y198709D01*
X369717Y198809D01*
X369661Y198854D01*
X369612Y198905D01*
X369504Y198979D01*
X369402Y199060D01*
X369339Y199093D01*
X369281Y199133D01*
X369160Y199185D01*
X369044Y199244D01*
X368976Y199264D01*
X368910Y199292D01*
X368782Y199318D01*
X368657Y199354D01*
X368586Y199359D01*
X368516Y199374D01*
X368385Y199375D01*
X368255Y199385D01*
X368185Y199377D01*
X368114Y199377D01*
X367985Y199352D01*
X367856Y199336D01*
X367788Y199314D01*
X367718Y199301D01*
X367597Y199251D01*
X367473Y199210D01*
X367412Y199175D01*
X367346Y199148D01*
X367237Y199075D01*
X367124Y199011D01*
X367070Y198964D01*
X367011Y198924D01*
X366919Y198832D01*
X366820Y198746D01*
X366777Y198690D01*
X366727Y198639D01*
X366654Y198530D01*
X366575Y198427D01*
X366537Y198354D01*
X366504Y198304D01*
X366475Y198233D01*
X366423Y198132D01*
X365721Y196437D01*
X362363Y193079D01*
X357975Y191261D01*
X353225Y191261D01*
X348837Y193079D01*
X345479Y196437D01*
X344777Y198133D01*
X344772Y198140D01*
X344770Y198149D01*
X344677Y198319D01*
X344586Y198487D01*
X344581Y198494D01*
X344576Y198502D01*
X344452Y198651D01*
X344330Y198798D01*
X344323Y198803D01*
X344317Y198810D01*
X344166Y198931D01*
X344017Y199052D01*
X344010Y199056D01*
X344002Y199061D01*
X343830Y199150D01*
X343661Y199239D01*
X343652Y199241D01*
X343644Y199245D01*
X343460Y199297D01*
X343274Y199352D01*
X343265Y199352D01*
X343257Y199355D01*
X343066Y199370D01*
X342873Y199386D01*
X342864Y199385D01*
X342856Y199386D01*
X342664Y199363D01*
X342473Y199341D01*
X342465Y199338D01*
X342456Y199337D01*
X342274Y199277D01*
X342090Y199218D01*
X342082Y199214D01*
X342074Y199211D01*
X341908Y199116D01*
X341738Y199022D01*
X341732Y199016D01*
X341724Y199011D01*
X341580Y198886D01*
X341433Y198760D01*
X341427Y198753D01*
X341420Y198747D01*
X341303Y198595D01*
X341184Y198443D01*
X341180Y198435D01*
X341175Y198428D01*
X341023Y198133D01*
X340321Y196437D01*
X336963Y193079D01*
X332575Y191261D01*
X327825Y191261D01*
X323437Y193079D01*
X320079Y196437D01*
X319377Y198133D01*
X319372Y198140D01*
X319370Y198149D01*
X319277Y198319D01*
X319186Y198487D01*
X319181Y198494D01*
X319176Y198502D01*
X319052Y198651D01*
X318930Y198798D01*
X318923Y198803D01*
X318917Y198810D01*
X318766Y198931D01*
X318617Y199052D01*
X318610Y199056D01*
X318602Y199061D01*
X318430Y199150D01*
X318261Y199239D01*
X318252Y199241D01*
X318244Y199245D01*
X318060Y199297D01*
X317874Y199352D01*
X317865Y199352D01*
X317857Y199355D01*
X317666Y199370D01*
X317473Y199386D01*
X317464Y199385D01*
X317456Y199386D01*
X317264Y199363D01*
X317073Y199341D01*
X317065Y199338D01*
X317056Y199337D01*
X316874Y199277D01*
X316690Y199218D01*
X316682Y199214D01*
X316674Y199211D01*
X316508Y199116D01*
X316338Y199022D01*
X316332Y199016D01*
X316324Y199011D01*
X316180Y198886D01*
X316033Y198760D01*
X316027Y198753D01*
X316020Y198747D01*
X315903Y198595D01*
X315784Y198443D01*
X315780Y198435D01*
X315775Y198428D01*
X315623Y198133D01*
X314921Y196437D01*
X311563Y193079D01*
X307175Y191261D01*
X302425Y191261D01*
X298037Y193079D01*
X294679Y196437D01*
X293977Y198133D01*
X293972Y198140D01*
X293970Y198149D01*
X293877Y198319D01*
X293786Y198487D01*
X293781Y198494D01*
X293776Y198502D01*
X293652Y198651D01*
X293530Y198798D01*
X293523Y198803D01*
X293517Y198810D01*
X293366Y198931D01*
X293217Y199052D01*
X293210Y199056D01*
X293202Y199061D01*
X293030Y199150D01*
X292861Y199239D01*
X292852Y199241D01*
X292844Y199245D01*
X292660Y199297D01*
X292474Y199352D01*
X292465Y199352D01*
X292457Y199355D01*
X292266Y199370D01*
X292073Y199386D01*
X292064Y199385D01*
X292056Y199386D01*
X291864Y199363D01*
X291673Y199341D01*
X291665Y199338D01*
X291656Y199337D01*
X291474Y199277D01*
X291290Y199218D01*
X291282Y199214D01*
X291274Y199211D01*
X291108Y199116D01*
X290938Y199022D01*
X290932Y199016D01*
X290924Y199011D01*
X290780Y198886D01*
X290633Y198760D01*
X290627Y198753D01*
X290620Y198747D01*
X290503Y198595D01*
X290384Y198443D01*
X290380Y198435D01*
X290375Y198428D01*
X290223Y198133D01*
X289521Y196437D01*
X286163Y193079D01*
X281775Y191261D01*
X277025Y191261D01*
X272637Y193079D01*
X269279Y196437D01*
X268577Y198133D01*
X268572Y198140D01*
X268570Y198149D01*
X268477Y198319D01*
X268386Y198487D01*
X268381Y198494D01*
X268376Y198502D01*
X268252Y198651D01*
X268130Y198798D01*
X268123Y198803D01*
X268117Y198810D01*
X267966Y198931D01*
X267817Y199052D01*
X267810Y199056D01*
X267802Y199061D01*
X267630Y199150D01*
X267461Y199239D01*
X267452Y199241D01*
X267444Y199245D01*
X267260Y199297D01*
X267074Y199352D01*
X267065Y199352D01*
X267057Y199355D01*
X266866Y199370D01*
X266673Y199386D01*
X266664Y199385D01*
X266656Y199386D01*
X266464Y199363D01*
X266273Y199341D01*
X266265Y199338D01*
X266256Y199337D01*
X266074Y199277D01*
X265890Y199218D01*
X265882Y199214D01*
X265874Y199211D01*
X265708Y199116D01*
X265538Y199022D01*
X265532Y199016D01*
X265524Y199011D01*
X265380Y198886D01*
X265233Y198760D01*
X265227Y198753D01*
X265220Y198747D01*
X265103Y198595D01*
X264984Y198443D01*
X264980Y198435D01*
X264975Y198428D01*
X264823Y198133D01*
X264121Y196437D01*
X260763Y193079D01*
X256375Y191261D01*
X251625Y191261D01*
X247237Y193079D01*
X243879Y196437D01*
X243177Y198133D01*
X243172Y198140D01*
X243170Y198149D01*
X243077Y198319D01*
X242986Y198487D01*
X242981Y198494D01*
X242976Y198502D01*
X242852Y198651D01*
X242730Y198798D01*
X242723Y198803D01*
X242717Y198810D01*
X242566Y198931D01*
X242417Y199052D01*
X242410Y199056D01*
X242402Y199061D01*
X242230Y199150D01*
X242061Y199239D01*
X242052Y199241D01*
X242044Y199245D01*
X241860Y199297D01*
X241674Y199352D01*
X241665Y199352D01*
X241657Y199355D01*
X241466Y199370D01*
X241273Y199386D01*
X241264Y199385D01*
X241256Y199386D01*
X241064Y199363D01*
X240873Y199341D01*
X240865Y199338D01*
X240856Y199337D01*
X240674Y199277D01*
X240490Y199218D01*
X240482Y199214D01*
X240474Y199211D01*
X240308Y199116D01*
X240138Y199022D01*
X240132Y199016D01*
X240124Y199011D01*
X239980Y198886D01*
X239833Y198760D01*
X239827Y198753D01*
X239820Y198747D01*
X239703Y198595D01*
X239584Y198443D01*
X239580Y198435D01*
X239575Y198428D01*
X239423Y198133D01*
X238721Y196437D01*
X235363Y193079D01*
X233667Y192377D01*
X233664Y192375D01*
X233659Y192373D01*
X233487Y192280D01*
X233313Y192186D01*
X233309Y192184D01*
X233305Y192181D01*
X233156Y192057D01*
X233002Y191930D01*
X232999Y191927D01*
X232996Y191924D01*
X232873Y191771D01*
X232748Y191617D01*
X232746Y191613D01*
X232744Y191610D01*
X232654Y191437D01*
X232561Y191261D01*
X232560Y191257D01*
X232558Y191253D01*
X232504Y191064D01*
X232448Y190874D01*
X232448Y190870D01*
X232447Y190866D01*
X232430Y190666D01*
X232414Y190473D01*
X232414Y190469D01*
X232414Y190464D01*
X232437Y190270D01*
X232459Y190073D01*
X232460Y190069D01*
X232461Y190065D01*
X232521Y189879D01*
X232582Y189690D01*
X232584Y189686D01*
X232586Y189682D01*
X232683Y189509D01*
X232778Y189338D01*
X232781Y189335D01*
X232783Y189331D01*
X232912Y189182D01*
X233040Y189033D01*
X233044Y189030D01*
X233047Y189026D01*
X233201Y188906D01*
X233357Y188784D01*
X233361Y188782D01*
X233365Y188780D01*
X233543Y188691D01*
X233717Y188604D01*
X233721Y188602D01*
X233725Y188600D01*
X233917Y188549D01*
X234105Y188497D01*
X234110Y188497D01*
X234114Y188496D01*
X234445Y188469D01*
X236169Y188469D01*
X238848Y185790D01*
X240012Y184626D01*
X240033Y184609D01*
X240050Y184588D01*
X240188Y184481D01*
X240324Y184371D01*
X240347Y184358D01*
X240369Y184342D01*
X240525Y184264D01*
X240679Y184182D01*
X240705Y184174D01*
X240729Y184162D01*
X240898Y184117D01*
X241065Y184067D01*
X241092Y184065D01*
X241118Y184058D01*
X241449Y184031D01*
X253272Y184031D01*
X254761Y182542D01*
X254761Y165438D01*
X254531Y165208D01*
X254526Y165201D01*
X254519Y165196D01*
X254399Y165047D01*
X254276Y164897D01*
X254272Y164889D01*
X254267Y164882D01*
X254179Y164713D01*
X254088Y164541D01*
X254085Y164532D01*
X254081Y164525D01*
X254028Y164341D01*
X253973Y164155D01*
X253972Y164146D01*
X253970Y164138D01*
X253954Y163947D01*
X253937Y163754D01*
X253938Y163745D01*
X253937Y163736D01*
X253959Y163545D01*
X253980Y163354D01*
X253983Y163345D01*
X253984Y163337D01*
X254043Y163154D01*
X254101Y162970D01*
X254106Y162962D01*
X254109Y162954D01*
X254205Y162783D01*
X254296Y162618D01*
X254302Y162611D01*
X254306Y162603D01*
X254433Y162457D01*
X254557Y162311D01*
X254564Y162305D01*
X254570Y162298D01*
X254722Y162180D01*
X254873Y162061D01*
X254881Y162057D01*
X254888Y162052D01*
X255061Y161965D01*
X255232Y161879D01*
X255240Y161876D01*
X255248Y161872D01*
X255437Y161822D01*
X255619Y161771D01*
X255628Y161770D01*
X255637Y161768D01*
X255968Y161741D01*
X256896Y161741D01*
X256914Y161743D01*
X256932Y161741D01*
X257114Y161762D01*
X257297Y161781D01*
X257314Y161786D01*
X257331Y161788D01*
X257506Y161845D01*
X257682Y161899D01*
X257697Y161907D01*
X257714Y161913D01*
X257874Y162003D01*
X258036Y162091D01*
X258049Y162102D01*
X258065Y162111D01*
X258204Y162231D01*
X258345Y162348D01*
X258356Y162362D01*
X258370Y162374D01*
X258482Y162519D01*
X258597Y162662D01*
X258605Y162678D01*
X258616Y162692D01*
X258698Y162857D01*
X258783Y163019D01*
X258788Y163036D01*
X258796Y163052D01*
X258843Y163230D01*
X258894Y163406D01*
X258896Y163424D01*
X258900Y163441D01*
X258927Y163772D01*
X258927Y164080D01*
X259623Y165760D01*
X261268Y167405D01*
X262840Y168977D01*
X264520Y169673D01*
X279671Y169673D01*
X281351Y168977D01*
X282192Y168136D01*
X282213Y168119D01*
X282230Y168098D01*
X282368Y167991D01*
X282504Y167881D01*
X282527Y167868D01*
X282549Y167852D01*
X282705Y167774D01*
X282859Y167692D01*
X282885Y167684D01*
X282909Y167672D01*
X283078Y167627D01*
X283245Y167577D01*
X283272Y167575D01*
X283298Y167568D01*
X283629Y167541D01*
X293422Y167541D01*
X293440Y167542D01*
X293457Y167541D01*
X293640Y167562D01*
X293822Y167581D01*
X293839Y167586D01*
X293857Y167588D01*
X294032Y167645D01*
X294207Y167699D01*
X294223Y167707D01*
X294240Y167713D01*
X294400Y167803D01*
X294561Y167890D01*
X294575Y167902D01*
X294591Y167911D01*
X294643Y167956D01*
X294748Y167871D01*
X294764Y167863D01*
X294778Y167852D01*
X294943Y167770D01*
X295106Y167685D01*
X295123Y167680D01*
X295139Y167672D01*
X295317Y167624D01*
X295492Y167574D01*
X295510Y167572D01*
X295527Y167568D01*
X295858Y167541D01*
X313742Y167541D01*
X313760Y167542D01*
X313777Y167541D01*
X313960Y167562D01*
X314142Y167581D01*
X314159Y167586D01*
X314177Y167588D01*
X314352Y167645D01*
X314527Y167699D01*
X314543Y167707D01*
X314560Y167713D01*
X314720Y167803D01*
X314881Y167890D01*
X314895Y167902D01*
X314911Y167911D01*
X314963Y167956D01*
X315068Y167871D01*
X315084Y167863D01*
X315098Y167852D01*
X315263Y167770D01*
X315426Y167685D01*
X315443Y167680D01*
X315459Y167672D01*
X315637Y167624D01*
X315812Y167574D01*
X315830Y167572D01*
X315847Y167568D01*
X316178Y167541D01*
X325001Y167541D01*
X325001Y163955D01*
X324828Y163309D01*
X324493Y162730D01*
X324489Y162726D01*
X324478Y162712D01*
X324465Y162701D01*
X324351Y162557D01*
X324234Y162415D01*
X324226Y162399D01*
X324215Y162385D01*
X324132Y162221D01*
X324046Y162059D01*
X324041Y162042D01*
X324033Y162026D01*
X323983Y161849D01*
X323931Y161673D01*
X323929Y161655D01*
X323925Y161638D01*
X323911Y161455D01*
X323895Y161272D01*
X323897Y161254D01*
X323895Y161237D01*
X323918Y161055D01*
X323938Y160872D01*
X323943Y160855D01*
X323946Y160837D01*
X324004Y160664D01*
X324059Y160488D01*
X324068Y160472D01*
X324074Y160456D01*
X324165Y160297D01*
X324254Y160136D01*
X324266Y160122D01*
X324275Y160107D01*
X324489Y159854D01*
X325001Y159342D01*
X325001Y158236D01*
X325001Y158231D01*
X325001Y158227D01*
X325021Y158031D01*
X325041Y157835D01*
X325042Y157831D01*
X325042Y157826D01*
X325101Y157638D01*
X325159Y157450D01*
X325161Y157446D01*
X325162Y157442D01*
X325259Y157266D01*
X325351Y157096D01*
X325353Y157093D01*
X325355Y157089D01*
X325483Y156937D01*
X325608Y156787D01*
X325612Y156784D01*
X325615Y156781D01*
X325770Y156657D01*
X325922Y156535D01*
X325926Y156533D01*
X325929Y156530D01*
X326107Y156439D01*
X326279Y156349D01*
X326284Y156348D01*
X326288Y156346D01*
X326479Y156292D01*
X326666Y156238D01*
X326671Y156237D01*
X326675Y156236D01*
X327005Y156205D01*
X354675Y155841D01*
X354710Y155844D01*
X354746Y155841D01*
X354911Y155861D01*
X355076Y155875D01*
X355110Y155885D01*
X355146Y155890D01*
X355304Y155942D01*
X355462Y155988D01*
X355494Y156005D01*
X355528Y156016D01*
X355672Y156099D01*
X355819Y156175D01*
X355847Y156198D01*
X355878Y156216D01*
X356003Y156325D01*
X356132Y156429D01*
X356154Y156457D01*
X356181Y156480D01*
X356282Y156612D01*
X356388Y156740D01*
X356405Y156771D01*
X356427Y156799D01*
X356578Y157094D01*
X356909Y157893D01*
X360267Y161251D01*
X364655Y163069D01*
X369405Y163069D01*
X373793Y161251D01*
X377151Y157893D01*
X378969Y153505D01*
X378969Y148755D01*
X378581Y147819D01*
X378575Y147798D01*
X378564Y147778D01*
X378516Y147605D01*
X378465Y147434D01*
X378462Y147411D01*
X378456Y147390D01*
X378443Y147210D01*
X378426Y147033D01*
X378429Y147011D01*
X378427Y146988D01*
X378450Y146810D01*
X378468Y146632D01*
X378475Y146611D01*
X378477Y146589D01*
X378535Y146419D01*
X378588Y146248D01*
X378599Y146229D01*
X378606Y146207D01*
X378695Y146052D01*
X378781Y145895D01*
X378795Y145878D01*
X378807Y145858D01*
X379021Y145605D01*
X382159Y142468D01*
X382180Y142451D01*
X382197Y142430D01*
X382335Y142324D01*
X382471Y142213D01*
X382494Y142200D01*
X382515Y142184D01*
X382672Y142106D01*
X382826Y142024D01*
X382852Y142016D01*
X382876Y142004D01*
X383045Y141959D01*
X383212Y141909D01*
X383239Y141907D01*
X383265Y141900D01*
X383595Y141873D01*
X450938Y141873D01*
X450965Y141875D01*
X450992Y141873D01*
X451166Y141895D01*
X451339Y141913D01*
X451364Y141920D01*
X451391Y141924D01*
X451557Y141980D01*
X451724Y142031D01*
X451747Y142044D01*
X451773Y142052D01*
X451924Y142139D01*
X452078Y142223D01*
X452098Y142240D01*
X452122Y142253D01*
X452375Y142468D01*
X454248Y144341D01*
X469782Y144341D01*
X469808Y144343D01*
X469834Y144341D01*
X470008Y144363D01*
X470183Y144381D01*
X470207Y144388D01*
X470233Y144391D01*
X470400Y144447D01*
X470568Y144499D01*
X470590Y144511D01*
X470615Y144519D01*
X470768Y144607D01*
X470922Y144691D01*
X470941Y144707D01*
X470964Y144720D01*
X471217Y144934D01*
X477152Y150860D01*
X477164Y150874D01*
X477178Y150886D01*
X477292Y151030D01*
X477408Y151171D01*
X477416Y151187D01*
X477428Y151202D01*
X477511Y151365D01*
X477597Y151526D01*
X477602Y151544D01*
X477610Y151561D01*
X477659Y151736D01*
X477712Y151912D01*
X477713Y151931D01*
X477718Y151949D01*
X477732Y152131D01*
X477748Y152313D01*
X477746Y152332D01*
X477748Y152350D01*
X477725Y152532D01*
X477705Y152713D01*
X477700Y152731D01*
X477697Y152750D01*
X477639Y152923D01*
X477584Y153097D01*
X477575Y153114D01*
X477569Y153132D01*
X477478Y153290D01*
X477390Y153450D01*
X477377Y153464D01*
X477368Y153480D01*
X477153Y153733D01*
X475839Y155048D01*
X475839Y175152D01*
X477328Y176641D01*
X495432Y176641D01*
X496921Y175152D01*
X496921Y155048D01*
X495432Y153559D01*
X492666Y153559D01*
X492645Y153557D01*
X492623Y153559D01*
X492444Y153537D01*
X492265Y153519D01*
X492245Y153513D01*
X492224Y153510D01*
X492053Y153454D01*
X491880Y153401D01*
X491861Y153391D01*
X491841Y153384D01*
X491685Y153295D01*
X491526Y153209D01*
X491510Y153196D01*
X491491Y153185D01*
X491355Y153067D01*
X491217Y152952D01*
X491204Y152935D01*
X491188Y152921D01*
X491077Y152778D01*
X490965Y152638D01*
X490955Y152619D01*
X490942Y152602D01*
X490790Y152307D01*
X490597Y151843D01*
X490597Y151842D01*
X490597Y151841D01*
X490256Y151018D01*
X489593Y150357D01*
X489593Y150356D01*
X489592Y150355D01*
X488696Y149459D01*
X488687Y149452D01*
X488686Y149450D01*
X488683Y149448D01*
X477437Y138221D01*
X477419Y138200D01*
X477398Y138182D01*
X477292Y138044D01*
X477182Y137910D01*
X477169Y137885D01*
X477152Y137863D01*
X477074Y137708D01*
X476993Y137554D01*
X476985Y137528D01*
X476972Y137503D01*
X476927Y137335D01*
X476878Y137168D01*
X476875Y137141D01*
X476868Y137114D01*
X476841Y136783D01*
X476841Y131748D01*
X475352Y130259D01*
X454248Y130259D01*
X452375Y132132D01*
X452354Y132149D01*
X452336Y132170D01*
X452198Y132277D01*
X452063Y132387D01*
X452039Y132400D01*
X452018Y132416D01*
X451862Y132494D01*
X451707Y132576D01*
X451682Y132584D01*
X451658Y132596D01*
X451489Y132641D01*
X451321Y132691D01*
X451295Y132693D01*
X451269Y132700D01*
X450938Y132727D01*
X380094Y132727D01*
X380081Y132726D01*
X380067Y132727D01*
X379881Y132706D01*
X379693Y132687D01*
X379681Y132683D01*
X379667Y132682D01*
X379489Y132625D01*
X379308Y132569D01*
X379297Y132563D01*
X379284Y132559D01*
X379120Y132467D01*
X378954Y132377D01*
X378944Y132369D01*
X378932Y132362D01*
X378789Y132239D01*
X378645Y132120D01*
X378637Y132109D01*
X378627Y132101D01*
X378511Y131952D01*
X378393Y131806D01*
X378387Y131794D01*
X378378Y131784D01*
X378294Y131615D01*
X378207Y131449D01*
X378204Y131436D01*
X378198Y131424D01*
X378148Y131241D01*
X378096Y131062D01*
X378095Y131048D01*
X378091Y131035D01*
X378078Y130849D01*
X378063Y130660D01*
X378065Y130647D01*
X378064Y130634D01*
X378088Y130448D01*
X378110Y130261D01*
X378114Y130248D01*
X378116Y130235D01*
X378217Y129919D01*
X378969Y128105D01*
X378969Y123355D01*
X377151Y118967D01*
X373793Y115609D01*
X372098Y114907D01*
X371983Y114845D01*
X371864Y114792D01*
X371806Y114750D01*
X371743Y114717D01*
X371643Y114633D01*
X371536Y114557D01*
X371488Y114506D01*
X371433Y114460D01*
X371351Y114359D01*
X371261Y114263D01*
X371224Y114203D01*
X371179Y114148D01*
X371119Y114032D01*
X371050Y113921D01*
X371025Y113854D01*
X370992Y113791D01*
X370956Y113666D01*
X370910Y113543D01*
X370899Y113473D01*
X370879Y113405D01*
X370868Y113275D01*
X370848Y113145D01*
X370851Y113074D01*
X370845Y113004D01*
X370859Y112874D01*
X370865Y112743D01*
X370882Y112674D01*
X370890Y112604D01*
X370930Y112479D01*
X370961Y112352D01*
X370991Y112288D01*
X371013Y112220D01*
X371077Y112106D01*
X371132Y111988D01*
X371175Y111931D01*
X371209Y111869D01*
X371294Y111770D01*
X371372Y111664D01*
X371425Y111617D01*
X371471Y111563D01*
X371574Y111482D01*
X371671Y111395D01*
X371741Y111352D01*
X371788Y111315D01*
X371856Y111281D01*
X371954Y111220D01*
X373287Y110541D01*
X374808Y109436D01*
X376136Y108108D01*
X377241Y106587D01*
X378094Y104913D01*
X378675Y103126D01*
X378969Y101270D01*
X378969Y101250D01*
X378970Y101237D01*
X378969Y101223D01*
X378990Y101037D01*
X379009Y100849D01*
X379013Y100837D01*
X379014Y100823D01*
X379072Y100644D01*
X379127Y100464D01*
X379133Y100453D01*
X379137Y100440D01*
X379229Y100276D01*
X379319Y100110D01*
X379327Y100100D01*
X379334Y100088D01*
X379456Y99946D01*
X379576Y99801D01*
X379587Y99793D01*
X379595Y99783D01*
X379744Y99667D01*
X379890Y99549D01*
X379902Y99543D01*
X379912Y99534D01*
X380082Y99449D01*
X380247Y99363D01*
X380260Y99360D01*
X380272Y99354D01*
X380454Y99304D01*
X380634Y99252D01*
X380648Y99251D01*
X380661Y99247D01*
X380847Y99235D01*
X381036Y99219D01*
X381049Y99221D01*
X381062Y99220D01*
X381248Y99244D01*
X381435Y99266D01*
X381448Y99270D01*
X381461Y99272D01*
X381777Y99373D01*
X382181Y99541D01*
X384899Y99541D01*
X387409Y98501D01*
X389216Y96694D01*
X389223Y96689D01*
X389228Y96682D01*
X389378Y96562D01*
X389527Y96439D01*
X389535Y96435D01*
X389542Y96430D01*
X389712Y96341D01*
X389883Y96251D01*
X389892Y96248D01*
X389899Y96244D01*
X390084Y96191D01*
X390269Y96136D01*
X390278Y96135D01*
X390286Y96133D01*
X390477Y96117D01*
X390670Y96100D01*
X390679Y96100D01*
X390688Y96100D01*
X390877Y96122D01*
X391070Y96143D01*
X391079Y96146D01*
X391087Y96147D01*
X391269Y96206D01*
X391454Y96264D01*
X391462Y96269D01*
X391470Y96272D01*
X391637Y96366D01*
X391806Y96459D01*
X391813Y96465D01*
X391821Y96469D01*
X391966Y96595D01*
X392113Y96720D01*
X392119Y96727D01*
X392126Y96733D01*
X392242Y96883D01*
X392363Y97036D01*
X392367Y97044D01*
X392372Y97051D01*
X392458Y97222D01*
X392545Y97395D01*
X392548Y97403D01*
X392552Y97411D01*
X392602Y97597D01*
X392653Y97782D01*
X392654Y97791D01*
X392656Y97800D01*
X392683Y98131D01*
X392683Y106085D01*
X392681Y106112D01*
X392683Y106139D01*
X392661Y106312D01*
X392643Y106486D01*
X392636Y106511D01*
X392632Y106538D01*
X392577Y106704D01*
X392525Y106871D01*
X392512Y106894D01*
X392504Y106920D01*
X392417Y107071D01*
X392333Y107225D01*
X392316Y107245D01*
X392303Y107269D01*
X392088Y107522D01*
X390449Y109161D01*
X389409Y111671D01*
X389409Y114389D01*
X390449Y116899D01*
X392371Y118821D01*
X394881Y119861D01*
X397599Y119861D01*
X400109Y118821D01*
X401789Y117141D01*
X401802Y117130D01*
X401814Y117117D01*
X401958Y117003D01*
X402100Y116886D01*
X402116Y116878D01*
X402130Y116867D01*
X402294Y116784D01*
X402456Y116698D01*
X402473Y116693D01*
X402489Y116685D01*
X402666Y116635D01*
X402842Y116583D01*
X402860Y116581D01*
X402877Y116577D01*
X403060Y116563D01*
X403243Y116547D01*
X403261Y116548D01*
X403278Y116547D01*
X403460Y116570D01*
X403643Y116590D01*
X403660Y116595D01*
X403678Y116598D01*
X403851Y116656D01*
X404027Y116711D01*
X404043Y116720D01*
X404059Y116726D01*
X404218Y116817D01*
X404379Y116906D01*
X404393Y116918D01*
X404408Y116927D01*
X404661Y117141D01*
X406341Y118821D01*
X408851Y119861D01*
X411569Y119861D01*
X414079Y118821D01*
X416001Y116899D01*
X417041Y114389D01*
X417041Y111671D01*
X416001Y109161D01*
X414362Y107522D01*
X414345Y107501D01*
X414324Y107483D01*
X414217Y107345D01*
X414107Y107210D01*
X414094Y107186D01*
X414078Y107165D01*
X414000Y107008D01*
X413918Y106854D01*
X413910Y106829D01*
X413898Y106805D01*
X413853Y106635D01*
X413803Y106468D01*
X413801Y106442D01*
X413794Y106416D01*
X413767Y106085D01*
X413767Y97587D01*
X387720Y71540D01*
X387715Y71533D01*
X387708Y71528D01*
X387587Y71378D01*
X387465Y71229D01*
X387461Y71221D01*
X387455Y71214D01*
X387367Y71043D01*
X387277Y70873D01*
X387274Y70865D01*
X387270Y70857D01*
X387217Y70671D01*
X387162Y70487D01*
X387161Y70478D01*
X387159Y70470D01*
X387143Y70278D01*
X387125Y70086D01*
X387126Y70077D01*
X387126Y70068D01*
X387148Y69879D01*
X387169Y69686D01*
X387172Y69677D01*
X387173Y69669D01*
X387232Y69487D01*
X387290Y69302D01*
X387295Y69294D01*
X387297Y69286D01*
X387392Y69117D01*
X387485Y68950D01*
X387491Y68943D01*
X387495Y68935D01*
X387621Y68789D01*
X387746Y68643D01*
X387753Y68637D01*
X387758Y68630D01*
X387910Y68513D01*
X388062Y68393D01*
X388070Y68389D01*
X388077Y68384D01*
X388249Y68298D01*
X388420Y68211D01*
X388429Y68208D01*
X388437Y68204D01*
X388624Y68154D01*
X388808Y68103D01*
X388817Y68102D01*
X388826Y68100D01*
X389157Y68073D01*
X413334Y68073D01*
X424042Y57365D01*
X424049Y57360D01*
X424054Y57353D01*
X424204Y57232D01*
X424353Y57110D01*
X424361Y57106D01*
X424368Y57100D01*
X424538Y57012D01*
X424709Y56922D01*
X424718Y56919D01*
X424725Y56915D01*
X424910Y56862D01*
X425095Y56807D01*
X425104Y56806D01*
X425112Y56804D01*
X425304Y56788D01*
X425496Y56770D01*
X425505Y56771D01*
X425514Y56771D01*
X425703Y56793D01*
X425896Y56814D01*
X425905Y56817D01*
X425913Y56818D01*
X426095Y56877D01*
X426280Y56935D01*
X426288Y56940D01*
X426296Y56942D01*
X426465Y57037D01*
X426632Y57130D01*
X426639Y57136D01*
X426647Y57140D01*
X426793Y57266D01*
X426939Y57391D01*
X426945Y57398D01*
X426952Y57403D01*
X427069Y57555D01*
X427189Y57707D01*
X427193Y57715D01*
X427198Y57722D01*
X427284Y57894D01*
X427371Y58065D01*
X427374Y58074D01*
X427378Y58082D01*
X427428Y58269D01*
X427479Y58453D01*
X427480Y58462D01*
X427482Y58471D01*
X427509Y58802D01*
X427509Y60399D01*
X428549Y62909D01*
X430471Y64831D01*
X432981Y65871D01*
X435699Y65871D01*
X438209Y64831D01*
X440131Y62909D01*
X440148Y62869D01*
X440152Y62861D01*
X440155Y62852D01*
X440247Y62684D01*
X440338Y62514D01*
X440344Y62507D01*
X440348Y62499D01*
X440472Y62352D01*
X440594Y62204D01*
X440601Y62198D01*
X440607Y62191D01*
X440758Y62071D01*
X440907Y61950D01*
X440915Y61946D01*
X440922Y61940D01*
X441093Y61852D01*
X441263Y61763D01*
X441272Y61760D01*
X441280Y61756D01*
X441465Y61704D01*
X441650Y61650D01*
X441659Y61649D01*
X441668Y61646D01*
X441860Y61632D01*
X442051Y61615D01*
X442060Y61616D01*
X442069Y61615D01*
X442260Y61639D01*
X442451Y61660D01*
X442460Y61663D01*
X442469Y61664D01*
X442649Y61724D01*
X442834Y61783D01*
X442842Y61788D01*
X442851Y61791D01*
X443016Y61885D01*
X443186Y61980D01*
X443193Y61986D01*
X443201Y61990D01*
X443345Y62116D01*
X443492Y62242D01*
X443497Y62249D01*
X443504Y62255D01*
X443622Y62408D01*
X443708Y62519D01*
X445711Y64521D01*
X448221Y65561D01*
X450939Y65561D01*
X453449Y64521D01*
X455284Y62686D01*
X455297Y62675D01*
X455309Y62662D01*
X455453Y62548D01*
X455595Y62431D01*
X455611Y62423D01*
X455625Y62412D01*
X455789Y62329D01*
X455951Y62243D01*
X455968Y62238D01*
X455984Y62230D01*
X456161Y62180D01*
X456337Y62128D01*
X456355Y62126D01*
X456372Y62122D01*
X456555Y62108D01*
X456738Y62092D01*
X456756Y62093D01*
X456773Y62092D01*
X456955Y62115D01*
X457138Y62135D01*
X457155Y62140D01*
X457173Y62143D01*
X457346Y62201D01*
X457522Y62256D01*
X457538Y62265D01*
X457554Y62271D01*
X457713Y62362D01*
X457874Y62451D01*
X457888Y62463D01*
X457903Y62472D01*
X458156Y62686D01*
X459681Y64211D01*
X462210Y65258D01*
X462226Y65267D01*
X462243Y65272D01*
X462403Y65362D01*
X462565Y65449D01*
X462578Y65460D01*
X462594Y65469D01*
X462734Y65588D01*
X462875Y65705D01*
X462886Y65719D01*
X462900Y65730D01*
X463013Y65875D01*
X463129Y66018D01*
X463137Y66033D01*
X463148Y66048D01*
X463231Y66212D01*
X463316Y66374D01*
X463321Y66391D01*
X463329Y66407D01*
X463377Y66585D01*
X463429Y66761D01*
X463430Y66778D01*
X463435Y66796D01*
X463448Y66978D01*
X463464Y67162D01*
X463462Y67179D01*
X463463Y67197D01*
X463439Y67379D01*
X463418Y67562D01*
X463413Y67579D01*
X463411Y67596D01*
X463309Y67912D01*
X463069Y68491D01*
X463069Y71209D01*
X464109Y73719D01*
X466031Y75641D01*
X466472Y75824D01*
X468541Y76681D01*
X471259Y76681D01*
X471493Y76584D01*
X471497Y76582D01*
X471501Y76580D01*
X471689Y76525D01*
X471878Y76467D01*
X471883Y76467D01*
X471887Y76466D01*
X472087Y76447D01*
X472279Y76429D01*
X472283Y76430D01*
X472288Y76429D01*
X472489Y76451D01*
X472679Y76471D01*
X472684Y76472D01*
X472688Y76473D01*
X472880Y76533D01*
X473064Y76591D01*
X473068Y76593D01*
X473072Y76594D01*
X473246Y76690D01*
X473417Y76784D01*
X473421Y76787D01*
X473424Y76789D01*
X473575Y76916D01*
X473725Y77043D01*
X473728Y77046D01*
X473731Y77049D01*
X473854Y77205D01*
X473976Y77358D01*
X473978Y77362D01*
X473981Y77365D01*
X474069Y77539D01*
X474160Y77716D01*
X474161Y77720D01*
X474163Y77724D01*
X474216Y77915D01*
X474270Y78103D01*
X474270Y78108D01*
X474271Y78112D01*
X474286Y78309D01*
X474301Y78505D01*
X474300Y78509D01*
X474301Y78514D01*
X474276Y78710D01*
X474252Y78904D01*
X474251Y78909D01*
X474250Y78913D01*
X474188Y79100D01*
X474126Y79287D01*
X474124Y79291D01*
X474122Y79295D01*
X474024Y79465D01*
X473926Y79636D01*
X473923Y79640D01*
X473921Y79644D01*
X473707Y79897D01*
X469939Y83664D01*
X469918Y83681D01*
X469901Y83702D01*
X469763Y83809D01*
X469627Y83919D01*
X469604Y83932D01*
X469583Y83948D01*
X469426Y84026D01*
X469272Y84108D01*
X469246Y84116D01*
X469222Y84128D01*
X469053Y84173D01*
X468886Y84223D01*
X468859Y84225D01*
X468833Y84232D01*
X468503Y84259D01*
X454248Y84259D01*
X452759Y85748D01*
X452759Y96852D01*
X454248Y98341D01*
X475352Y98341D01*
X476841Y96852D01*
X476841Y90537D01*
X476843Y90511D01*
X476841Y90484D01*
X476863Y90310D01*
X476881Y90137D01*
X476888Y90111D01*
X476892Y90085D01*
X476947Y89919D01*
X476999Y89752D01*
X477012Y89728D01*
X477020Y89703D01*
X477107Y89551D01*
X477191Y89398D01*
X477208Y89377D01*
X477221Y89354D01*
X477436Y89101D01*
X488987Y77550D01*
X489507Y76295D01*
X489517Y76275D01*
X489524Y76254D01*
X489612Y76098D01*
X489697Y75940D01*
X489711Y75923D01*
X489722Y75903D01*
X489839Y75768D01*
X489953Y75629D01*
X489971Y75615D01*
X489985Y75598D01*
X490126Y75489D01*
X490266Y75376D01*
X490286Y75365D01*
X490303Y75352D01*
X490464Y75272D01*
X490622Y75189D01*
X490644Y75182D01*
X490664Y75172D01*
X490837Y75126D01*
X491009Y75076D01*
X491031Y75074D01*
X491053Y75068D01*
X491383Y75041D01*
X494162Y75041D01*
X495651Y73552D01*
X495651Y54869D01*
X495653Y54851D01*
X495651Y54833D01*
X495672Y54651D01*
X495691Y54468D01*
X495696Y54451D01*
X495698Y54433D01*
X495755Y54259D01*
X495809Y54083D01*
X495817Y54068D01*
X495823Y54051D01*
X495913Y53890D01*
X496001Y53729D01*
X496012Y53716D01*
X496021Y53700D01*
X496141Y53561D01*
X496258Y53420D01*
X496272Y53409D01*
X496284Y53395D01*
X496429Y53283D01*
X496572Y53168D01*
X496588Y53159D01*
X496602Y53148D01*
X496767Y53066D01*
X496929Y52982D01*
X496946Y52977D01*
X496962Y52969D01*
X497141Y52921D01*
X497316Y52871D01*
X497334Y52869D01*
X497351Y52865D01*
X497682Y52838D01*
X500538Y52838D01*
X500556Y52839D01*
X500574Y52838D01*
X500756Y52859D01*
X500939Y52877D01*
X500956Y52883D01*
X500973Y52885D01*
X501148Y52942D01*
X501324Y52996D01*
X501339Y53004D01*
X501356Y53010D01*
X501516Y53100D01*
X501678Y53187D01*
X501691Y53199D01*
X501707Y53208D01*
X501846Y53328D01*
X501987Y53445D01*
X501998Y53459D01*
X502012Y53471D01*
X502124Y53616D01*
X502239Y53759D01*
X502247Y53775D01*
X502258Y53789D01*
X502340Y53954D01*
X502425Y54116D01*
X502430Y54133D01*
X502438Y54149D01*
X502485Y54327D01*
X502536Y54503D01*
X502538Y54521D01*
X502542Y54538D01*
X502569Y54869D01*
X502569Y59501D01*
X511142Y59501D01*
X511160Y59502D01*
X511177Y59501D01*
X511360Y59522D01*
X511542Y59541D01*
X511559Y59546D01*
X511577Y59548D01*
X511752Y59605D01*
X511927Y59659D01*
X511943Y59667D01*
X511960Y59673D01*
X512120Y59763D01*
X512281Y59850D01*
X512295Y59862D01*
X512311Y59871D01*
X512450Y59991D01*
X512591Y60108D01*
X512602Y60122D01*
X512615Y60134D01*
X512728Y60279D01*
X512843Y60422D01*
X512851Y60438D01*
X512862Y60452D01*
X512944Y60617D01*
X513028Y60779D01*
X513033Y60796D01*
X513041Y60812D01*
X513089Y60991D01*
X513108Y61055D01*
X513151Y60922D01*
X513205Y60746D01*
X513213Y60731D01*
X513219Y60714D01*
X513309Y60554D01*
X513397Y60392D01*
X513408Y60379D01*
X513417Y60363D01*
X513537Y60224D01*
X513655Y60083D01*
X513668Y60072D01*
X513680Y60058D01*
X513825Y59946D01*
X513968Y59831D01*
X513984Y59823D01*
X513998Y59812D01*
X514163Y59730D01*
X514326Y59645D01*
X514343Y59640D01*
X514359Y59632D01*
X514537Y59584D01*
X514712Y59534D01*
X514730Y59532D01*
X514747Y59528D01*
X515078Y59501D01*
X523651Y59501D01*
X523651Y54869D01*
X523653Y54851D01*
X523651Y54833D01*
X523672Y54651D01*
X523691Y54468D01*
X523696Y54451D01*
X523698Y54433D01*
X523755Y54259D01*
X523809Y54083D01*
X523817Y54068D01*
X523823Y54051D01*
X523913Y53890D01*
X524001Y53729D01*
X524012Y53716D01*
X524021Y53700D01*
X524141Y53561D01*
X524258Y53420D01*
X524272Y53409D01*
X524284Y53395D01*
X524429Y53283D01*
X524572Y53168D01*
X524588Y53159D01*
X524602Y53148D01*
X524767Y53066D01*
X524929Y52982D01*
X524946Y52977D01*
X524962Y52969D01*
X525141Y52921D01*
X525316Y52871D01*
X525334Y52869D01*
X525351Y52865D01*
X525682Y52838D01*
X587192Y52838D01*
X589871Y50159D01*
X603060Y36970D01*
X603077Y36956D01*
X603091Y36939D01*
X603233Y36829D01*
X603371Y36715D01*
X603391Y36705D01*
X603408Y36691D01*
X603569Y36610D01*
X603727Y36527D01*
X603748Y36520D01*
X603768Y36510D01*
X603941Y36463D01*
X604113Y36412D01*
X604135Y36410D01*
X604156Y36404D01*
X604334Y36392D01*
X604514Y36376D01*
X604536Y36378D01*
X604558Y36376D01*
X604735Y36400D01*
X604914Y36419D01*
X604935Y36426D01*
X604957Y36429D01*
X605273Y36530D01*
X607225Y37339D01*
X611975Y37339D01*
X616363Y35521D01*
X619721Y32163D01*
X621539Y27775D01*
X621539Y23025D01*
X619721Y18637D01*
X616363Y15279D01*
X611975Y13461D01*
X607225Y13461D01*
X602837Y15279D01*
X599479Y18637D01*
X598777Y20333D01*
X598772Y20340D01*
X598770Y20349D01*
X598677Y20519D01*
X598586Y20687D01*
X598581Y20694D01*
X598576Y20702D01*
X598452Y20851D01*
X598330Y20998D01*
X598323Y21003D01*
X598317Y21010D01*
X598166Y21131D01*
X598017Y21252D01*
X598010Y21256D01*
X598002Y21261D01*
X597830Y21350D01*
X597661Y21439D01*
X597652Y21441D01*
X597644Y21445D01*
X597460Y21497D01*
X597274Y21552D01*
X597265Y21552D01*
X597257Y21555D01*
X597066Y21570D01*
X596873Y21586D01*
X596864Y21585D01*
X596856Y21586D01*
X596664Y21563D01*
X596473Y21541D01*
X596465Y21538D01*
X596456Y21537D01*
X596274Y21477D01*
X596090Y21418D01*
X596082Y21414D01*
X596074Y21411D01*
X595908Y21316D01*
X595738Y21222D01*
X595732Y21216D01*
X595724Y21211D01*
X595580Y21086D01*
X595433Y20960D01*
X595427Y20953D01*
X595420Y20947D01*
X595303Y20795D01*
X595184Y20643D01*
X595180Y20635D01*
X595175Y20628D01*
X595023Y20333D01*
X594321Y18637D01*
X590963Y15279D01*
X586575Y13461D01*
X581825Y13461D01*
X577437Y15279D01*
X574079Y18637D01*
X573377Y20333D01*
X573372Y20340D01*
X573370Y20349D01*
X573278Y20517D01*
X573186Y20687D01*
X573181Y20694D01*
X573176Y20702D01*
X573053Y20849D01*
X572930Y20998D01*
X572923Y21003D01*
X572917Y21010D01*
X572767Y21130D01*
X572617Y21252D01*
X572609Y21256D01*
X572603Y21261D01*
X572432Y21349D01*
X572261Y21439D01*
X572252Y21441D01*
X572244Y21445D01*
X572061Y21497D01*
X571875Y21552D01*
X571865Y21552D01*
X571857Y21555D01*
X571666Y21570D01*
X571473Y21586D01*
X571464Y21585D01*
X571456Y21586D01*
X571265Y21563D01*
X571073Y21541D01*
X571065Y21538D01*
X571056Y21537D01*
X570873Y21477D01*
X570690Y21418D01*
X570682Y21414D01*
X570674Y21411D01*
X570506Y21315D01*
X570339Y21222D01*
X570332Y21216D01*
X570324Y21211D01*
X570179Y21085D01*
X570033Y20960D01*
X570027Y20953D01*
X570020Y20947D01*
X569903Y20794D01*
X569784Y20643D01*
X569780Y20635D01*
X569775Y20628D01*
X569623Y20333D01*
X568921Y18637D01*
X565563Y15279D01*
X561175Y13461D01*
X556425Y13461D01*
X552037Y15279D01*
X548679Y18637D01*
X547977Y20333D01*
X547972Y20340D01*
X547970Y20349D01*
X547878Y20517D01*
X547786Y20687D01*
X547781Y20694D01*
X547776Y20702D01*
X547653Y20849D01*
X547530Y20998D01*
X547523Y21003D01*
X547517Y21010D01*
X547367Y21130D01*
X547217Y21252D01*
X547209Y21256D01*
X547203Y21261D01*
X547032Y21349D01*
X546861Y21439D01*
X546852Y21441D01*
X546844Y21445D01*
X546661Y21497D01*
X546475Y21552D01*
X546465Y21552D01*
X546457Y21555D01*
X546266Y21570D01*
X546073Y21586D01*
X546064Y21585D01*
X546056Y21586D01*
X545865Y21563D01*
X545673Y21541D01*
X545665Y21538D01*
X545656Y21537D01*
X545473Y21477D01*
X545290Y21418D01*
X545282Y21414D01*
X545274Y21411D01*
X545106Y21315D01*
X544939Y21222D01*
X544932Y21216D01*
X544924Y21211D01*
X544779Y21085D01*
X544633Y20960D01*
X544627Y20953D01*
X544620Y20947D01*
X544503Y20794D01*
X544384Y20643D01*
X544380Y20635D01*
X544375Y20628D01*
X544223Y20333D01*
X543521Y18637D01*
X540163Y15279D01*
X535775Y13461D01*
X531025Y13461D01*
X526637Y15279D01*
X523279Y18637D01*
X522577Y20333D01*
X522572Y20340D01*
X522570Y20349D01*
X522478Y20517D01*
X522386Y20687D01*
X522381Y20694D01*
X522376Y20702D01*
X522253Y20849D01*
X522130Y20998D01*
X522123Y21003D01*
X522117Y21010D01*
X521967Y21130D01*
X521817Y21252D01*
X521809Y21256D01*
X521803Y21261D01*
X521632Y21349D01*
X521461Y21439D01*
X521452Y21441D01*
X521444Y21445D01*
X521261Y21497D01*
X521075Y21552D01*
X521065Y21552D01*
X521057Y21555D01*
X520866Y21570D01*
X520673Y21586D01*
X520664Y21585D01*
X520656Y21586D01*
X520465Y21563D01*
X520273Y21541D01*
X520265Y21538D01*
X520256Y21537D01*
X520073Y21477D01*
X519890Y21418D01*
X519882Y21414D01*
X519874Y21411D01*
X519706Y21315D01*
X519539Y21222D01*
X519532Y21216D01*
X519524Y21211D01*
X519379Y21085D01*
X519233Y20960D01*
X519227Y20953D01*
X519220Y20947D01*
X519103Y20794D01*
X518984Y20643D01*
X518980Y20635D01*
X518975Y20628D01*
X518823Y20333D01*
X518121Y18637D01*
X514763Y15279D01*
X510375Y13461D01*
X505625Y13461D01*
X501237Y15279D01*
X497879Y18637D01*
X497177Y20333D01*
X497172Y20340D01*
X497170Y20349D01*
X497078Y20517D01*
X496986Y20687D01*
X496981Y20694D01*
X496976Y20702D01*
X496853Y20849D01*
X496730Y20998D01*
X496723Y21003D01*
X496717Y21010D01*
X496567Y21130D01*
X496417Y21252D01*
X496409Y21256D01*
X496403Y21261D01*
X496232Y21349D01*
X496061Y21439D01*
X496052Y21441D01*
X496044Y21445D01*
X495861Y21497D01*
X495675Y21552D01*
X495665Y21552D01*
X495657Y21555D01*
X495466Y21570D01*
X495273Y21586D01*
X495264Y21585D01*
X495256Y21586D01*
X495065Y21563D01*
X494873Y21541D01*
X494865Y21538D01*
X494856Y21537D01*
X494673Y21477D01*
X494490Y21418D01*
X494482Y21414D01*
X494474Y21411D01*
X494306Y21315D01*
X494139Y21222D01*
X494132Y21216D01*
X494124Y21211D01*
X493979Y21085D01*
X493833Y20960D01*
X493827Y20953D01*
X493820Y20947D01*
X493703Y20794D01*
X493584Y20643D01*
X493580Y20635D01*
X493575Y20628D01*
X493423Y20333D01*
X492721Y18637D01*
X489363Y15279D01*
X484975Y13461D01*
X480225Y13461D01*
X475837Y15279D01*
X472479Y18637D01*
X471777Y20333D01*
X471772Y20340D01*
X471770Y20349D01*
X471678Y20517D01*
X471586Y20687D01*
X471581Y20694D01*
X471576Y20702D01*
X471453Y20849D01*
X471330Y20998D01*
X471323Y21003D01*
X471317Y21010D01*
X471167Y21130D01*
X471017Y21252D01*
X471009Y21256D01*
X471003Y21261D01*
X470832Y21349D01*
X470661Y21439D01*
X470652Y21441D01*
X470644Y21445D01*
X470461Y21497D01*
X470275Y21552D01*
X470265Y21552D01*
X470257Y21555D01*
X470066Y21570D01*
X469873Y21586D01*
X469864Y21585D01*
X469856Y21586D01*
X469665Y21563D01*
X469473Y21541D01*
X469465Y21538D01*
X469456Y21537D01*
X469273Y21477D01*
X469090Y21418D01*
X469082Y21414D01*
X469074Y21411D01*
X468906Y21315D01*
X468739Y21222D01*
X468732Y21216D01*
X468724Y21211D01*
X468579Y21085D01*
X468433Y20960D01*
X468427Y20953D01*
X468420Y20947D01*
X468303Y20794D01*
X468184Y20643D01*
X468180Y20635D01*
X468175Y20628D01*
X468023Y20333D01*
X467321Y18637D01*
X463963Y15279D01*
X459575Y13461D01*
X454825Y13461D01*
X450437Y15279D01*
X447079Y18637D01*
X446377Y20333D01*
X446372Y20340D01*
X446370Y20349D01*
X446278Y20517D01*
X446186Y20687D01*
X446181Y20694D01*
X446176Y20702D01*
X446053Y20849D01*
X445930Y20998D01*
X445923Y21003D01*
X445917Y21010D01*
X445767Y21130D01*
X445617Y21252D01*
X445609Y21256D01*
X445603Y21261D01*
X445432Y21349D01*
X445261Y21439D01*
X445252Y21441D01*
X445244Y21445D01*
X445061Y21497D01*
X444875Y21552D01*
X444865Y21552D01*
X444857Y21555D01*
X444666Y21570D01*
X444473Y21586D01*
X444464Y21585D01*
X444456Y21586D01*
X444265Y21563D01*
X444073Y21541D01*
X444065Y21538D01*
X444056Y21537D01*
X443873Y21477D01*
X443690Y21418D01*
X443682Y21414D01*
X443674Y21411D01*
X443506Y21315D01*
X443339Y21222D01*
X443332Y21216D01*
X443324Y21211D01*
X443179Y21085D01*
X443033Y20960D01*
X443027Y20953D01*
X443020Y20947D01*
X442903Y20794D01*
X442784Y20643D01*
X442780Y20635D01*
X442775Y20628D01*
X442623Y20333D01*
X441921Y18637D01*
X438563Y15279D01*
X434175Y13461D01*
X429425Y13461D01*
X425037Y15279D01*
X421679Y18637D01*
X420977Y20333D01*
X420972Y20340D01*
X420970Y20349D01*
X420878Y20517D01*
X420786Y20687D01*
X420781Y20694D01*
X420776Y20702D01*
X420653Y20849D01*
X420530Y20998D01*
X420523Y21003D01*
X420517Y21010D01*
X420367Y21130D01*
X420217Y21252D01*
X420209Y21256D01*
X420203Y21261D01*
X420032Y21349D01*
X419861Y21439D01*
X419852Y21441D01*
X419844Y21445D01*
X419661Y21497D01*
X419475Y21552D01*
X419465Y21552D01*
X419457Y21555D01*
X419266Y21570D01*
X419073Y21586D01*
X419064Y21585D01*
X419056Y21586D01*
X418865Y21563D01*
X418673Y21541D01*
X418665Y21538D01*
X418656Y21537D01*
X418473Y21477D01*
X418290Y21418D01*
X418282Y21414D01*
X418274Y21411D01*
X418106Y21315D01*
X417939Y21222D01*
X417932Y21216D01*
X417924Y21211D01*
X417779Y21085D01*
X417633Y20960D01*
X417627Y20953D01*
X417620Y20947D01*
X417503Y20794D01*
X417384Y20643D01*
X417380Y20635D01*
X417375Y20628D01*
X417223Y20333D01*
X416521Y18637D01*
X413163Y15279D01*
X408775Y13461D01*
X404025Y13461D01*
X399637Y15279D01*
X396279Y18637D01*
X395577Y20333D01*
X395572Y20340D01*
X395570Y20349D01*
X395478Y20517D01*
X395386Y20687D01*
X395381Y20694D01*
X395376Y20702D01*
X395253Y20849D01*
X395130Y20998D01*
X395123Y21003D01*
X395117Y21010D01*
X394967Y21130D01*
X394817Y21252D01*
X394809Y21256D01*
X394803Y21261D01*
X394632Y21349D01*
X394461Y21439D01*
X394452Y21441D01*
X394444Y21445D01*
X394261Y21497D01*
X394075Y21552D01*
X394065Y21552D01*
X394057Y21555D01*
X393866Y21570D01*
X393673Y21586D01*
X393664Y21585D01*
X393656Y21586D01*
X393465Y21563D01*
X393273Y21541D01*
X393265Y21538D01*
X393256Y21537D01*
X393073Y21477D01*
X392890Y21418D01*
X392882Y21414D01*
X392874Y21411D01*
X392706Y21315D01*
X392539Y21222D01*
X392532Y21216D01*
X392524Y21211D01*
X392379Y21085D01*
X392233Y20960D01*
X392227Y20953D01*
X392220Y20947D01*
X392103Y20794D01*
X391984Y20643D01*
X391980Y20635D01*
X391975Y20628D01*
X391823Y20333D01*
X391121Y18637D01*
X387763Y15279D01*
X383375Y13461D01*
X378625Y13461D01*
X374237Y15279D01*
X370879Y18637D01*
X370177Y20333D01*
X370172Y20340D01*
X370170Y20349D01*
X370078Y20517D01*
X369986Y20687D01*
X369981Y20694D01*
X369976Y20702D01*
X369853Y20849D01*
X369730Y20998D01*
X369723Y21003D01*
X369717Y21010D01*
X369567Y21130D01*
X369417Y21252D01*
X369409Y21256D01*
X369403Y21261D01*
X369232Y21349D01*
X369061Y21439D01*
X369052Y21441D01*
X369044Y21445D01*
X368861Y21497D01*
X368675Y21552D01*
X368665Y21552D01*
X368657Y21555D01*
X368466Y21570D01*
X368273Y21586D01*
X368264Y21585D01*
X368256Y21586D01*
X368065Y21563D01*
X367873Y21541D01*
X367865Y21538D01*
X367856Y21537D01*
X367673Y21477D01*
X367490Y21418D01*
X367482Y21414D01*
X367474Y21411D01*
X367306Y21315D01*
X367139Y21222D01*
X367132Y21216D01*
X367124Y21211D01*
X366979Y21085D01*
X366833Y20960D01*
X366827Y20953D01*
X366820Y20947D01*
X366703Y20794D01*
X366584Y20643D01*
X366580Y20635D01*
X366575Y20628D01*
X366423Y20333D01*
X365721Y18637D01*
X362363Y15279D01*
X357975Y13461D01*
X353225Y13461D01*
X348837Y15279D01*
X345479Y18637D01*
X344777Y20333D01*
X344772Y20340D01*
X344770Y20349D01*
X344678Y20517D01*
X344586Y20687D01*
X344581Y20694D01*
X344576Y20702D01*
X344453Y20849D01*
X344330Y20998D01*
X344323Y21003D01*
X344317Y21010D01*
X344167Y21130D01*
X344017Y21252D01*
X344009Y21256D01*
X344003Y21261D01*
X343832Y21349D01*
X343661Y21439D01*
X343652Y21441D01*
X343644Y21445D01*
X343461Y21497D01*
X343275Y21552D01*
X343265Y21552D01*
X343257Y21555D01*
X343066Y21570D01*
X342873Y21586D01*
X342864Y21585D01*
X342856Y21586D01*
X342665Y21563D01*
X342473Y21541D01*
X342465Y21538D01*
X342456Y21537D01*
X342273Y21477D01*
X342090Y21418D01*
X342082Y21414D01*
X342074Y21411D01*
X341906Y21315D01*
X341739Y21222D01*
X341732Y21216D01*
X341724Y21211D01*
X341579Y21085D01*
X341433Y20960D01*
X341427Y20953D01*
X341420Y20947D01*
X341303Y20794D01*
X341184Y20643D01*
X341180Y20635D01*
X341175Y20628D01*
X341023Y20333D01*
X340321Y18637D01*
X336963Y15279D01*
X332575Y13461D01*
X327825Y13461D01*
X323437Y15279D01*
X320079Y18637D01*
X319377Y20333D01*
X319372Y20340D01*
X319370Y20349D01*
X319278Y20517D01*
X319186Y20687D01*
X319181Y20694D01*
X319176Y20702D01*
X319053Y20849D01*
X318930Y20998D01*
X318923Y21003D01*
X318917Y21010D01*
X318767Y21130D01*
X318617Y21252D01*
X318609Y21256D01*
X318603Y21261D01*
X318432Y21349D01*
X318261Y21439D01*
X318252Y21441D01*
X318244Y21445D01*
X318061Y21497D01*
X317875Y21552D01*
X317865Y21552D01*
X317857Y21555D01*
X317666Y21570D01*
X317473Y21586D01*
X317464Y21585D01*
X317456Y21586D01*
X317265Y21563D01*
X317073Y21541D01*
X317065Y21538D01*
X317056Y21537D01*
X316873Y21477D01*
X316690Y21418D01*
X316682Y21414D01*
X316674Y21411D01*
X316506Y21315D01*
X316339Y21222D01*
X316332Y21216D01*
X316324Y21211D01*
X316179Y21085D01*
X316033Y20960D01*
X316027Y20953D01*
X316020Y20947D01*
X315903Y20794D01*
X315784Y20643D01*
X315780Y20635D01*
X315775Y20628D01*
X315623Y20333D01*
X314921Y18637D01*
X311563Y15279D01*
X307175Y13461D01*
X302425Y13461D01*
X298037Y15279D01*
X294679Y18637D01*
X293977Y20333D01*
X293972Y20340D01*
X293970Y20349D01*
X293878Y20517D01*
X293786Y20687D01*
X293781Y20694D01*
X293776Y20702D01*
X293653Y20849D01*
X293530Y20998D01*
X293523Y21003D01*
X293517Y21010D01*
X293367Y21130D01*
X293217Y21252D01*
X293209Y21256D01*
X293203Y21261D01*
X293032Y21349D01*
X292861Y21439D01*
X292852Y21441D01*
X292844Y21445D01*
X292661Y21497D01*
X292475Y21552D01*
X292465Y21552D01*
X292457Y21555D01*
X292266Y21570D01*
X292073Y21586D01*
X292064Y21585D01*
X292056Y21586D01*
X291865Y21563D01*
X291673Y21541D01*
X291665Y21538D01*
X291656Y21537D01*
X291473Y21477D01*
X291290Y21418D01*
X291282Y21414D01*
X291274Y21411D01*
X291106Y21315D01*
X290939Y21222D01*
X290932Y21216D01*
X290924Y21211D01*
X290779Y21085D01*
X290633Y20960D01*
X290627Y20953D01*
X290620Y20947D01*
X290503Y20794D01*
X290384Y20643D01*
X290380Y20635D01*
X290375Y20628D01*
X290223Y20333D01*
X289521Y18637D01*
X286163Y15279D01*
X281775Y13461D01*
X277025Y13461D01*
X272637Y15279D01*
X269279Y18637D01*
X268577Y20333D01*
X268572Y20340D01*
X268570Y20349D01*
X268478Y20517D01*
X268386Y20687D01*
X268381Y20694D01*
X268376Y20702D01*
X268253Y20849D01*
X268130Y20998D01*
X268123Y21003D01*
X268117Y21010D01*
X267967Y21130D01*
X267817Y21252D01*
X267809Y21256D01*
X267803Y21261D01*
X267632Y21349D01*
X267461Y21439D01*
X267452Y21441D01*
X267444Y21445D01*
X267261Y21497D01*
X267075Y21552D01*
X267065Y21552D01*
X267057Y21555D01*
X266866Y21570D01*
X266673Y21586D01*
X266664Y21585D01*
X266656Y21586D01*
X266465Y21563D01*
X266273Y21541D01*
X266265Y21538D01*
X266256Y21537D01*
X266073Y21477D01*
X265890Y21418D01*
X265882Y21414D01*
X265874Y21411D01*
X265706Y21315D01*
X265539Y21222D01*
X265532Y21216D01*
X265524Y21211D01*
X265379Y21085D01*
X265233Y20960D01*
X265227Y20953D01*
X265220Y20947D01*
X265103Y20794D01*
X264984Y20643D01*
X264980Y20635D01*
X264975Y20628D01*
X264823Y20333D01*
X264121Y18637D01*
X260763Y15279D01*
X256375Y13461D01*
X251625Y13461D01*
X247237Y15279D01*
X243879Y18637D01*
X243177Y20333D01*
X243172Y20340D01*
X243170Y20349D01*
X243078Y20517D01*
X242986Y20687D01*
X242981Y20694D01*
X242976Y20702D01*
X242853Y20849D01*
X242730Y20998D01*
X242723Y21003D01*
X242717Y21010D01*
X242567Y21130D01*
X242417Y21252D01*
X242409Y21256D01*
X242403Y21261D01*
X242232Y21349D01*
X242061Y21439D01*
X242052Y21441D01*
X242044Y21445D01*
X241861Y21497D01*
X241675Y21552D01*
X241665Y21552D01*
X241657Y21555D01*
X241466Y21570D01*
X241273Y21586D01*
X241264Y21585D01*
X241256Y21586D01*
X241065Y21563D01*
X240873Y21541D01*
X240865Y21538D01*
X240856Y21537D01*
X240673Y21477D01*
X240490Y21418D01*
X240482Y21414D01*
X240474Y21411D01*
X240306Y21315D01*
X240139Y21222D01*
X240132Y21216D01*
X240124Y21211D01*
X239979Y21085D01*
X239833Y20960D01*
X239827Y20953D01*
X239820Y20947D01*
X239703Y20794D01*
X239584Y20643D01*
X239580Y20635D01*
X239575Y20628D01*
X239423Y20333D01*
X238721Y18637D01*
X235363Y15279D01*
X230975Y13461D01*
X226225Y13461D01*
X221837Y15279D01*
X218479Y18637D01*
X217777Y20333D01*
X217772Y20340D01*
X217770Y20349D01*
X217677Y20518D01*
X217586Y20687D01*
X217581Y20694D01*
X217577Y20702D01*
X217453Y20849D01*
X217330Y20998D01*
X217323Y21003D01*
X217317Y21010D01*
X217166Y21131D01*
X217017Y21251D01*
X217010Y21256D01*
X217003Y21261D01*
X216830Y21350D01*
X216661Y21439D01*
X216652Y21441D01*
X216644Y21445D01*
X216459Y21498D01*
X216274Y21552D01*
X216266Y21552D01*
X216257Y21555D01*
X216066Y21570D01*
X215873Y21586D01*
X215864Y21585D01*
X215856Y21586D01*
X215663Y21563D01*
X215473Y21541D01*
X215465Y21538D01*
X215456Y21537D01*
X215271Y21476D01*
X215090Y21418D01*
X215082Y21414D01*
X215074Y21411D01*
X214906Y21315D01*
X214738Y21222D01*
X214732Y21216D01*
X214724Y21211D01*
X214580Y21086D01*
X214433Y20960D01*
X214427Y20953D01*
X214420Y20947D01*
X214304Y20795D01*
X214184Y20643D01*
X214180Y20635D01*
X214175Y20628D01*
X214023Y20333D01*
X213321Y18637D01*
X209963Y15279D01*
X205575Y13461D01*
X200825Y13461D01*
X196437Y15279D01*
X193079Y18637D01*
X192377Y20333D01*
X192372Y20340D01*
X192370Y20349D01*
X192277Y20518D01*
X192186Y20687D01*
X192181Y20694D01*
X192177Y20702D01*
X192053Y20849D01*
X191930Y20998D01*
X191923Y21003D01*
X191917Y21010D01*
X191766Y21131D01*
X191617Y21251D01*
X191610Y21256D01*
X191603Y21261D01*
X191430Y21350D01*
X191261Y21439D01*
X191252Y21441D01*
X191244Y21445D01*
X191059Y21498D01*
X190874Y21552D01*
X190866Y21552D01*
X190857Y21555D01*
X190666Y21570D01*
X190473Y21586D01*
X190464Y21585D01*
X190456Y21586D01*
X190263Y21563D01*
X190073Y21541D01*
X190065Y21538D01*
X190056Y21537D01*
X189871Y21476D01*
X189690Y21418D01*
X189682Y21414D01*
X189674Y21411D01*
X189506Y21315D01*
X189338Y21222D01*
X189332Y21216D01*
X189324Y21211D01*
X189180Y21086D01*
X189033Y20960D01*
X189027Y20953D01*
X189020Y20947D01*
X188904Y20795D01*
X188784Y20643D01*
X188780Y20635D01*
X188775Y20628D01*
X188623Y20333D01*
X187921Y18637D01*
X184563Y15279D01*
X180175Y13461D01*
X175425Y13461D01*
X171037Y15279D01*
X167679Y18637D01*
X166977Y20333D01*
X166972Y20340D01*
X166970Y20349D01*
X166877Y20518D01*
X166786Y20687D01*
X166781Y20694D01*
X166777Y20702D01*
X166653Y20849D01*
X166530Y20998D01*
X166523Y21003D01*
X166517Y21010D01*
X166366Y21131D01*
X166217Y21251D01*
X166210Y21256D01*
X166203Y21261D01*
X166030Y21350D01*
X165861Y21439D01*
X165852Y21441D01*
X165844Y21445D01*
X165659Y21498D01*
X165474Y21552D01*
X165466Y21552D01*
X165457Y21555D01*
X165266Y21570D01*
X165073Y21586D01*
X165064Y21585D01*
X165056Y21586D01*
X164863Y21563D01*
X164673Y21541D01*
X164665Y21538D01*
X164656Y21537D01*
X164471Y21476D01*
X164290Y21418D01*
X164282Y21414D01*
X164274Y21411D01*
X164106Y21315D01*
X163938Y21222D01*
X163932Y21216D01*
X163924Y21211D01*
X163780Y21086D01*
X163633Y20960D01*
X163627Y20953D01*
X163620Y20947D01*
X163504Y20795D01*
X163384Y20643D01*
X163380Y20635D01*
X163375Y20628D01*
X163223Y20333D01*
X162521Y18637D01*
X159163Y15279D01*
X154775Y13461D01*
X150025Y13461D01*
X145637Y15279D01*
X142279Y18637D01*
X141577Y20333D01*
X141572Y20340D01*
X141570Y20349D01*
X141477Y20518D01*
X141386Y20687D01*
X141381Y20694D01*
X141377Y20702D01*
X141253Y20849D01*
X141130Y20998D01*
X141123Y21003D01*
X141117Y21010D01*
X140966Y21131D01*
X140817Y21251D01*
X140810Y21256D01*
X140803Y21261D01*
X140630Y21350D01*
X140461Y21439D01*
X140452Y21441D01*
X140444Y21445D01*
X140259Y21498D01*
X140074Y21552D01*
X140066Y21552D01*
X140057Y21555D01*
X139866Y21570D01*
X139673Y21586D01*
X139664Y21585D01*
X139656Y21586D01*
X139463Y21563D01*
X139273Y21541D01*
X139265Y21538D01*
X139256Y21537D01*
X139071Y21476D01*
X138890Y21418D01*
X138882Y21414D01*
X138874Y21411D01*
X138706Y21315D01*
X138538Y21222D01*
X138532Y21216D01*
X138524Y21211D01*
X138380Y21086D01*
X138233Y20960D01*
X138227Y20953D01*
X138220Y20947D01*
X138104Y20795D01*
X137984Y20643D01*
X137980Y20635D01*
X137975Y20628D01*
X137823Y20333D01*
X137121Y18637D01*
X133763Y15279D01*
X129375Y13461D01*
X124625Y13461D01*
X120237Y15279D01*
X116879Y18637D01*
X116177Y20333D01*
X116172Y20340D01*
X116170Y20349D01*
X116077Y20518D01*
X115986Y20687D01*
X115981Y20694D01*
X115977Y20702D01*
X115853Y20849D01*
X115730Y20998D01*
X115723Y21003D01*
X115717Y21010D01*
X115566Y21131D01*
X115417Y21251D01*
X115410Y21256D01*
X115403Y21261D01*
X115230Y21350D01*
X115061Y21439D01*
X115052Y21441D01*
X115044Y21445D01*
X114859Y21498D01*
X114674Y21552D01*
X114666Y21552D01*
X114657Y21555D01*
X114466Y21570D01*
X114273Y21586D01*
X114264Y21585D01*
X114256Y21586D01*
X114063Y21563D01*
X113873Y21541D01*
X113865Y21538D01*
X113856Y21537D01*
X113671Y21476D01*
X113490Y21418D01*
X113482Y21414D01*
X113474Y21411D01*
X113306Y21315D01*
X113138Y21222D01*
X113132Y21216D01*
X113124Y21211D01*
X112980Y21086D01*
X112833Y20960D01*
X112827Y20953D01*
X112820Y20947D01*
X112704Y20795D01*
X112584Y20643D01*
X112580Y20635D01*
X112575Y20628D01*
X112423Y20333D01*
X111721Y18637D01*
X108363Y15279D01*
X103975Y13461D01*
X99225Y13461D01*
X94837Y15279D01*
X91479Y18637D01*
X90777Y20333D01*
X90772Y20340D01*
X90770Y20349D01*
X90677Y20518D01*
X90586Y20687D01*
X90581Y20694D01*
X90577Y20702D01*
X90453Y20849D01*
X90330Y20998D01*
X90323Y21003D01*
X90317Y21010D01*
X90166Y21131D01*
X90017Y21251D01*
X90010Y21256D01*
X90003Y21261D01*
X89830Y21350D01*
X89661Y21439D01*
X89652Y21441D01*
X89644Y21445D01*
X89459Y21498D01*
X89274Y21552D01*
X89266Y21552D01*
X89257Y21555D01*
X89066Y21570D01*
X88873Y21586D01*
X88864Y21585D01*
X88856Y21586D01*
X88663Y21563D01*
X88473Y21541D01*
X88465Y21538D01*
X88456Y21537D01*
X88271Y21476D01*
X88090Y21418D01*
X88082Y21414D01*
X88074Y21411D01*
X87906Y21315D01*
X87738Y21222D01*
X87732Y21216D01*
X87724Y21211D01*
X87580Y21086D01*
X87433Y20960D01*
X87427Y20953D01*
X87420Y20947D01*
X87304Y20795D01*
X87184Y20643D01*
X87180Y20635D01*
X87175Y20628D01*
X87023Y20333D01*
X86321Y18637D01*
X82963Y15279D01*
X78575Y13461D01*
X73825Y13461D01*
X69437Y15279D01*
X66079Y18637D01*
X65377Y20333D01*
X65372Y20340D01*
X65370Y20349D01*
X65277Y20518D01*
X65186Y20687D01*
X65181Y20694D01*
X65177Y20702D01*
X65053Y20849D01*
X64930Y20998D01*
X64923Y21003D01*
X64917Y21010D01*
X64766Y21131D01*
X64617Y21251D01*
X64610Y21256D01*
X64603Y21261D01*
X64430Y21350D01*
X64261Y21439D01*
X64252Y21441D01*
X64244Y21445D01*
X64059Y21498D01*
X63874Y21552D01*
X63866Y21552D01*
X63857Y21555D01*
X63666Y21570D01*
X63473Y21586D01*
X63464Y21585D01*
X63456Y21586D01*
X63263Y21563D01*
X63073Y21541D01*
X63065Y21538D01*
X63056Y21537D01*
X62871Y21476D01*
X62690Y21418D01*
X62682Y21414D01*
X62674Y21411D01*
X62506Y21315D01*
X62338Y21222D01*
X62332Y21216D01*
X62324Y21211D01*
X62180Y21086D01*
X62033Y20960D01*
X62027Y20953D01*
X62020Y20947D01*
X61904Y20795D01*
X61784Y20643D01*
X61780Y20635D01*
X61775Y20628D01*
X61623Y20333D01*
X60921Y18637D01*
X57563Y15279D01*
X53175Y13461D01*
X48425Y13461D01*
X44037Y15279D01*
X40679Y18637D01*
X39977Y20333D01*
X39972Y20340D01*
X39970Y20349D01*
X39877Y20518D01*
X39786Y20687D01*
X39781Y20694D01*
X39777Y20702D01*
X39653Y20849D01*
X39530Y20998D01*
X39523Y21003D01*
X39517Y21010D01*
X39366Y21131D01*
X39217Y21251D01*
X39210Y21256D01*
X39203Y21261D01*
X39030Y21350D01*
X38861Y21439D01*
X38852Y21441D01*
X38844Y21445D01*
X38659Y21498D01*
X38474Y21552D01*
X38466Y21552D01*
X38457Y21555D01*
X38266Y21570D01*
X38073Y21586D01*
X38064Y21585D01*
X38056Y21586D01*
X37863Y21563D01*
X37673Y21541D01*
X37665Y21538D01*
X37656Y21537D01*
X37471Y21476D01*
X37290Y21418D01*
X37282Y21414D01*
X37274Y21411D01*
X37106Y21315D01*
X36938Y21222D01*
X36932Y21216D01*
X36924Y21211D01*
X36780Y21086D01*
X36633Y20960D01*
X36627Y20953D01*
X36620Y20947D01*
X36504Y20795D01*
X36384Y20643D01*
X36380Y20635D01*
X36375Y20628D01*
X36223Y20333D01*
X35521Y18637D01*
X32163Y15279D01*
X27775Y13461D01*
X23025Y13461D01*
G37*
%LPD*%
%LPC*%
G36*
X575221Y155729D02*
X575221Y155729D01*
X572711Y156769D01*
X570789Y158691D01*
X569749Y161201D01*
X569749Y162083D01*
X569747Y162109D01*
X569749Y162136D01*
X569727Y162310D01*
X569709Y162483D01*
X569702Y162509D01*
X569698Y162535D01*
X569643Y162701D01*
X569591Y162868D01*
X569578Y162892D01*
X569570Y162917D01*
X569483Y163068D01*
X569399Y163222D01*
X569382Y163243D01*
X569369Y163266D01*
X569154Y163519D01*
X540721Y191953D01*
X540703Y191967D01*
X540689Y191984D01*
X540548Y192094D01*
X540409Y192208D01*
X540389Y192218D01*
X540372Y192232D01*
X540211Y192313D01*
X540053Y192396D01*
X540032Y192403D01*
X540012Y192413D01*
X539839Y192460D01*
X539667Y192511D01*
X539645Y192513D01*
X539624Y192519D01*
X539446Y192531D01*
X539266Y192548D01*
X539244Y192545D01*
X539222Y192547D01*
X539045Y192524D01*
X538866Y192504D01*
X538845Y192497D01*
X538823Y192495D01*
X538507Y192393D01*
X535775Y191261D01*
X531025Y191261D01*
X526637Y193079D01*
X523279Y196437D01*
X522577Y198133D01*
X522572Y198140D01*
X522570Y198149D01*
X522477Y198319D01*
X522386Y198487D01*
X522381Y198494D01*
X522376Y198502D01*
X522252Y198651D01*
X522130Y198798D01*
X522123Y198803D01*
X522117Y198810D01*
X521966Y198931D01*
X521817Y199052D01*
X521810Y199056D01*
X521802Y199061D01*
X521630Y199150D01*
X521461Y199239D01*
X521452Y199241D01*
X521444Y199245D01*
X521260Y199297D01*
X521074Y199352D01*
X521065Y199352D01*
X521057Y199355D01*
X520866Y199370D01*
X520673Y199386D01*
X520664Y199385D01*
X520656Y199386D01*
X520464Y199363D01*
X520273Y199341D01*
X520265Y199338D01*
X520256Y199337D01*
X520074Y199277D01*
X519890Y199218D01*
X519882Y199214D01*
X519874Y199211D01*
X519708Y199116D01*
X519538Y199022D01*
X519532Y199016D01*
X519524Y199011D01*
X519380Y198886D01*
X519233Y198760D01*
X519227Y198753D01*
X519220Y198747D01*
X519103Y198595D01*
X518984Y198443D01*
X518980Y198435D01*
X518975Y198428D01*
X518823Y198133D01*
X518121Y196437D01*
X514763Y193079D01*
X510375Y191261D01*
X505625Y191261D01*
X501237Y193079D01*
X497879Y196437D01*
X497177Y198133D01*
X497172Y198140D01*
X497170Y198149D01*
X497077Y198319D01*
X496986Y198487D01*
X496981Y198494D01*
X496976Y198502D01*
X496852Y198651D01*
X496730Y198798D01*
X496723Y198803D01*
X496717Y198810D01*
X496566Y198931D01*
X496417Y199052D01*
X496410Y199056D01*
X496402Y199061D01*
X496230Y199150D01*
X496061Y199239D01*
X496052Y199241D01*
X496044Y199245D01*
X495860Y199297D01*
X495674Y199352D01*
X495665Y199352D01*
X495657Y199355D01*
X495466Y199370D01*
X495273Y199386D01*
X495264Y199385D01*
X495256Y199386D01*
X495064Y199363D01*
X494873Y199341D01*
X494865Y199338D01*
X494856Y199337D01*
X494674Y199277D01*
X494490Y199218D01*
X494482Y199214D01*
X494474Y199211D01*
X494308Y199116D01*
X494138Y199022D01*
X494132Y199016D01*
X494124Y199011D01*
X493980Y198886D01*
X493833Y198760D01*
X493827Y198753D01*
X493820Y198747D01*
X493703Y198595D01*
X493584Y198443D01*
X493580Y198435D01*
X493575Y198428D01*
X493423Y198133D01*
X492721Y196437D01*
X489363Y193079D01*
X484975Y191261D01*
X480225Y191261D01*
X475837Y193079D01*
X472479Y196437D01*
X471777Y198132D01*
X471715Y198247D01*
X471662Y198366D01*
X471620Y198424D01*
X471587Y198487D01*
X471503Y198587D01*
X471427Y198694D01*
X471376Y198742D01*
X471330Y198797D01*
X471229Y198879D01*
X471133Y198969D01*
X471073Y199006D01*
X471018Y199051D01*
X470902Y199111D01*
X470791Y199180D01*
X470724Y199205D01*
X470661Y199238D01*
X470536Y199274D01*
X470413Y199320D01*
X470343Y199331D01*
X470275Y199351D01*
X470145Y199362D01*
X470015Y199382D01*
X469944Y199379D01*
X469874Y199385D01*
X469744Y199371D01*
X469613Y199365D01*
X469544Y199348D01*
X469474Y199340D01*
X469349Y199300D01*
X469222Y199269D01*
X469158Y199239D01*
X469090Y199217D01*
X468976Y199153D01*
X468858Y199098D01*
X468801Y199055D01*
X468739Y199021D01*
X468640Y198936D01*
X468534Y198858D01*
X468487Y198805D01*
X468433Y198759D01*
X468352Y198656D01*
X468265Y198559D01*
X468222Y198489D01*
X468185Y198442D01*
X468151Y198374D01*
X468090Y198276D01*
X467411Y196943D01*
X466306Y195422D01*
X464978Y194094D01*
X463457Y192989D01*
X461783Y192136D01*
X459996Y191555D01*
X459739Y191515D01*
X459739Y202692D01*
X459737Y202710D01*
X459739Y202727D01*
X459718Y202910D01*
X459699Y203092D01*
X459694Y203109D01*
X459692Y203127D01*
X459667Y203205D01*
X459706Y203342D01*
X459708Y203360D01*
X459712Y203377D01*
X459739Y203708D01*
X459739Y214885D01*
X459996Y214845D01*
X461783Y214264D01*
X463457Y213411D01*
X464978Y212306D01*
X466306Y210978D01*
X467411Y209457D01*
X468090Y208124D01*
X468161Y208013D01*
X468224Y207899D01*
X468270Y207844D01*
X468308Y207785D01*
X468399Y207691D01*
X468483Y207591D01*
X468539Y207546D01*
X468588Y207495D01*
X468696Y207421D01*
X468798Y207340D01*
X468861Y207307D01*
X468919Y207267D01*
X469040Y207215D01*
X469156Y207156D01*
X469224Y207136D01*
X469290Y207108D01*
X469418Y207082D01*
X469543Y207046D01*
X469614Y207041D01*
X469684Y207026D01*
X469815Y207025D01*
X469945Y207015D01*
X470015Y207023D01*
X470086Y207023D01*
X470215Y207048D01*
X470344Y207064D01*
X470412Y207086D01*
X470482Y207099D01*
X470603Y207149D01*
X470727Y207190D01*
X470788Y207225D01*
X470854Y207252D01*
X470963Y207325D01*
X471076Y207389D01*
X471130Y207436D01*
X471189Y207476D01*
X471281Y207568D01*
X471380Y207654D01*
X471423Y207710D01*
X471473Y207761D01*
X471546Y207870D01*
X471625Y207973D01*
X471663Y208046D01*
X471696Y208096D01*
X471725Y208167D01*
X471777Y208268D01*
X472479Y209963D01*
X475837Y213321D01*
X480225Y215139D01*
X484975Y215139D01*
X489363Y213321D01*
X492721Y209963D01*
X493423Y208267D01*
X493428Y208260D01*
X493430Y208251D01*
X493522Y208083D01*
X493614Y207913D01*
X493619Y207906D01*
X493624Y207898D01*
X493747Y207751D01*
X493870Y207602D01*
X493877Y207597D01*
X493883Y207590D01*
X494033Y207470D01*
X494183Y207348D01*
X494191Y207344D01*
X494197Y207339D01*
X494368Y207251D01*
X494539Y207161D01*
X494548Y207159D01*
X494556Y207155D01*
X494739Y207103D01*
X494925Y207048D01*
X494935Y207048D01*
X494943Y207045D01*
X495134Y207030D01*
X495327Y207014D01*
X495336Y207015D01*
X495344Y207014D01*
X495535Y207037D01*
X495727Y207059D01*
X495735Y207062D01*
X495744Y207063D01*
X495927Y207123D01*
X496110Y207182D01*
X496118Y207186D01*
X496126Y207189D01*
X496294Y207285D01*
X496461Y207378D01*
X496468Y207384D01*
X496476Y207389D01*
X496621Y207515D01*
X496767Y207640D01*
X496773Y207647D01*
X496780Y207653D01*
X496897Y207806D01*
X497016Y207957D01*
X497020Y207965D01*
X497025Y207972D01*
X497177Y208267D01*
X497879Y209963D01*
X501237Y213321D01*
X505625Y215139D01*
X510375Y215139D01*
X514763Y213321D01*
X518121Y209963D01*
X518823Y208267D01*
X518828Y208260D01*
X518830Y208251D01*
X518922Y208083D01*
X519014Y207913D01*
X519019Y207906D01*
X519024Y207898D01*
X519147Y207751D01*
X519270Y207602D01*
X519277Y207597D01*
X519283Y207590D01*
X519433Y207470D01*
X519583Y207348D01*
X519591Y207344D01*
X519597Y207339D01*
X519768Y207251D01*
X519939Y207161D01*
X519948Y207159D01*
X519956Y207155D01*
X520139Y207103D01*
X520325Y207048D01*
X520335Y207048D01*
X520343Y207045D01*
X520534Y207030D01*
X520727Y207014D01*
X520736Y207015D01*
X520744Y207014D01*
X520935Y207037D01*
X521127Y207059D01*
X521135Y207062D01*
X521144Y207063D01*
X521327Y207123D01*
X521510Y207182D01*
X521518Y207186D01*
X521526Y207189D01*
X521694Y207285D01*
X521861Y207378D01*
X521868Y207384D01*
X521876Y207389D01*
X522021Y207515D01*
X522167Y207640D01*
X522173Y207647D01*
X522180Y207653D01*
X522297Y207806D01*
X522416Y207957D01*
X522420Y207965D01*
X522425Y207972D01*
X522577Y208267D01*
X523279Y209963D01*
X526637Y213321D01*
X531025Y215139D01*
X535775Y215139D01*
X540163Y213321D01*
X543521Y209963D01*
X544223Y208267D01*
X544228Y208260D01*
X544230Y208251D01*
X544322Y208083D01*
X544414Y207913D01*
X544419Y207906D01*
X544424Y207898D01*
X544547Y207751D01*
X544670Y207602D01*
X544677Y207597D01*
X544683Y207590D01*
X544833Y207470D01*
X544983Y207348D01*
X544991Y207344D01*
X544997Y207339D01*
X545168Y207251D01*
X545339Y207161D01*
X545348Y207159D01*
X545356Y207155D01*
X545539Y207103D01*
X545725Y207048D01*
X545735Y207048D01*
X545743Y207045D01*
X545934Y207030D01*
X546127Y207014D01*
X546136Y207015D01*
X546144Y207014D01*
X546335Y207037D01*
X546527Y207059D01*
X546535Y207062D01*
X546544Y207063D01*
X546727Y207123D01*
X546910Y207182D01*
X546918Y207186D01*
X546926Y207189D01*
X547094Y207285D01*
X547261Y207378D01*
X547268Y207384D01*
X547276Y207389D01*
X547421Y207515D01*
X547567Y207640D01*
X547573Y207647D01*
X547580Y207653D01*
X547697Y207806D01*
X547816Y207957D01*
X547820Y207965D01*
X547825Y207972D01*
X547977Y208267D01*
X548679Y209963D01*
X552037Y213321D01*
X556425Y215139D01*
X561175Y215139D01*
X565563Y213321D01*
X568921Y209963D01*
X569623Y208267D01*
X569628Y208260D01*
X569630Y208251D01*
X569722Y208083D01*
X569814Y207913D01*
X569819Y207906D01*
X569824Y207898D01*
X569947Y207751D01*
X570070Y207602D01*
X570077Y207597D01*
X570083Y207590D01*
X570233Y207470D01*
X570383Y207348D01*
X570391Y207344D01*
X570397Y207339D01*
X570568Y207251D01*
X570739Y207161D01*
X570748Y207159D01*
X570756Y207155D01*
X570939Y207103D01*
X571125Y207048D01*
X571135Y207048D01*
X571143Y207045D01*
X571334Y207030D01*
X571527Y207014D01*
X571536Y207015D01*
X571544Y207014D01*
X571735Y207037D01*
X571927Y207059D01*
X571935Y207062D01*
X571944Y207063D01*
X572127Y207123D01*
X572310Y207182D01*
X572318Y207186D01*
X572326Y207189D01*
X572494Y207285D01*
X572661Y207378D01*
X572668Y207384D01*
X572676Y207389D01*
X572821Y207515D01*
X572967Y207640D01*
X572973Y207647D01*
X572980Y207653D01*
X573097Y207806D01*
X573216Y207957D01*
X573220Y207965D01*
X573225Y207972D01*
X573377Y208267D01*
X574079Y209963D01*
X577437Y213321D01*
X581825Y215139D01*
X586575Y215139D01*
X590963Y213321D01*
X594321Y209963D01*
X595023Y208267D01*
X595028Y208260D01*
X595030Y208251D01*
X595122Y208083D01*
X595214Y207913D01*
X595219Y207906D01*
X595224Y207898D01*
X595347Y207751D01*
X595470Y207602D01*
X595477Y207597D01*
X595483Y207590D01*
X595633Y207470D01*
X595783Y207348D01*
X595791Y207344D01*
X595797Y207339D01*
X595968Y207251D01*
X596139Y207161D01*
X596148Y207159D01*
X596156Y207155D01*
X596339Y207103D01*
X596525Y207048D01*
X596535Y207048D01*
X596543Y207045D01*
X596734Y207030D01*
X596927Y207014D01*
X596936Y207015D01*
X596944Y207014D01*
X597135Y207037D01*
X597327Y207059D01*
X597335Y207062D01*
X597344Y207063D01*
X597527Y207123D01*
X597710Y207182D01*
X597718Y207186D01*
X597726Y207189D01*
X597894Y207285D01*
X598061Y207378D01*
X598068Y207384D01*
X598076Y207389D01*
X598221Y207515D01*
X598367Y207640D01*
X598373Y207647D01*
X598380Y207653D01*
X598497Y207806D01*
X598616Y207957D01*
X598620Y207965D01*
X598625Y207972D01*
X598777Y208267D01*
X599479Y209963D01*
X602837Y213321D01*
X607225Y215139D01*
X611975Y215139D01*
X616363Y213321D01*
X619721Y209963D01*
X621539Y205575D01*
X621539Y200825D01*
X619721Y196437D01*
X616363Y193079D01*
X611975Y191261D01*
X607225Y191261D01*
X602837Y193079D01*
X599479Y196437D01*
X598777Y198133D01*
X598772Y198140D01*
X598770Y198149D01*
X598677Y198319D01*
X598586Y198487D01*
X598581Y198494D01*
X598576Y198502D01*
X598452Y198651D01*
X598330Y198798D01*
X598323Y198803D01*
X598317Y198810D01*
X598166Y198931D01*
X598017Y199052D01*
X598010Y199056D01*
X598002Y199061D01*
X597830Y199150D01*
X597661Y199239D01*
X597652Y199241D01*
X597644Y199245D01*
X597460Y199297D01*
X597274Y199352D01*
X597265Y199352D01*
X597257Y199355D01*
X597066Y199370D01*
X596873Y199386D01*
X596864Y199385D01*
X596856Y199386D01*
X596664Y199363D01*
X596473Y199341D01*
X596465Y199338D01*
X596456Y199337D01*
X596274Y199277D01*
X596090Y199218D01*
X596082Y199214D01*
X596074Y199211D01*
X595908Y199116D01*
X595738Y199022D01*
X595732Y199016D01*
X595724Y199011D01*
X595580Y198886D01*
X595433Y198760D01*
X595427Y198753D01*
X595420Y198747D01*
X595303Y198595D01*
X595184Y198443D01*
X595180Y198435D01*
X595175Y198428D01*
X595023Y198133D01*
X594321Y196437D01*
X590963Y193079D01*
X586575Y191261D01*
X581825Y191261D01*
X577437Y193079D01*
X574079Y196437D01*
X573377Y198133D01*
X573372Y198140D01*
X573370Y198149D01*
X573277Y198319D01*
X573186Y198487D01*
X573181Y198494D01*
X573176Y198502D01*
X573052Y198651D01*
X572930Y198798D01*
X572923Y198803D01*
X572917Y198810D01*
X572766Y198931D01*
X572617Y199052D01*
X572610Y199056D01*
X572602Y199061D01*
X572430Y199150D01*
X572261Y199239D01*
X572252Y199241D01*
X572244Y199245D01*
X572060Y199297D01*
X571874Y199352D01*
X571865Y199352D01*
X571857Y199355D01*
X571666Y199370D01*
X571473Y199386D01*
X571464Y199385D01*
X571456Y199386D01*
X571264Y199363D01*
X571073Y199341D01*
X571065Y199338D01*
X571056Y199337D01*
X570874Y199277D01*
X570690Y199218D01*
X570682Y199214D01*
X570674Y199211D01*
X570508Y199116D01*
X570338Y199022D01*
X570332Y199016D01*
X570324Y199011D01*
X570180Y198886D01*
X570033Y198760D01*
X570027Y198753D01*
X570020Y198747D01*
X569903Y198595D01*
X569784Y198443D01*
X569780Y198435D01*
X569775Y198428D01*
X569623Y198133D01*
X568921Y196437D01*
X565563Y193079D01*
X561175Y191261D01*
X559249Y191261D01*
X559241Y191260D01*
X559232Y191261D01*
X559038Y191240D01*
X558849Y191221D01*
X558840Y191219D01*
X558831Y191218D01*
X558646Y191159D01*
X558464Y191103D01*
X558456Y191099D01*
X558447Y191096D01*
X558278Y191003D01*
X558110Y190911D01*
X558103Y190906D01*
X558095Y190901D01*
X557948Y190777D01*
X557801Y190654D01*
X557795Y190647D01*
X557788Y190641D01*
X557668Y190489D01*
X557548Y190340D01*
X557544Y190332D01*
X557539Y190325D01*
X557451Y190152D01*
X557363Y189983D01*
X557360Y189974D01*
X557356Y189966D01*
X557304Y189780D01*
X557251Y189596D01*
X557251Y189587D01*
X557248Y189578D01*
X557234Y189385D01*
X557218Y189194D01*
X557219Y189186D01*
X557219Y189177D01*
X557243Y188984D01*
X557265Y188795D01*
X557268Y188786D01*
X557269Y188777D01*
X557331Y188594D01*
X557390Y188412D01*
X557395Y188404D01*
X557397Y188396D01*
X557494Y188228D01*
X557588Y188061D01*
X557594Y188054D01*
X557598Y188047D01*
X557813Y187794D01*
X575621Y169986D01*
X575642Y169969D01*
X575659Y169948D01*
X575797Y169841D01*
X575933Y169731D01*
X575956Y169718D01*
X575977Y169702D01*
X576134Y169624D01*
X576288Y169542D01*
X576314Y169534D01*
X576338Y169522D01*
X576507Y169477D01*
X576674Y169427D01*
X576701Y169425D01*
X576727Y169418D01*
X577057Y169391D01*
X577939Y169391D01*
X580449Y168351D01*
X582371Y166429D01*
X583411Y163919D01*
X583411Y161201D01*
X582371Y158691D01*
X580449Y156769D01*
X577939Y155729D01*
X575221Y155729D01*
G37*
%LPD*%
%LPC*%
G36*
X404025Y191261D02*
X404025Y191261D01*
X399637Y193079D01*
X396279Y196437D01*
X395577Y198132D01*
X395515Y198247D01*
X395462Y198366D01*
X395420Y198424D01*
X395387Y198487D01*
X395303Y198587D01*
X395227Y198694D01*
X395176Y198742D01*
X395130Y198797D01*
X395029Y198879D01*
X394933Y198969D01*
X394873Y199006D01*
X394818Y199051D01*
X394702Y199111D01*
X394591Y199180D01*
X394524Y199205D01*
X394461Y199238D01*
X394336Y199274D01*
X394213Y199320D01*
X394143Y199331D01*
X394075Y199351D01*
X393945Y199362D01*
X393815Y199382D01*
X393744Y199379D01*
X393674Y199385D01*
X393544Y199371D01*
X393413Y199365D01*
X393344Y199348D01*
X393274Y199340D01*
X393149Y199300D01*
X393022Y199269D01*
X392958Y199239D01*
X392890Y199217D01*
X392776Y199153D01*
X392658Y199098D01*
X392601Y199055D01*
X392539Y199021D01*
X392440Y198936D01*
X392334Y198858D01*
X392287Y198805D01*
X392233Y198759D01*
X392152Y198656D01*
X392065Y198559D01*
X392022Y198489D01*
X391985Y198442D01*
X391951Y198374D01*
X391890Y198276D01*
X391211Y196943D01*
X390106Y195422D01*
X388778Y194094D01*
X387257Y192989D01*
X385583Y192136D01*
X383796Y191555D01*
X383539Y191515D01*
X383539Y202692D01*
X383537Y202710D01*
X383539Y202727D01*
X383518Y202910D01*
X383499Y203092D01*
X383494Y203109D01*
X383492Y203127D01*
X383467Y203205D01*
X383506Y203342D01*
X383508Y203360D01*
X383512Y203377D01*
X383539Y203708D01*
X383539Y214885D01*
X383796Y214845D01*
X385583Y214264D01*
X387257Y213411D01*
X388778Y212306D01*
X390106Y210978D01*
X391211Y209457D01*
X391890Y208124D01*
X391961Y208013D01*
X392024Y207899D01*
X392070Y207844D01*
X392108Y207785D01*
X392199Y207691D01*
X392283Y207591D01*
X392339Y207546D01*
X392388Y207495D01*
X392496Y207421D01*
X392598Y207340D01*
X392661Y207307D01*
X392719Y207267D01*
X392840Y207215D01*
X392956Y207156D01*
X393024Y207136D01*
X393090Y207108D01*
X393218Y207082D01*
X393343Y207046D01*
X393414Y207041D01*
X393484Y207026D01*
X393615Y207025D01*
X393745Y207015D01*
X393815Y207023D01*
X393886Y207023D01*
X394015Y207048D01*
X394144Y207064D01*
X394212Y207086D01*
X394282Y207099D01*
X394403Y207149D01*
X394527Y207190D01*
X394588Y207225D01*
X394654Y207252D01*
X394763Y207325D01*
X394876Y207389D01*
X394930Y207436D01*
X394989Y207476D01*
X395081Y207568D01*
X395180Y207654D01*
X395223Y207710D01*
X395273Y207761D01*
X395346Y207870D01*
X395425Y207973D01*
X395463Y208046D01*
X395496Y208096D01*
X395525Y208167D01*
X395577Y208268D01*
X396279Y209963D01*
X399637Y213321D01*
X404025Y215139D01*
X408775Y215139D01*
X413163Y213321D01*
X416521Y209963D01*
X417223Y208268D01*
X417285Y208153D01*
X417338Y208034D01*
X417380Y207976D01*
X417413Y207913D01*
X417497Y207813D01*
X417573Y207706D01*
X417624Y207658D01*
X417670Y207603D01*
X417771Y207521D01*
X417867Y207431D01*
X417927Y207394D01*
X417982Y207349D01*
X418098Y207289D01*
X418209Y207220D01*
X418276Y207195D01*
X418339Y207162D01*
X418464Y207126D01*
X418587Y207080D01*
X418657Y207069D01*
X418725Y207049D01*
X418855Y207038D01*
X418985Y207018D01*
X419056Y207021D01*
X419126Y207015D01*
X419256Y207029D01*
X419387Y207035D01*
X419456Y207052D01*
X419526Y207060D01*
X419651Y207100D01*
X419778Y207131D01*
X419842Y207161D01*
X419910Y207183D01*
X420024Y207247D01*
X420142Y207302D01*
X420199Y207345D01*
X420261Y207379D01*
X420360Y207464D01*
X420466Y207542D01*
X420513Y207595D01*
X420567Y207641D01*
X420648Y207744D01*
X420735Y207841D01*
X420778Y207911D01*
X420815Y207958D01*
X420849Y208026D01*
X420910Y208124D01*
X421589Y209457D01*
X422694Y210978D01*
X424022Y212306D01*
X425543Y213411D01*
X427217Y214264D01*
X429004Y214845D01*
X429261Y214885D01*
X429261Y203708D01*
X429262Y203690D01*
X429261Y203673D01*
X429282Y203490D01*
X429301Y203308D01*
X429306Y203291D01*
X429308Y203273D01*
X429333Y203195D01*
X429294Y203058D01*
X429292Y203040D01*
X429288Y203023D01*
X429261Y202692D01*
X429261Y191515D01*
X429004Y191555D01*
X427217Y192136D01*
X425543Y192989D01*
X424022Y194094D01*
X422694Y195422D01*
X421589Y196943D01*
X420910Y198276D01*
X420839Y198387D01*
X420776Y198501D01*
X420730Y198556D01*
X420692Y198615D01*
X420601Y198709D01*
X420517Y198809D01*
X420461Y198854D01*
X420412Y198905D01*
X420304Y198979D01*
X420202Y199060D01*
X420139Y199093D01*
X420081Y199133D01*
X419960Y199185D01*
X419844Y199244D01*
X419776Y199264D01*
X419710Y199292D01*
X419582Y199318D01*
X419457Y199354D01*
X419386Y199359D01*
X419316Y199374D01*
X419185Y199375D01*
X419055Y199385D01*
X418985Y199377D01*
X418914Y199377D01*
X418785Y199352D01*
X418656Y199336D01*
X418588Y199314D01*
X418518Y199301D01*
X418397Y199251D01*
X418273Y199210D01*
X418212Y199175D01*
X418146Y199148D01*
X418037Y199075D01*
X417924Y199011D01*
X417870Y198964D01*
X417811Y198924D01*
X417719Y198832D01*
X417620Y198746D01*
X417577Y198690D01*
X417527Y198639D01*
X417454Y198530D01*
X417375Y198427D01*
X417337Y198354D01*
X417304Y198304D01*
X417275Y198233D01*
X417223Y198132D01*
X416521Y196437D01*
X413163Y193079D01*
X408775Y191261D01*
X404025Y191261D01*
G37*
%LPD*%
%LPC*%
G36*
X570100Y129259D02*
X570100Y129259D01*
X567512Y130331D01*
X565531Y132312D01*
X564459Y134900D01*
X564459Y137700D01*
X565531Y140288D01*
X567512Y142269D01*
X570100Y143341D01*
X572900Y143341D01*
X575488Y142269D01*
X577469Y140288D01*
X578541Y137700D01*
X578541Y134900D01*
X577469Y132312D01*
X575488Y130331D01*
X572900Y129259D01*
X570100Y129259D01*
G37*
%LPD*%
%LPC*%
G36*
X570100Y85259D02*
X570100Y85259D01*
X567512Y86331D01*
X565531Y88312D01*
X564459Y90900D01*
X564459Y93700D01*
X565531Y96288D01*
X567512Y98269D01*
X570100Y99341D01*
X572900Y99341D01*
X575488Y98269D01*
X577469Y96288D01*
X578541Y93700D01*
X578541Y90900D01*
X577469Y88312D01*
X575488Y86331D01*
X572900Y85259D01*
X570100Y85259D01*
G37*
%LPD*%
%LPC*%
G36*
X434339Y205739D02*
X434339Y205739D01*
X434339Y214885D01*
X434596Y214845D01*
X436383Y214264D01*
X438057Y213411D01*
X439578Y212306D01*
X440906Y210978D01*
X442011Y209457D01*
X442690Y208124D01*
X442718Y208081D01*
X442739Y208035D01*
X442826Y207912D01*
X442908Y207785D01*
X442943Y207749D01*
X442973Y207707D01*
X443083Y207604D01*
X443188Y207496D01*
X443230Y207467D01*
X443267Y207432D01*
X443395Y207353D01*
X443519Y207268D01*
X443566Y207247D01*
X443610Y207221D01*
X443751Y207168D01*
X443889Y207109D01*
X443939Y207099D01*
X443987Y207081D01*
X444136Y207058D01*
X444283Y207027D01*
X444334Y207026D01*
X444385Y207018D01*
X444536Y207025D01*
X444686Y207024D01*
X444736Y207033D01*
X444787Y207036D01*
X444934Y207072D01*
X445081Y207100D01*
X445128Y207119D01*
X445178Y207132D01*
X445314Y207196D01*
X445454Y207253D01*
X445496Y207281D01*
X445542Y207303D01*
X445663Y207393D01*
X445789Y207476D01*
X445825Y207512D01*
X445866Y207543D01*
X445967Y207655D01*
X446073Y207761D01*
X446101Y207804D01*
X446136Y207842D01*
X446257Y208039D01*
X446296Y208097D01*
X446301Y208110D01*
X446310Y208124D01*
X446989Y209457D01*
X448094Y210978D01*
X449422Y212306D01*
X450943Y213411D01*
X452617Y214264D01*
X454404Y214845D01*
X454661Y214885D01*
X454661Y205739D01*
X434339Y205739D01*
G37*
%LPD*%
%LPC*%
G36*
X454404Y191555D02*
X454404Y191555D01*
X452617Y192136D01*
X450943Y192989D01*
X449422Y194094D01*
X448094Y195422D01*
X446989Y196943D01*
X446310Y198276D01*
X446282Y198319D01*
X446261Y198366D01*
X446174Y198488D01*
X446092Y198615D01*
X446057Y198651D01*
X446027Y198693D01*
X445917Y198796D01*
X445812Y198904D01*
X445770Y198933D01*
X445733Y198968D01*
X445605Y199047D01*
X445481Y199132D01*
X445434Y199153D01*
X445390Y199179D01*
X445249Y199232D01*
X445111Y199291D01*
X445061Y199301D01*
X445013Y199319D01*
X444864Y199343D01*
X444717Y199373D01*
X444666Y199374D01*
X444615Y199382D01*
X444464Y199375D01*
X444314Y199376D01*
X444264Y199367D01*
X444213Y199365D01*
X444067Y199329D01*
X443919Y199300D01*
X443871Y199281D01*
X443822Y199268D01*
X443686Y199204D01*
X443546Y199147D01*
X443504Y199119D01*
X443457Y199097D01*
X443337Y199007D01*
X443211Y198924D01*
X443175Y198888D01*
X443134Y198857D01*
X443033Y198745D01*
X442927Y198639D01*
X442899Y198596D01*
X442864Y198558D01*
X442743Y198361D01*
X442704Y198303D01*
X442699Y198291D01*
X442690Y198276D01*
X442011Y196943D01*
X440906Y195422D01*
X439578Y194094D01*
X438057Y192989D01*
X436383Y192136D01*
X434596Y191555D01*
X434339Y191515D01*
X434339Y200661D01*
X454661Y200661D01*
X454661Y191515D01*
X454404Y191555D01*
G37*
%LPD*%
%LPC*%
G36*
X297889Y174039D02*
X297889Y174039D01*
X297889Y179831D01*
X302475Y179831D01*
X303121Y179658D01*
X303784Y179274D01*
X303867Y179237D01*
X303946Y179191D01*
X304050Y179154D01*
X304151Y179109D01*
X304240Y179088D01*
X304326Y179058D01*
X304436Y179043D01*
X304544Y179019D01*
X304635Y179016D01*
X304725Y179004D01*
X304835Y179011D01*
X304946Y179008D01*
X305036Y179023D01*
X305127Y179029D01*
X305234Y179057D01*
X305343Y179076D01*
X305428Y179109D01*
X305516Y179133D01*
X305640Y179191D01*
X305718Y179222D01*
X305759Y179247D01*
X305816Y179274D01*
X306479Y179658D01*
X307125Y179831D01*
X311711Y179831D01*
X311711Y174039D01*
X297889Y174039D01*
G37*
%LPD*%
%LPC*%
G36*
X364234Y88685D02*
X364234Y88685D01*
X362447Y89266D01*
X360773Y90119D01*
X359252Y91224D01*
X357924Y92552D01*
X356819Y94073D01*
X355966Y95747D01*
X355385Y97534D01*
X355345Y97791D01*
X364491Y97791D01*
X364491Y88645D01*
X364234Y88685D01*
G37*
%LPD*%
%LPC*%
G36*
X518379Y169099D02*
X518379Y169099D01*
X518379Y176641D01*
X522715Y176641D01*
X523361Y176468D01*
X523940Y176133D01*
X524413Y175660D01*
X524748Y175081D01*
X524921Y174435D01*
X524921Y169099D01*
X518379Y169099D01*
G37*
%LPD*%
%LPC*%
G36*
X517109Y67499D02*
X517109Y67499D01*
X517109Y75041D01*
X521445Y75041D01*
X522091Y74868D01*
X522670Y74533D01*
X523143Y74060D01*
X523478Y73481D01*
X523651Y72835D01*
X523651Y67499D01*
X517109Y67499D01*
G37*
%LPD*%
%LPC*%
G36*
X518379Y153559D02*
X518379Y153559D01*
X518379Y161101D01*
X524921Y161101D01*
X524921Y155765D01*
X524748Y155119D01*
X524413Y154540D01*
X523940Y154067D01*
X523361Y153732D01*
X522715Y153559D01*
X518379Y153559D01*
G37*
%LPD*%
%LPC*%
G36*
X503839Y169099D02*
X503839Y169099D01*
X503839Y174435D01*
X504012Y175081D01*
X504347Y175660D01*
X504820Y176133D01*
X505399Y176468D01*
X506045Y176641D01*
X510381Y176641D01*
X510381Y169099D01*
X503839Y169099D01*
G37*
%LPD*%
%LPC*%
G36*
X502569Y67499D02*
X502569Y67499D01*
X502569Y72835D01*
X502742Y73481D01*
X503077Y74060D01*
X503550Y74533D01*
X504129Y74868D01*
X504775Y75041D01*
X509111Y75041D01*
X509111Y67499D01*
X502569Y67499D01*
G37*
%LPD*%
%LPC*%
G36*
X506045Y153559D02*
X506045Y153559D01*
X505399Y153732D01*
X504820Y154067D01*
X504347Y154540D01*
X504012Y155119D01*
X503839Y155765D01*
X503839Y161101D01*
X510381Y161101D01*
X510381Y153559D01*
X506045Y153559D01*
G37*
%LPD*%
%LPC*%
G36*
X467049Y116549D02*
X467049Y116549D01*
X467049Y121341D01*
X474635Y121341D01*
X475281Y121168D01*
X475860Y120833D01*
X476333Y120360D01*
X476668Y119781D01*
X476841Y119135D01*
X476841Y116549D01*
X467049Y116549D01*
G37*
%LPD*%
%LPC*%
G36*
X452759Y116549D02*
X452759Y116549D01*
X452759Y119135D01*
X452932Y119781D01*
X453267Y120360D01*
X453740Y120833D01*
X454319Y121168D01*
X454965Y121341D01*
X462551Y121341D01*
X462551Y116549D01*
X452759Y116549D01*
G37*
%LPD*%
%LPC*%
G36*
X467049Y107259D02*
X467049Y107259D01*
X467049Y112051D01*
X476841Y112051D01*
X476841Y109465D01*
X476668Y108819D01*
X476333Y108240D01*
X475860Y107767D01*
X475281Y107432D01*
X474635Y107259D01*
X467049Y107259D01*
G37*
%LPD*%
%LPC*%
G36*
X454965Y107259D02*
X454965Y107259D01*
X454319Y107432D01*
X453740Y107767D01*
X453267Y108240D01*
X452932Y108819D01*
X452759Y109465D01*
X452759Y112051D01*
X462551Y112051D01*
X462551Y107259D01*
X454965Y107259D01*
G37*
%LPD*%
%LPC*%
G36*
X318209Y174039D02*
X318209Y174039D01*
X318209Y179831D01*
X322795Y179831D01*
X323441Y179658D01*
X324020Y179323D01*
X324493Y178850D01*
X324828Y178271D01*
X325001Y177625D01*
X325001Y174039D01*
X318209Y174039D01*
G37*
%LPD*%
%LPC*%
G36*
X76249Y142949D02*
X76249Y142949D01*
X76249Y149741D01*
X79835Y149741D01*
X80481Y149568D01*
X81060Y149233D01*
X81533Y148760D01*
X81868Y148181D01*
X82041Y147535D01*
X82041Y142949D01*
X76249Y142949D01*
G37*
%LPD*%
%LPC*%
G36*
X317549Y130249D02*
X317549Y130249D01*
X317549Y137041D01*
X321135Y137041D01*
X321781Y136868D01*
X322360Y136533D01*
X322833Y136060D01*
X323168Y135481D01*
X323341Y134835D01*
X323341Y130249D01*
X317549Y130249D01*
G37*
%LPD*%
%LPC*%
G36*
X317549Y104849D02*
X317549Y104849D01*
X317549Y111641D01*
X321135Y111641D01*
X321781Y111468D01*
X322360Y111133D01*
X322833Y110660D01*
X323168Y110081D01*
X323341Y109435D01*
X323341Y104849D01*
X317549Y104849D01*
G37*
%LPD*%
%LPC*%
G36*
X284599Y174039D02*
X284599Y174039D01*
X284599Y177625D01*
X284772Y178271D01*
X285107Y178850D01*
X285580Y179323D01*
X286159Y179658D01*
X286805Y179831D01*
X291391Y179831D01*
X291391Y174039D01*
X284599Y174039D01*
G37*
%LPD*%
%LPC*%
G36*
X76249Y129659D02*
X76249Y129659D01*
X76249Y136451D01*
X82041Y136451D01*
X82041Y131865D01*
X81868Y131219D01*
X81533Y130640D01*
X81060Y130167D01*
X80481Y129832D01*
X79835Y129659D01*
X76249Y129659D01*
G37*
%LPD*%
%LPC*%
G36*
X266749Y117659D02*
X266749Y117659D01*
X266749Y124451D01*
X272541Y124451D01*
X272541Y119865D01*
X272368Y119219D01*
X272033Y118640D01*
X271560Y118167D01*
X270981Y117832D01*
X270335Y117659D01*
X266749Y117659D01*
G37*
%LPD*%
%LPC*%
G36*
X317549Y116959D02*
X317549Y116959D01*
X317549Y123751D01*
X323341Y123751D01*
X323341Y119165D01*
X323168Y118519D01*
X322833Y117940D01*
X322360Y117467D01*
X321781Y117132D01*
X321135Y116959D01*
X317549Y116959D01*
G37*
%LPD*%
%LPC*%
G36*
X317549Y91559D02*
X317549Y91559D01*
X317549Y98351D01*
X323341Y98351D01*
X323341Y93765D01*
X323168Y93119D01*
X322833Y92540D01*
X322360Y92067D01*
X321781Y91732D01*
X321135Y91559D01*
X317549Y91559D01*
G37*
%LPD*%
%LPC*%
G36*
X219885Y163949D02*
X219885Y163949D01*
X219239Y164122D01*
X218660Y164457D01*
X218187Y164930D01*
X217852Y165509D01*
X217679Y166155D01*
X217679Y170741D01*
X223471Y170741D01*
X223471Y163949D01*
X219885Y163949D01*
G37*
%LPD*%
D10*
X294640Y151790D03*
X294640Y170790D03*
D11*
X485110Y63500D03*
X513110Y63500D03*
D12*
X295300Y101600D03*
X314300Y101600D03*
X295300Y127000D03*
X314300Y127000D03*
D10*
X314960Y151790D03*
X314960Y170790D03*
D12*
X245720Y173990D03*
X226720Y173990D03*
D11*
X486380Y165100D03*
X514380Y165100D03*
D13*
X464800Y91300D03*
X464800Y114300D03*
X464800Y137300D03*
D14*
X525800Y114300D03*
D15*
X367030Y151130D03*
X367030Y125730D03*
X367030Y100330D03*
D12*
X73000Y88900D03*
X54000Y88900D03*
X73000Y139700D03*
X54000Y139700D03*
X263500Y151700D03*
X263500Y127700D03*
X244500Y127700D03*
X244500Y151700D03*
D15*
X50800Y203200D03*
X76200Y203200D03*
X101600Y203200D03*
X127000Y203200D03*
X152400Y203200D03*
X177800Y203200D03*
X203200Y203200D03*
X228600Y203200D03*
X254000Y203200D03*
X279400Y203200D03*
X304800Y203200D03*
X330200Y203200D03*
X355600Y203200D03*
X381000Y203200D03*
X406400Y203200D03*
X431800Y203200D03*
X457200Y203200D03*
X482600Y203200D03*
X508000Y203200D03*
X533400Y203200D03*
X558800Y203200D03*
X584200Y203200D03*
X609600Y203200D03*
X25400Y203200D03*
X584200Y25400D03*
X558800Y25400D03*
X533400Y25400D03*
X508000Y25400D03*
X482600Y25400D03*
X457200Y25400D03*
X431800Y25400D03*
X406400Y25400D03*
X381000Y25400D03*
X355600Y25400D03*
X330200Y25400D03*
X304800Y25400D03*
X279400Y25400D03*
X254000Y25400D03*
X228600Y25400D03*
X203200Y25400D03*
X177800Y25400D03*
X152400Y25400D03*
X127000Y25400D03*
X101600Y25400D03*
X76200Y25400D03*
X50800Y25400D03*
X25400Y25400D03*
X609600Y25400D03*
D16*
X525800Y153680D02*
X514380Y165100D01*
X525800Y153680D02*
X525800Y114300D01*
X525800Y76190D01*
X513110Y63500D01*
X469900Y114300D02*
X464800Y114300D01*
X481330Y125730D02*
X494030Y125730D01*
X524530Y113030D02*
X525800Y114300D01*
X524530Y113030D02*
X468630Y113030D01*
X514380Y165100D02*
X495330Y184150D01*
X468630Y184150D01*
X457200Y195580D02*
X457200Y203200D01*
X457200Y195580D02*
X468630Y184150D01*
D17*
X494030Y125730D03*
D16*
X481330Y125730D02*
X469900Y114300D01*
X468630Y113030D01*
X419710Y188570D02*
X381000Y188570D01*
X321603Y188570D01*
X226720Y173990D02*
X216560Y163830D01*
X216560Y141859D01*
X216560Y133960D01*
X226568Y123952D02*
X226568Y123825D01*
X226568Y123952D02*
X216560Y133960D01*
X237363Y113030D02*
X252730Y113030D01*
X237363Y113030D02*
X226568Y123825D01*
X252730Y113030D02*
X259080Y119380D01*
X259080Y123280D02*
X263500Y127700D01*
X259080Y123280D02*
X259080Y119380D01*
X367030Y100330D02*
X393700Y127000D01*
X452100Y127000D01*
X464800Y114300D01*
D18*
X216560Y141859D02*
X75159Y141859D01*
X73000Y139700D01*
D19*
X226568Y123825D03*
D17*
X419710Y188570D03*
X102870Y170180D03*
D18*
X102870Y169570D01*
X73000Y139700D01*
D17*
X63500Y114300D03*
D18*
X63500Y115570D02*
X73000Y125070D01*
X63500Y115570D02*
X63500Y114300D01*
X73000Y125070D02*
X73000Y139700D01*
D16*
X315570Y100330D02*
X367030Y100330D01*
X315570Y100330D02*
X314300Y101600D01*
X315900Y100000D01*
X314300Y101600D02*
X314300Y127000D01*
X314960Y181927D02*
X321603Y188570D01*
X314960Y181927D02*
X314960Y170790D01*
X294640Y170790D01*
X263500Y127700D02*
X267970Y123230D01*
X267970Y106680D02*
X288290Y86360D01*
X302260Y86360D01*
X315900Y100000D01*
X267970Y106680D02*
X267970Y123230D01*
X381000Y188570D02*
X381000Y203200D01*
X419710Y191110D02*
X419710Y188570D01*
X419710Y191110D02*
X431800Y203200D01*
X464800Y91300D02*
X468770Y91300D01*
X485110Y74960D01*
X485110Y63500D01*
D17*
X469900Y69850D03*
D16*
X478760Y69850D01*
X485110Y63500D01*
X470042Y137300D02*
X464800Y137300D01*
X486380Y153610D02*
X486380Y165100D01*
X486380Y153610D02*
X470042Y137300D01*
X245720Y152920D02*
X245720Y173990D01*
X245720Y152920D02*
X244500Y151700D01*
X533400Y205740D02*
X576580Y162560D01*
X533400Y203200D02*
X533400Y205740D01*
D17*
X576580Y162560D03*
D16*
X263500Y151700D02*
X244500Y151700D01*
D17*
X75565Y106045D03*
D18*
X71145Y106045D01*
X54000Y88900D01*
X234696Y184912D02*
X244475Y175133D01*
X234696Y184912D02*
X184277Y184912D01*
X152781Y153416D01*
X112776Y153416D01*
X111506Y152146D01*
X244475Y175133D02*
X245720Y173990D01*
D19*
X111506Y152146D03*
D16*
X294640Y151790D02*
X314960Y151790D01*
X367004Y151105D01*
D17*
X278130Y152400D03*
D18*
X279400Y151130D02*
X293980Y151130D01*
X279400Y151130D02*
X278130Y152400D01*
X293980Y151130D02*
X294640Y151790D01*
D16*
X380860Y137300D02*
X464800Y137300D01*
X380860Y137300D02*
X367030Y151130D01*
D17*
X283210Y111760D03*
D18*
X285140Y111760D01*
X295300Y101600D01*
D16*
X295300Y127000D01*
D17*
X281747Y142047D03*
D18*
X281747Y140777D02*
X295300Y127225D01*
X281747Y140777D02*
X281747Y142047D01*
X295300Y127225D02*
X295300Y127000D01*
D16*
X263500Y152400D02*
X263500Y163170D01*
X265430Y165100D01*
X283127Y160734D02*
X283156Y160734D01*
X292100Y151790D01*
X294640Y151790D01*
X278761Y165100D02*
X265430Y165100D01*
X278761Y165100D02*
X283127Y160734D01*
X294640Y151790D02*
X294640Y127660D01*
X295300Y127000D01*
X367004Y151105D02*
X367030Y151130D01*
D18*
X263500Y151700D02*
X263500Y152400D01*
X54000Y139700D02*
X36220Y121920D01*
X29210Y121920D01*
D17*
X29210Y121920D03*
D18*
X122809Y104267D02*
X122809Y103378D01*
X92710Y73279D01*
X42926Y73279D01*
X40259Y75946D01*
X40259Y110871D01*
X29210Y121920D01*
D19*
X122809Y104267D03*
D18*
X99060Y104800D02*
X83160Y88900D01*
X73000Y88900D01*
X99060Y104800D02*
X99060Y105410D01*
D17*
X99060Y105410D03*
D18*
X187198Y114554D02*
X189738Y112014D01*
X187198Y114554D02*
X108966Y114554D01*
X99822Y105410D01*
X99060Y105410D01*
D19*
X189738Y112014D03*
D17*
X463550Y58420D03*
D18*
X585719Y49281D02*
X609600Y25400D01*
X585719Y49281D02*
X472689Y49281D01*
X463550Y58420D01*
D17*
X449580Y58730D03*
D18*
X565071Y44529D02*
X584200Y25400D01*
X565071Y44529D02*
X463781Y44529D01*
X449580Y58730D01*
D17*
X434340Y59040D03*
D18*
X544303Y39897D02*
X558800Y25400D01*
X544303Y39897D02*
X453483Y39897D01*
X434340Y59040D01*
X261112Y80772D02*
X219964Y80772D01*
X261112Y80772D02*
X277368Y64516D01*
X411861Y64516D01*
X450977Y25400D02*
X457200Y25400D01*
X450977Y25400D02*
X411861Y64516D01*
D19*
X219964Y80772D03*
D17*
X259080Y61496D03*
D18*
X260886Y59690D01*
X374650Y59690D01*
X406400Y27940D01*
X406400Y25400D01*
D17*
X210820Y55090D03*
D18*
X227810Y38100D01*
X267970Y38100D01*
X279400Y26670D01*
X279400Y25400D01*
D17*
X219710Y105410D03*
D18*
X223520Y101600D02*
X262890Y101600D01*
X223520Y101600D02*
X219710Y105410D01*
X262890Y101600D02*
X284666Y79824D01*
X370654Y79824D01*
X383540Y92710D01*
D17*
X383540Y92710D03*
X205740Y93980D03*
D18*
X410210Y99060D02*
X410210Y113030D01*
X410210Y99060D02*
X381000Y69850D01*
D17*
X410210Y113030D03*
D18*
X210820Y88900D02*
X205740Y93980D01*
X210820Y88900D02*
X260452Y88900D01*
X279502Y69850D01*
X381000Y69850D01*
D17*
X198120Y102870D03*
D18*
X208280Y102870D02*
X215900Y95250D01*
X208280Y102870D02*
X198120Y102870D01*
X396240Y93980D02*
X396240Y113030D01*
D17*
X396240Y113030D03*
D18*
X282245Y74676D02*
X261671Y95250D01*
X215900Y95250D01*
X376936Y74676D02*
X396240Y93980D01*
X376936Y74676D02*
X282245Y74676D01*
X235040Y137160D02*
X229870Y137160D01*
D17*
X229870Y137160D03*
D18*
X235040Y137160D02*
X244500Y127700D01*
D17*
X197779Y132421D03*
D18*
X146391Y132421D01*
X140970Y127000D02*
X139700Y127000D01*
D17*
X139700Y127000D03*
D18*
X140970Y127000D02*
X146391Y132421D01*
M02*
