M48
;GenerationSoftware,Autodesk,EAGLE,9.6.1*%
;CreationDate,2024-10-29T14:06:59Z*%
FMAT,2
ICI,OFF
METRIC,TZ,000.000
T4C0.300
T3C0.350
T2C0.900
T1C1.016
%
G90
M71
T1
X43180Y20320
X48260Y20320
X50800Y20320
X53340Y20320
X55880Y20320
X58420Y20320
X60960Y20320
X2540Y20320
X58420Y2540
X55880Y2540
X45720Y20320
X53340Y2540
X50800Y2540
X48260Y2540
X45720Y2540
X43180Y2540
X40640Y2540
X38100Y2540
X35560Y2540
X33020Y2540
X30480Y2540
X27940Y2540
X22860Y2540
X20320Y2540
X17780Y2540
X15240Y2540
X12700Y2540
X10160Y2540
X7620Y2540
X5080Y2540
X2540Y2540
X60960Y2540
X20320Y20320
X36703Y15113
X36703Y12573
X36703Y10033
X5080Y20320
X7620Y20320
X10160Y20320
X12700Y20320
X15240Y20320
X17780Y20320
X25400Y2540
X22860Y20320
X25400Y20320
X27940Y20320
X30480Y20320
X33020Y20320
X35560Y20320
X38100Y20320
X40640Y20320
T2
X57150Y13630
X57150Y9230
T3
X49403Y12573
X13970Y12700
X41971Y18857
X10287Y17018
X6350Y11430
X46990Y6985
X57658Y16256
X7556Y10605
X28321Y11176
X27813Y15240
X28175Y14205
X2921Y12192
X9906Y10541
X46355Y5842
X44958Y5873
X43434Y5904
X25908Y6150
X21082Y5509
X21971Y10541
X38354Y9271
X20574Y9398
X41021Y11303
X19812Y10287
X39624Y11303
X22987Y13716
X19778Y13242
T4
X22657Y12382
X11151Y15215
X18974Y11201
X12281Y10427
X21996Y8077
M30