G04 EAGLE Gerber RS-274X export*
G75*
%MOMM*%
%FSLAX34Y34*%
%LPD*%
%IN*%
%IPPOS*%
%AMOC8*
5,1,8,0,0,1.08239X$1,22.5*%
G01*
%ADD10C,0.254000*%


D10*
X0Y0D02*
X630430Y0D01*
X630430Y228500D01*
X0Y228500D01*
X0Y0D01*
X567000Y92595D02*
X567077Y93180D01*
X567230Y93750D01*
X567455Y94295D01*
X567750Y94805D01*
X568109Y95273D01*
X568527Y95691D01*
X568995Y96050D01*
X569505Y96345D01*
X570050Y96570D01*
X570620Y96723D01*
X571205Y96800D01*
X571795Y96800D01*
X572380Y96723D01*
X572950Y96570D01*
X573495Y96345D01*
X574005Y96050D01*
X574473Y95691D01*
X574891Y95273D01*
X575250Y94805D01*
X575545Y94295D01*
X575770Y93750D01*
X575923Y93180D01*
X576000Y92595D01*
X576000Y92005D01*
X575923Y91420D01*
X575770Y90850D01*
X575545Y90305D01*
X575250Y89795D01*
X574891Y89327D01*
X574473Y88909D01*
X574005Y88550D01*
X573495Y88255D01*
X572950Y88030D01*
X572380Y87877D01*
X571795Y87800D01*
X571205Y87800D01*
X570620Y87877D01*
X570050Y88030D01*
X569505Y88255D01*
X568995Y88550D01*
X568527Y88909D01*
X568109Y89327D01*
X567750Y89795D01*
X567455Y90305D01*
X567230Y90850D01*
X567077Y91420D01*
X567000Y92005D01*
X567000Y92595D01*
X567000Y136595D02*
X567077Y137180D01*
X567230Y137750D01*
X567455Y138295D01*
X567750Y138805D01*
X568109Y139273D01*
X568527Y139691D01*
X568995Y140050D01*
X569505Y140345D01*
X570050Y140570D01*
X570620Y140723D01*
X571205Y140800D01*
X571795Y140800D01*
X572380Y140723D01*
X572950Y140570D01*
X573495Y140345D01*
X574005Y140050D01*
X574473Y139691D01*
X574891Y139273D01*
X575250Y138805D01*
X575545Y138295D01*
X575770Y137750D01*
X575923Y137180D01*
X576000Y136595D01*
X576000Y136005D01*
X575923Y135420D01*
X575770Y134850D01*
X575545Y134305D01*
X575250Y133795D01*
X574891Y133327D01*
X574473Y132909D01*
X574005Y132550D01*
X573495Y132255D01*
X572950Y132030D01*
X572380Y131877D01*
X571795Y131800D01*
X571205Y131800D01*
X570620Y131877D01*
X570050Y132030D01*
X569505Y132255D01*
X568995Y132550D01*
X568527Y132909D01*
X568109Y133327D01*
X567750Y133795D01*
X567455Y134305D01*
X567230Y134850D01*
X567077Y135420D01*
X567000Y136005D01*
X567000Y136595D01*
M02*
