G04 EAGLE Gerber RS-274X export*
G75*
%MOMM*%
%FSLAX34Y34*%
%LPD*%
%INSilkscreen Bottom*%
%IPPOS*%
%AMOC8*
5,1,8,0,0,1.08239X$1,22.5*%
G01*
%ADD10C,0.200000*%
%ADD11C,0.101600*%
%ADD12C,0.100000*%


D10*
X477800Y81800D02*
X512800Y81800D01*
X512800Y146800D01*
X477800Y146800D01*
X477800Y81800D01*
X474300Y83300D02*
X455300Y83300D01*
D11*
X505608Y83058D02*
X505608Y94742D01*
X506906Y83058D02*
X504310Y83058D01*
X504310Y94742D02*
X506906Y94742D01*
X497146Y83058D02*
X494550Y83058D01*
X497146Y83058D02*
X497245Y83060D01*
X497345Y83066D01*
X497444Y83075D01*
X497542Y83088D01*
X497640Y83105D01*
X497738Y83126D01*
X497834Y83151D01*
X497929Y83179D01*
X498023Y83211D01*
X498116Y83246D01*
X498208Y83285D01*
X498298Y83328D01*
X498386Y83373D01*
X498473Y83423D01*
X498557Y83475D01*
X498640Y83531D01*
X498720Y83589D01*
X498798Y83651D01*
X498873Y83716D01*
X498946Y83784D01*
X499016Y83854D01*
X499084Y83927D01*
X499149Y84002D01*
X499211Y84080D01*
X499269Y84160D01*
X499325Y84243D01*
X499377Y84327D01*
X499427Y84414D01*
X499472Y84502D01*
X499515Y84592D01*
X499554Y84684D01*
X499589Y84777D01*
X499621Y84871D01*
X499649Y84966D01*
X499674Y85062D01*
X499695Y85160D01*
X499712Y85258D01*
X499725Y85356D01*
X499734Y85455D01*
X499740Y85555D01*
X499742Y85654D01*
X499743Y85654D02*
X499743Y92146D01*
X499742Y92146D02*
X499740Y92245D01*
X499734Y92345D01*
X499725Y92444D01*
X499712Y92542D01*
X499695Y92640D01*
X499674Y92738D01*
X499649Y92834D01*
X499621Y92929D01*
X499589Y93023D01*
X499554Y93116D01*
X499515Y93208D01*
X499472Y93298D01*
X499427Y93386D01*
X499377Y93473D01*
X499325Y93557D01*
X499269Y93640D01*
X499211Y93720D01*
X499149Y93798D01*
X499084Y93873D01*
X499016Y93946D01*
X498946Y94016D01*
X498873Y94084D01*
X498798Y94149D01*
X498720Y94211D01*
X498640Y94269D01*
X498557Y94325D01*
X498473Y94377D01*
X498386Y94427D01*
X498298Y94472D01*
X498208Y94515D01*
X498116Y94554D01*
X498023Y94589D01*
X497929Y94621D01*
X497834Y94649D01*
X497738Y94674D01*
X497640Y94695D01*
X497542Y94712D01*
X497444Y94725D01*
X497345Y94734D01*
X497245Y94740D01*
X497146Y94742D01*
X494550Y94742D01*
X486615Y94742D02*
X486508Y94740D01*
X486402Y94734D01*
X486296Y94724D01*
X486190Y94711D01*
X486084Y94693D01*
X485980Y94672D01*
X485876Y94647D01*
X485773Y94618D01*
X485672Y94586D01*
X485572Y94549D01*
X485473Y94509D01*
X485375Y94466D01*
X485279Y94419D01*
X485185Y94368D01*
X485093Y94314D01*
X485003Y94257D01*
X484915Y94197D01*
X484830Y94133D01*
X484747Y94066D01*
X484666Y93996D01*
X484588Y93924D01*
X484512Y93848D01*
X484440Y93770D01*
X484370Y93689D01*
X484303Y93606D01*
X484239Y93521D01*
X484179Y93433D01*
X484122Y93343D01*
X484068Y93251D01*
X484017Y93157D01*
X483970Y93061D01*
X483927Y92963D01*
X483887Y92864D01*
X483850Y92764D01*
X483818Y92663D01*
X483789Y92560D01*
X483764Y92456D01*
X483743Y92352D01*
X483725Y92246D01*
X483712Y92140D01*
X483702Y92034D01*
X483696Y91928D01*
X483694Y91821D01*
X486615Y94742D02*
X486736Y94740D01*
X486857Y94734D01*
X486977Y94724D01*
X487098Y94711D01*
X487217Y94693D01*
X487337Y94672D01*
X487455Y94647D01*
X487572Y94618D01*
X487689Y94585D01*
X487804Y94549D01*
X487918Y94508D01*
X488031Y94465D01*
X488143Y94417D01*
X488252Y94366D01*
X488360Y94311D01*
X488467Y94253D01*
X488571Y94192D01*
X488673Y94127D01*
X488773Y94059D01*
X488871Y93988D01*
X488967Y93914D01*
X489060Y93837D01*
X489150Y93756D01*
X489238Y93673D01*
X489323Y93587D01*
X489406Y93498D01*
X489485Y93407D01*
X489562Y93313D01*
X489635Y93217D01*
X489705Y93119D01*
X489772Y93018D01*
X489836Y92915D01*
X489897Y92810D01*
X489954Y92703D01*
X490007Y92595D01*
X490057Y92485D01*
X490103Y92373D01*
X490146Y92260D01*
X490185Y92145D01*
X484668Y89549D02*
X484589Y89627D01*
X484513Y89707D01*
X484440Y89790D01*
X484370Y89876D01*
X484303Y89963D01*
X484239Y90054D01*
X484179Y90146D01*
X484121Y90240D01*
X484067Y90337D01*
X484017Y90435D01*
X483970Y90535D01*
X483926Y90636D01*
X483886Y90739D01*
X483850Y90844D01*
X483818Y90949D01*
X483789Y91056D01*
X483764Y91163D01*
X483742Y91272D01*
X483725Y91381D01*
X483711Y91490D01*
X483702Y91600D01*
X483696Y91711D01*
X483694Y91821D01*
X484667Y89549D02*
X490185Y83058D01*
X483694Y83058D01*
D12*
X266500Y135700D02*
X266500Y143700D01*
X241500Y143700D02*
X241500Y135700D01*
X252000Y123700D02*
X256000Y123700D01*
X256000Y155700D02*
X252000Y155700D01*
D10*
X274000Y159700D02*
X274062Y159702D01*
X274123Y159708D01*
X274184Y159717D01*
X274244Y159730D01*
X274303Y159747D01*
X274361Y159768D01*
X274418Y159792D01*
X274473Y159819D01*
X274526Y159850D01*
X274578Y159884D01*
X274627Y159921D01*
X274674Y159961D01*
X274718Y160004D01*
X274759Y160049D01*
X274798Y160097D01*
X274834Y160148D01*
X274866Y160200D01*
X274895Y160254D01*
X274921Y160310D01*
X274943Y160368D01*
X274962Y160426D01*
X274977Y160486D01*
X274988Y160547D01*
X274996Y160608D01*
X275000Y160669D01*
X275000Y160731D01*
X274996Y160792D01*
X274988Y160853D01*
X274977Y160914D01*
X274962Y160974D01*
X274943Y161032D01*
X274921Y161090D01*
X274895Y161146D01*
X274866Y161200D01*
X274834Y161252D01*
X274798Y161303D01*
X274759Y161351D01*
X274718Y161396D01*
X274674Y161439D01*
X274627Y161479D01*
X274578Y161516D01*
X274526Y161550D01*
X274473Y161581D01*
X274418Y161608D01*
X274361Y161632D01*
X274303Y161653D01*
X274244Y161670D01*
X274184Y161683D01*
X274123Y161692D01*
X274062Y161698D01*
X274000Y161700D01*
X273938Y161698D01*
X273877Y161692D01*
X273816Y161683D01*
X273756Y161670D01*
X273697Y161653D01*
X273639Y161632D01*
X273582Y161608D01*
X273527Y161581D01*
X273474Y161550D01*
X273422Y161516D01*
X273373Y161479D01*
X273326Y161439D01*
X273282Y161396D01*
X273241Y161351D01*
X273202Y161303D01*
X273166Y161252D01*
X273134Y161200D01*
X273105Y161146D01*
X273079Y161090D01*
X273057Y161032D01*
X273038Y160974D01*
X273023Y160914D01*
X273012Y160853D01*
X273004Y160792D01*
X273000Y160731D01*
X273000Y160669D01*
X273004Y160608D01*
X273012Y160547D01*
X273023Y160486D01*
X273038Y160426D01*
X273057Y160368D01*
X273079Y160310D01*
X273105Y160254D01*
X273134Y160200D01*
X273166Y160148D01*
X273202Y160097D01*
X273241Y160049D01*
X273282Y160004D01*
X273326Y159961D01*
X273373Y159921D01*
X273422Y159884D01*
X273474Y159850D01*
X273527Y159819D01*
X273582Y159792D01*
X273639Y159768D01*
X273697Y159747D01*
X273756Y159730D01*
X273816Y159717D01*
X273877Y159708D01*
X273938Y159702D01*
X274000Y159700D01*
M02*
