G04 EAGLE Gerber RS-274X export*
G75*
%MOMM*%
%FSLAX34Y34*%
%LPD*%
%INSoldermask Bottom*%
%IPPOS*%
%AMOC8*
5,1,8,0,0,1.08239X$1,22.5*%
G01*
%ADD10R,1.703200X1.503200*%
%ADD11R,1.803200X2.003200*%
%ADD12R,1.503200X1.703200*%
%ADD13R,2.103200X1.103200*%
%ADD14R,2.103200X3.403200*%
%ADD15C,1.103200*%
%ADD16C,2.082800*%
%ADD17C,1.061200*%
%ADD18C,1.011200*%

G36*
X546118Y86871D02*
X546118Y86871D01*
X546136Y86869D01*
X546318Y86890D01*
X546501Y86909D01*
X546518Y86914D01*
X546535Y86916D01*
X546710Y86973D01*
X546886Y87027D01*
X546901Y87035D01*
X546918Y87041D01*
X547078Y87131D01*
X547240Y87219D01*
X547253Y87230D01*
X547269Y87239D01*
X547408Y87359D01*
X547549Y87476D01*
X547560Y87490D01*
X547574Y87502D01*
X547686Y87647D01*
X547801Y87790D01*
X547809Y87806D01*
X547820Y87820D01*
X547902Y87985D01*
X547987Y88147D01*
X547992Y88164D01*
X548000Y88181D01*
X548047Y88359D01*
X548098Y88534D01*
X548100Y88552D01*
X548104Y88569D01*
X548131Y88900D01*
X548131Y139700D01*
X548130Y139709D01*
X548131Y139717D01*
X548130Y139725D01*
X548131Y139736D01*
X548110Y139918D01*
X548091Y140101D01*
X548086Y140118D01*
X548084Y140135D01*
X548027Y140310D01*
X547973Y140486D01*
X547965Y140501D01*
X547959Y140518D01*
X547869Y140678D01*
X547781Y140840D01*
X547770Y140853D01*
X547761Y140869D01*
X547641Y141008D01*
X547524Y141149D01*
X547510Y141160D01*
X547498Y141174D01*
X547353Y141286D01*
X547210Y141401D01*
X547194Y141409D01*
X547180Y141420D01*
X547015Y141502D01*
X546853Y141587D01*
X546836Y141592D01*
X546820Y141600D01*
X546641Y141647D01*
X546466Y141698D01*
X546448Y141700D01*
X546431Y141704D01*
X546100Y141731D01*
X508000Y141731D01*
X507982Y141729D01*
X507964Y141731D01*
X507782Y141710D01*
X507599Y141691D01*
X507582Y141686D01*
X507565Y141684D01*
X507390Y141627D01*
X507214Y141573D01*
X507199Y141565D01*
X507182Y141559D01*
X507022Y141469D01*
X506860Y141381D01*
X506847Y141370D01*
X506831Y141361D01*
X506692Y141241D01*
X506551Y141124D01*
X506540Y141110D01*
X506527Y141098D01*
X506414Y140953D01*
X506299Y140810D01*
X506291Y140794D01*
X506280Y140780D01*
X506198Y140615D01*
X506113Y140453D01*
X506108Y140436D01*
X506100Y140420D01*
X506053Y140241D01*
X506002Y140066D01*
X506000Y140048D01*
X505996Y140031D01*
X505969Y139700D01*
X505969Y88900D01*
X505971Y88882D01*
X505969Y88864D01*
X505990Y88682D01*
X506009Y88499D01*
X506014Y88482D01*
X506016Y88465D01*
X506073Y88290D01*
X506127Y88114D01*
X506135Y88099D01*
X506141Y88082D01*
X506231Y87922D01*
X506319Y87760D01*
X506330Y87747D01*
X506339Y87731D01*
X506459Y87592D01*
X506576Y87451D01*
X506590Y87440D01*
X506602Y87427D01*
X506747Y87314D01*
X506890Y87199D01*
X506906Y87191D01*
X506920Y87180D01*
X507085Y87098D01*
X507247Y87013D01*
X507264Y87008D01*
X507281Y87000D01*
X507459Y86953D01*
X507634Y86902D01*
X507652Y86900D01*
X507669Y86896D01*
X508000Y86869D01*
X546100Y86869D01*
X546118Y86871D01*
G37*
D10*
X294640Y151790D03*
X294640Y170790D03*
D11*
X485110Y63500D03*
X513110Y63500D03*
D12*
X295300Y101600D03*
X314300Y101600D03*
X295300Y127000D03*
X314300Y127000D03*
D10*
X314960Y151790D03*
X314960Y170790D03*
D12*
X245720Y173990D03*
X226720Y173990D03*
D11*
X486380Y165100D03*
X514380Y165100D03*
D13*
X464800Y91300D03*
X464800Y114300D03*
X464800Y137300D03*
D14*
X525800Y114300D03*
D15*
X571500Y92300D03*
X571500Y136300D03*
D16*
X367030Y151130D03*
X367030Y125730D03*
X367030Y100330D03*
D12*
X73000Y88900D03*
X54000Y88900D03*
X73000Y139700D03*
X54000Y139700D03*
X263500Y151700D03*
X263500Y127700D03*
X244500Y127700D03*
X244500Y151700D03*
D16*
X50800Y203200D03*
X76200Y203200D03*
X101600Y203200D03*
X127000Y203200D03*
X152400Y203200D03*
X177800Y203200D03*
X203200Y203200D03*
X228600Y203200D03*
X254000Y203200D03*
X279400Y203200D03*
X304800Y203200D03*
X330200Y203200D03*
X355600Y203200D03*
X381000Y203200D03*
X406400Y203200D03*
X431800Y203200D03*
X457200Y203200D03*
X482600Y203200D03*
X508000Y203200D03*
X533400Y203200D03*
X558800Y203200D03*
X584200Y203200D03*
X609600Y203200D03*
X25400Y203200D03*
X584200Y25400D03*
X558800Y25400D03*
X533400Y25400D03*
X508000Y25400D03*
X482600Y25400D03*
X457200Y25400D03*
X431800Y25400D03*
X406400Y25400D03*
X381000Y25400D03*
X355600Y25400D03*
X330200Y25400D03*
X304800Y25400D03*
X279400Y25400D03*
X254000Y25400D03*
X228600Y25400D03*
X203200Y25400D03*
X177800Y25400D03*
X152400Y25400D03*
X127000Y25400D03*
X101600Y25400D03*
X76200Y25400D03*
X50800Y25400D03*
X25400Y25400D03*
X609600Y25400D03*
D17*
X494030Y125730D03*
D18*
X226568Y123825D03*
D17*
X419710Y188570D03*
X102870Y170180D03*
X63500Y114300D03*
X469900Y69850D03*
X576580Y162560D03*
X75565Y106045D03*
D18*
X111506Y152146D03*
D17*
X278130Y152400D03*
X283210Y111760D03*
X281747Y142047D03*
X29210Y121920D03*
D18*
X122809Y104267D03*
D17*
X99060Y105410D03*
D18*
X189738Y112014D03*
D17*
X463550Y58420D03*
X449580Y58730D03*
X434340Y59040D03*
D18*
X219964Y80772D03*
D17*
X259080Y61496D03*
X210820Y55090D03*
X219710Y105410D03*
X383540Y92710D03*
X205740Y93980D03*
X410210Y113030D03*
X198120Y102870D03*
X396240Y113030D03*
X229870Y137160D03*
X197779Y132421D03*
X139700Y127000D03*
M02*
