G04 EAGLE Gerber RS-274X export*
G75*
%MOMM*%
%FSLAX34Y34*%
%LPD*%
%INSolderpaste Top*%
%IPPOS*%
%AMOC8*
5,1,8,0,0,1.08239X$1,22.5*%
G01*
%ADD10R,1.475000X0.300000*%
%ADD11R,2.500000X0.500000*%
%ADD12R,2.500000X2.000000*%
%ADD13R,2.489200X2.235200*%
%ADD14R,2.235200X2.489200*%
%ADD15R,1.200000X1.200000*%
%ADD16R,1.300000X1.500000*%
%ADD17R,2.300000X1.600000*%
%ADD18R,0.400000X1.499997*%


D10*
G36*
X259038Y120668D02*
X269467Y131097D01*
X271588Y128976D01*
X261159Y118547D01*
X259038Y120668D01*
G37*
G36*
X255502Y124203D02*
X265931Y134632D01*
X268052Y132511D01*
X257623Y122082D01*
X255502Y124203D01*
G37*
G36*
X251967Y127739D02*
X262396Y138168D01*
X264517Y136047D01*
X254088Y125618D01*
X251967Y127739D01*
G37*
G36*
X248431Y131274D02*
X258860Y141703D01*
X260981Y139582D01*
X250552Y129153D01*
X248431Y131274D01*
G37*
G36*
X244895Y134810D02*
X255324Y145239D01*
X257445Y143118D01*
X247016Y132689D01*
X244895Y134810D01*
G37*
G36*
X241360Y138345D02*
X251789Y148774D01*
X253910Y146653D01*
X243481Y136224D01*
X241360Y138345D01*
G37*
G36*
X237824Y141881D02*
X248253Y152310D01*
X250374Y150189D01*
X239945Y139760D01*
X237824Y141881D01*
G37*
G36*
X234289Y145416D02*
X244718Y155845D01*
X246839Y153724D01*
X236410Y143295D01*
X234289Y145416D01*
G37*
G36*
X230753Y148952D02*
X241182Y159381D01*
X243303Y157260D01*
X232874Y146831D01*
X230753Y148952D01*
G37*
G36*
X227218Y152488D02*
X237647Y162917D01*
X239768Y160796D01*
X229339Y150367D01*
X227218Y152488D01*
G37*
G36*
X223682Y156023D02*
X234111Y166452D01*
X236232Y164331D01*
X225803Y153902D01*
X223682Y156023D01*
G37*
G36*
X220147Y159559D02*
X230576Y169988D01*
X232697Y167867D01*
X222268Y157438D01*
X220147Y159559D01*
G37*
G36*
X209532Y157438D02*
X199103Y167867D01*
X201224Y169988D01*
X211653Y159559D01*
X209532Y157438D01*
G37*
G36*
X205997Y153902D02*
X195568Y164331D01*
X197689Y166452D01*
X208118Y156023D01*
X205997Y153902D01*
G37*
G36*
X202461Y150367D02*
X192032Y160796D01*
X194153Y162917D01*
X204582Y152488D01*
X202461Y150367D01*
G37*
G36*
X198926Y146831D02*
X188497Y157260D01*
X190618Y159381D01*
X201047Y148952D01*
X198926Y146831D01*
G37*
G36*
X195390Y143295D02*
X184961Y153724D01*
X187082Y155845D01*
X197511Y145416D01*
X195390Y143295D01*
G37*
G36*
X191855Y139760D02*
X181426Y150189D01*
X183547Y152310D01*
X193976Y141881D01*
X191855Y139760D01*
G37*
G36*
X188319Y136224D02*
X177890Y146653D01*
X180011Y148774D01*
X190440Y138345D01*
X188319Y136224D01*
G37*
G36*
X184784Y132689D02*
X174355Y143118D01*
X176476Y145239D01*
X186905Y134810D01*
X184784Y132689D01*
G37*
G36*
X181248Y129153D02*
X170819Y139582D01*
X172940Y141703D01*
X183369Y131274D01*
X181248Y129153D01*
G37*
G36*
X177712Y125618D02*
X167283Y136047D01*
X169404Y138168D01*
X179833Y127739D01*
X177712Y125618D01*
G37*
G36*
X174177Y122082D02*
X163748Y132511D01*
X165869Y134632D01*
X176298Y124203D01*
X174177Y122082D01*
G37*
G36*
X170641Y118547D02*
X160212Y128976D01*
X162333Y131097D01*
X172762Y120668D01*
X170641Y118547D01*
G37*
G36*
X160212Y99624D02*
X170641Y110053D01*
X172762Y107932D01*
X162333Y97503D01*
X160212Y99624D01*
G37*
G36*
X163748Y96089D02*
X174177Y106518D01*
X176298Y104397D01*
X165869Y93968D01*
X163748Y96089D01*
G37*
G36*
X167283Y92553D02*
X177712Y102982D01*
X179833Y100861D01*
X169404Y90432D01*
X167283Y92553D01*
G37*
G36*
X170819Y89018D02*
X181248Y99447D01*
X183369Y97326D01*
X172940Y86897D01*
X170819Y89018D01*
G37*
G36*
X174355Y85482D02*
X184784Y95911D01*
X186905Y93790D01*
X176476Y83361D01*
X174355Y85482D01*
G37*
G36*
X177890Y81947D02*
X188319Y92376D01*
X190440Y90255D01*
X180011Y79826D01*
X177890Y81947D01*
G37*
G36*
X181426Y78411D02*
X191855Y88840D01*
X193976Y86719D01*
X183547Y76290D01*
X181426Y78411D01*
G37*
G36*
X184961Y74876D02*
X195390Y85305D01*
X197511Y83184D01*
X187082Y72755D01*
X184961Y74876D01*
G37*
G36*
X188497Y71340D02*
X198926Y81769D01*
X201047Y79648D01*
X190618Y69219D01*
X188497Y71340D01*
G37*
G36*
X192032Y67804D02*
X202461Y78233D01*
X204582Y76112D01*
X194153Y65683D01*
X192032Y67804D01*
G37*
G36*
X195568Y64269D02*
X205997Y74698D01*
X208118Y72577D01*
X197689Y62148D01*
X195568Y64269D01*
G37*
G36*
X199103Y60733D02*
X209532Y71162D01*
X211653Y69041D01*
X201224Y58612D01*
X199103Y60733D01*
G37*
G36*
X230576Y58612D02*
X220147Y69041D01*
X222268Y71162D01*
X232697Y60733D01*
X230576Y58612D01*
G37*
G36*
X234111Y62148D02*
X223682Y72577D01*
X225803Y74698D01*
X236232Y64269D01*
X234111Y62148D01*
G37*
G36*
X237647Y65683D02*
X227218Y76112D01*
X229339Y78233D01*
X239768Y67804D01*
X237647Y65683D01*
G37*
G36*
X241182Y69219D02*
X230753Y79648D01*
X232874Y81769D01*
X243303Y71340D01*
X241182Y69219D01*
G37*
G36*
X244718Y72755D02*
X234289Y83184D01*
X236410Y85305D01*
X246839Y74876D01*
X244718Y72755D01*
G37*
G36*
X248253Y76290D02*
X237824Y86719D01*
X239945Y88840D01*
X250374Y78411D01*
X248253Y76290D01*
G37*
G36*
X251789Y79826D02*
X241360Y90255D01*
X243481Y92376D01*
X253910Y81947D01*
X251789Y79826D01*
G37*
G36*
X255324Y83361D02*
X244895Y93790D01*
X247016Y95911D01*
X257445Y85482D01*
X255324Y83361D01*
G37*
G36*
X258860Y86897D02*
X248431Y97326D01*
X250552Y99447D01*
X260981Y89018D01*
X258860Y86897D01*
G37*
G36*
X262396Y90432D02*
X251967Y100861D01*
X254088Y102982D01*
X264517Y92553D01*
X262396Y90432D01*
G37*
G36*
X265931Y93968D02*
X255502Y104397D01*
X257623Y106518D01*
X268052Y96089D01*
X265931Y93968D01*
G37*
G36*
X269467Y97503D02*
X259038Y107932D01*
X261159Y110053D01*
X271588Y99624D01*
X269467Y97503D01*
G37*
D11*
X546500Y114300D03*
X546500Y106300D03*
X546500Y130300D03*
X546500Y122300D03*
D12*
X601500Y159300D03*
X601500Y69300D03*
X546500Y159300D03*
X546500Y69300D03*
D11*
X546500Y98300D03*
D13*
X405130Y134620D03*
X405130Y93980D03*
D14*
X123190Y139700D03*
X123190Y88900D03*
D15*
X86700Y168910D03*
X65700Y168910D03*
X86700Y59690D03*
X65700Y59690D03*
D16*
X47600Y168910D03*
X28600Y168910D03*
X47600Y59690D03*
X28600Y59690D03*
D17*
X32000Y88900D03*
X95000Y88900D03*
X32000Y139700D03*
X95000Y139700D03*
D18*
X469580Y139301D03*
X449260Y139301D03*
X459580Y139301D03*
X439580Y139301D03*
X429580Y139301D03*
X429580Y89299D03*
X439580Y89299D03*
X449260Y89299D03*
X459580Y89299D03*
X469580Y89299D03*
M02*
